<?xml version="1.0" standalone="no"?>
<!DOCTYPE svg PUBLIC "-//W3C//DTD SVG 1.1//EN" "http://www.w3.org/Graphics/SVG/1.1/DTD/svg11.dtd" >
<svg>
<metadata>
Created by FontForge 20090914 at Mon Mar 23 06:43:03 2015
 By www-data
(c) Copyright The Font Bureau, Inc. 2014. All rights reserved.
</metadata>
<defs>
<font id="InputMono-Black" horiz-adv-x="700" >
  <font-face 
    font-family="InputMono Black"
    font-weight="800"
    font-stretch="normal"
    units-per-em="1100"
    panose-1="2 0 8 9 3 0 0 9 0 4"
    ascent="850"
    descent="-250"
    x-height="599.999"
    cap-height="800"
    bbox="-313 -450 1350 1400"
    underline-thickness="0"
    underline-position="0"
    unicode-range="U+000D-U+1F41B"
  />
<missing-glyph 
d="M50 -250v1100h600v-1100h-600zM150 -150h400v900h-400v-900z" />
    <glyph glyph-name=".notdef" 
d="M50 -250v1100h600v-1100h-600zM150 -150h400v900h-400v-900z" />
    <glyph glyph-name="NULL" horiz-adv-x="0" 
 />
    <glyph glyph-name="nonmarkingreturn" unicode="&#xd;" horiz-adv-x="0" 
 />
    <glyph glyph-name="space" unicode="&#xa0;" 
 />
    <glyph glyph-name="space" unicode=" " 
 />
    <glyph glyph-name="exclam" unicode="!" 
d="M255 300l-30 500h240l-30 -500h-180zM351 -10c-48 0 -84.5 6.83301 -109.5 20.5s-37.5 34.834 -37.5 63.501v28c0 29.333 12.5 51 37.5 65s61.5 21 109.5 21s84.333 -7 109 -21s37 -35.667 37 -65v-28c0 -28.667 -12.5 -49.834 -37.5 -63.501s-61.167 -20.5 -108.5 -20.5
z" />
    <glyph glyph-name="quotedbl" unicode="&#x22;" 
d="M426 350l-36 450h220l-36 -450h-148zM126 350l-36 450h220l-36 -450h-148z" />
    <glyph glyph-name="numbersign" unicode="#" 
d="M405 300l10 200h-120l-10 -200h120zM390 0l9 170h-120l-9 -170h-150l9 170h-129v130h135l10 200h-145v130h152l8 170h150l-8 -170h120l8 170h150l-8 -170h128v-130h-135l-10 -200h145v-130h-151l-9 -170h-150z" />
    <glyph glyph-name="dollar" unicode="$" 
d="M225 562c0 -18 5.66797 -32.668 17.001 -44.001s30.666 -20.666 57.999 -27.999v135c-28 -3.33301 -47.5 -10 -58.5 -20s-16.5 -24.333 -16.5 -43zM496.001 239.999c0 19.333 -7.16797 34.833 -21.501 46.5s-39.166 21.5 -74.499 29.5v-143c36 1.33301 61 7.33301 75 18
s21 27 21 49zM410 -50.001l-119.999 0.000976562v92c-62.667 4.66699 -114.5 15.334 -155.5 32.001s-77.833 35 -110.5 55l42 131c32 -19.333 65.333 -37 100 -53s79.334 -26.667 134.001 -32v158c-93.333 13.333 -159.5 34.833 -198.5 64.5s-58.5 74.5 -58.5 134.5
c0 57.333 20.333 106.833 61 148.5s102.667 66.834 186 75.501v94h120v-93c42.667 -4 85 -12.5 127 -25.5s74.333 -28.5 97 -46.5l-32 -125c-32.667 17.333 -64.334 31.666 -95.001 42.999s-66.334 18.666 -107.001 21.999v-153c102 -14.667 174 -37.834 216 -69.501
s63 -78.5 63 -140.5c0 -64 -23.833 -115 -71.5 -153s-113.5 -60.333 -197.5 -67v-92z" />
    <glyph glyph-name="percent" unicode="%" 
d="M190 468c-50.667 0 -91.667 12.667 -123 38s-47 64.333 -47 117v40c0 53.333 15.833 92.833 47.5 118.5s72.5 38.5 122.5 38.5c50.667 0 91.5 -12.833 122.5 -38.5s46.5 -65.167 46.5 -118.5v-40c0 -52.667 -15.667 -91.667 -47 -117s-72 -38 -122 -38zM190 564
c12.667 0 22.5 4 29.5 12s10.5 21.333 10.5 40v54c0 18.667 -3.5 32.334 -10.5 41.001s-16.833 13 -29.5 13s-22.667 -4.33301 -30 -13s-11 -22.334 -11 -41.001v-54c0 -18.667 3.66699 -32 11 -40s17.333 -12 30 -12zM31 193l568 502l78 -89l-576 -505zM511 -22
c-50.667 0 -91.667 12.667 -123 38s-47 64.333 -47 117v40c0 53.333 15.833 92.833 47.5 118.5s72.5 38.5 122.5 38.5c50.667 0 91.5 -12.833 122.5 -38.5s46.5 -65.167 46.5 -118.5v-40c0 -52.667 -15.667 -91.667 -47 -117s-72 -38 -122 -38zM511 69
c12.667 0 22.5 4 29.5 12s10.5 21.333 10.5 40v54c0 18.667 -3.5 32.334 -10.5 41.001s-16.833 13 -29.5 13s-22.667 -4.33301 -30 -13s-11 -22.334 -11 -41.001v-54c0 -18.667 3.66699 -32 11 -40s17.333 -12 30 -12z" />
    <glyph glyph-name="ampersand" unicode="&#x26;" 
d="M667 -22c-35.333 9.33301 -69.665 22.166 -102.998 38.499s-65.333 34.833 -96 55.5c-28 -25.333 -59.333 -45.333 -94 -60s-78 -22 -130 -22c-64 0 -117.333 18.167 -160 54.5s-64 85.166 -64 146.499c0 48.667 10.667 90.334 32 125.001s59.666 70 114.999 106
c-14.667 30.667 -26.167 60 -34.5 88s-12.5 53 -12.5 75c0 70.667 19 126 57 166s90.667 60 158 60c66 0 115 -18 147 -54s48 -74.667 48 -116c0 -48.667 -12.333 -87.5 -37 -116.5s-80.334 -68.5 -167.001 -118.5c5.33301 -10.667 11.166 -21.167 17.499 -31.5
s12.833 -20.166 19.5 -29.499c12.667 -17.333 26 -34.5 40 -51.5s29 -32.833 45 -47.5c10.667 22.667 22.334 49 35.001 79l42 102l149 -29c-20.667 -44 -43.5 -86.333 -68.5 -127s-50.167 -77 -75.5 -109l171 -52zM280.001 585c0 -14.667 1 -29.501 3 -44.501
s5 -29.833 9 -44.5c24.667 16 45.5 33.5 62.5 52.5s25.5 41.833 25.5 68.5c0 26 -3.66699 44.667 -11 56s-19.333 17 -36 17c-18.667 0 -32.167 -8.16699 -40.5 -24.5s-12.5 -43.166 -12.5 -80.499zM305.001 109.999c15.333 0 29.1689 2 41.502 6s24.166 11.667 35.499 23
c-20 18 -39 36.667 -57 56s-35 39 -51 59l-26 34.5l-24 33.5c-8.66699 -16 -14.834 -33.5 -18.501 -52.5s-5.5 -38.5 -5.5 -58.5c0 -37.333 9 -63.5 27 -78.5s44 -22.5 78 -22.5z" />
    <glyph glyph-name="quotesingle" unicode="'" 
d="M266 350l-36 450h240l-36 -450h-168z" />
    <glyph glyph-name="parenleft" unicode="(" 
d="M580 -210c-164 24.667 -276.667 85.667 -338 183s-92 206.333 -92 327c0 115.333 30.667 223 92 323s174 162.333 338 187l20 -130c-99.333 -24.667 -165.833 -69 -199.5 -133s-50.5 -146.333 -50.5 -247s16.833 -181.667 50.5 -243s100.167 -104.333 199.5 -129z" />
    <glyph glyph-name="parenright" unicode=")" 
d="M120 -210l-20 138c99.333 24.667 165.833 68.5 199.5 131.5s50.5 143.167 50.5 240.5c0 90.667 -16.833 170.5 -50.5 239.5s-100.167 115.833 -199.5 140.5l20 130c164 -24.667 276.667 -87 338 -187s92 -207.667 92 -323c0 -120.667 -30.667 -229.667 -92 -327
s-174 -158.333 -338 -183z" />
    <glyph glyph-name="asterisk" unicode="*" 
d="M569 261l-187 181l48 -242h-162l49 241l-186 -180l-81 140l246 100l-246 100l81 140l186 -181l-49 240h162l-48 -240l187 181l81 -140l-247 -100l247 -100z" />
    <glyph glyph-name="plus" unicode="+" 
d="M270 30v240h-210v160h210v240h160v-240h210v-160h-210v-240h-160z" />
    <glyph glyph-name="comma" unicode="," 
d="M173 -150l75 450h283l-231 -450h-127z" />
    <glyph glyph-name="hyphen" unicode="&#x2011;" 
d="M60 270v170h580v-170h-580z" />
    <glyph glyph-name="hyphen" unicode="&#x2010;" 
d="M60 270v170h580v-170h-580z" />
    <glyph glyph-name="hyphen" unicode="&#xad;" 
d="M60 270v170h580v-170h-580z" />
    <glyph glyph-name="hyphen" unicode="-" 
d="M60 270v170h580v-170h-580z" />
    <glyph glyph-name="period" unicode="." 
d="M351 -10c-45.333 0 -81.833 9.83301 -109.5 29.5s-41.5 46.834 -41.5 81.501v87c0 35.333 13.833 63 41.5 83s64.167 30 109.5 30c44.667 0 80.667 -10 108 -30s41 -47.667 41 -83v-87c0 -34.667 -14 -61.834 -42 -81.501s-63.667 -29.5 -107 -29.5z" />
    <glyph glyph-name="slash" unicode="/" 
d="M70 -200l400 1000h160l-400 -1000h-160z" />
    <glyph glyph-name="zero" unicode="0" 
d="M350 -10c-96 0 -170 28.333 -222 85s-78 137.334 -78 242.001v162c0 105.333 26.167 186.833 78.5 244.5s126.5 86.5 222.5 86.5c95.333 0 169 -28.833 221 -86.5s78 -139.167 78 -244.5v-162c0 -104.667 -26 -185.334 -78 -242.001s-126 -85 -222 -85zM350 130
c44 0 75 15.333 93 46s27 84.334 27 161.001v122c0 78 -9 132.667 -27 164s-49 47 -93 47s-75 -15.667 -93 -47s-27 -86 -27 -164v-122c0 -76.667 9 -130.334 27 -161.001s49 -46 93 -46zM350 312c-21.333 0 -38.666 3.66699 -51.999 11s-20 21.333 -20 42v69
c0 20 6.66699 33.833 20 41.5s30.666 11.5 51.999 11.5s38.5 -3.83301 51.5 -11.5s19.5 -21.5 19.5 -41.5v-69c0 -20.667 -6.66699 -34.667 -20 -42s-30.333 -11 -51 -11z" />
    <glyph glyph-name="one" unicode="1" 
d="M80 0v150.003h200v470h-29c-10.667 -44 -33 -79.333 -67 -106s-72 -41.334 -114 -44.001l-10 148c52 5.33301 98.5 24.666 139.5 57.999s68.833 74.666 83.5 123.999h197v-650h170v-150h-570z" />
    <glyph glyph-name="two" unicode="2" 
d="M50 0l-0.00292969 165c0 64.667 13.333 114.334 40 149.001s76.334 67.334 149.001 98.001l96 40c36 14.667 62.5 27.667 79.5 39s25.5 33.666 25.5 66.999v16c0 36 -7.66699 61 -23 75s-37.666 21 -66.999 21c-30 0 -51.667 -7.83301 -65 -23.5
s-21.666 -48.167 -24.999 -97.5l-200 10c5.33301 88.667 30.5 152.667 75.5 192s116.167 59 213.5 59c102 0 176 -20.5 222 -61.5s69 -99.5 69 -175.5v-40c0 -60.667 -17.833 -106.167 -53.5 -136.5s-79.5 -56.166 -131.5 -77.499l-97 -40
c-50 -20.667 -80.5 -36.834 -91.5 -48.501s-16.5 -32.834 -16.5 -63.501v-17h400v-150h-600z" />
    <glyph glyph-name="three" unicode="3" 
d="M353 -10c-104.667 0 -181.829 20.168 -231.496 60.501s-76.834 100.833 -81.501 181.5l200 10c4.66699 -47.333 15.167 -76.5 31.5 -87.5s45.166 -16.5 86.499 -16.5c32.667 0 56.167 7 70.5 21s21.5 35.667 21.5 65v27c0 33.333 -8.5 57.166 -25.5 71.499
s-41.833 21.5 -74.5 21.5h-110v147h110c30 0 50.833 4.5 62.5 13.5s17.5 26.167 17.5 51.5v32c0 26 -6.66699 44.833 -20 56.5s-34.333 17.5 -63 17.5c-27.333 0 -47.666 -6.16699 -60.999 -18.5s-22 -34.166 -26 -65.499l-200 10c4.66699 79.333 28.667 136.166 72 170.499
s112.666 51.5 207.999 51.5c102 0 175.833 -15.833 221.5 -47.5s68.5 -82.834 68.5 -153.501v-18c0 -46 -14.333 -82 -43 -108s-63.334 -41.667 -104.001 -47v-29c42 -3.33301 80.333 -19.666 115 -48.999s52 -70 52 -122v-17c0 -86.667 -26.333 -146.5 -79 -179.5
s-125.334 -49.5 -218.001 -49.5z" />
    <glyph glyph-name="four" unicode="4" 
d="M210 335h170v263zM700 195h-120v-195h-200v195h-340v140l295 465h245v-465h120v-140z" />
    <glyph glyph-name="five" unicode="5" 
d="M349 -10c-106.667 0 -183.667 19.332 -231 57.999s-73.333 106.334 -78 203.001l200 10c6 -54 16.833 -89.333 32.5 -106s41.5 -25 77.5 -25c41.333 0 68.333 9 81 27s19 47.667 19 89v28c0 36.667 -7.83301 63.5 -23.5 80.5s-50.167 25.5 -103.5 25.5h-253v420h550v-140
h-350v-131h125c84 0 147.5 -18.167 190.5 -54.5s64.5 -91.5 64.5 -165.5v-93c0 -64 -23.5 -117.667 -70.5 -161s-123.833 -65 -230.5 -65z" />
    <glyph glyph-name="six" unicode="6" 
d="M350 -10c-100.667 0 -175.833 23.5 -225.5 70.5s-74.5 118.833 -74.5 215.5v241c0 99.333 24.833 173 74.5 221s125.5 72 227.5 72c88 0 154.167 -16.333 198.5 -49s74.5 -87.667 90.5 -165l-209 -23c-8.66699 40.667 -19.167 67 -31.5 79s-34.166 18 -65.499 18
c-30.667 0 -52.5 -11.667 -65.5 -35s-19.5 -63 -19.5 -119v-83h10c16.667 18.667 38.167 34.5 64.5 47.5s63.5 19.5 111.5 19.5c68 0 120.667 -19.667 158 -59s56 -99 56 -179v-22c0 -84 -24.833 -146.667 -74.5 -188s-124.834 -62 -225.501 -62zM349.001 130
c38 0 64 10.5 78 31.5s21 47.833 21 80.5v13c0 38 -7 68.167 -21 90.5s-40 33.5 -78 33.5s-64 -11.167 -78 -33.5s-21 -52.5 -21 -90.5v-13c0 -38 7 -66.167 21 -84.5s40 -27.5 78 -27.5z" />
    <glyph glyph-name="seven" unicode="7" 
d="M200 0c30.667 149.333 62.1689 268.332 94.502 356.999s84.166 186.334 155.499 293.001h-400v150h600v-150c-69.333 -116.667 -120.333 -222.5 -153 -317.5s-58.334 -205.833 -77.001 -332.5h-220z" />
    <glyph glyph-name="eight" unicode="8" 
d="M350 -10c-100.667 0 -175.832 17.832 -225.499 53.499s-74.5 90.167 -74.5 163.5v22c0 50 14.833 91 44.5 123s70.5 50.333 122.5 55v29c-42 4 -77 19.167 -105 45.5s-42 61.166 -42 104.499v32c0 64.667 23.167 112.834 69.5 144.501s116.5 47.5 210.5 47.5
s164.167 -15.833 210.5 -47.5s69.5 -79.834 69.5 -144.501v-32c0 -43.333 -14 -78.166 -42 -104.499s-63 -41.5 -105 -45.5v-29c52 -4.66699 92.833 -23.167 122.5 -55.5s44.5 -73.166 44.5 -122.499v-22c0 -73.333 -24.833 -127.833 -74.5 -163.5
s-124.834 -53.5 -225.501 -53.5zM350.002 489.999c26 0 45.833 5.5 59.5 16.5s20.5 30.833 20.5 59.5v22c0 28 -6.83301 47.333 -20.5 58s-33.5 16 -59.5 16s-45.833 -5.33301 -59.5 -16s-20.5 -30 -20.5 -58v-22c0 -28.667 6.83301 -48.5 20.5 -59.5s33.5 -16.5 59.5 -16.5
zM350.002 137.999c41.333 0 68.333 8.83301 81 26.5s19 41.834 19 72.501v12c0 30.667 -6.33301 55.167 -19 73.5s-39.667 27.5 -81 27.5s-68.333 -9.16699 -81 -27.5s-19 -42.833 -19 -73.5v-12c0 -30.667 6.33301 -54.834 19 -72.501s39.667 -26.5 81 -26.5z" />
    <glyph glyph-name="nine" unicode="9" 
d="M351 421c38 0 64 11.167 78 33.5s21 52.5 21 90.5v13c0 38 -7 66.167 -21 84.5s-40 27.5 -78 27.5s-64 -10.5 -78 -31.5s-21 -47.833 -21 -80.5v-13c0 -38 7 -68.167 21 -90.5s40 -33.5 78 -33.5zM348 -10c-86.667 0 -152.501 16.833 -197.501 50.5
s-75.5 88.167 -91.5 163.5l209 23c8.66699 -40.667 19.167 -67 31.5 -79s34.166 -18 65.499 -18c32 0 54.167 11.667 66.5 35s18.5 63 18.5 119v83h-10c-16.667 -19.333 -38.167 -35.333 -64.5 -48s-63.5 -19 -111.5 -19c-69.333 0 -122.333 19.667 -159 59s-55 99 -55 179
v22c0 84 24.833 146.667 74.5 188s124.834 62 225.501 62s175.834 -23.5 225.501 -70.5s74.5 -118.833 74.5 -215.5v-241c0 -99.333 -24.833 -173 -74.5 -221s-125.5 -72 -227.5 -72z" />
    <glyph glyph-name="colon" unicode=":" 
d="M351 386c-40.667 0 -73.5 8.66699 -98.5 26s-37.5 41.666 -37.5 72.999v59c0 32 12.5 56.833 37.5 74.5s57.833 26.5 98.5 26.5c40 0 72.333 -8.83301 97 -26.5s37 -42.5 37 -74.5v-59c0 -31.333 -12.667 -55.666 -38 -72.999s-57.333 -26 -96 -26zM351 -4
c-40.667 0 -73.5 8.66699 -98.5 26s-37.5 41.666 -37.5 72.999v59c0 32 12.5 56.833 37.5 74.5s57.833 26.5 98.5 26.5c40 0 72.333 -8.83301 97 -26.5s37 -42.5 37 -74.5v-59c0 -31.333 -12.667 -55.666 -38 -72.999s-57.333 -26 -96 -26z" />
    <glyph glyph-name="semicolon" unicode=";" 
d="M351 386c-40.667 0 -73.5 8.66699 -98.5 26s-37.5 41.666 -37.5 72.999v59c0 32 12.5 56.833 37.5 74.5s57.833 26.5 98.5 26.5c40 0 72.333 -8.83301 97 -26.5s37 -42.5 37 -74.5v-59c0 -31.333 -12.667 -55.666 -38 -72.999s-57.333 -26 -96 -26zM191 -128l67 406h255
l-208 -406h-114z" />
    <glyph glyph-name="less" unicode="&#x3c;" 
d="M610 0l-520 250v200l520 250v-155l-406 -195l406 -195v-155z" />
    <glyph glyph-name="equal" unicode="=" 
d="M60 430v160h580v-160h-580zM60 110v160h580v-160h-580z" />
    <glyph glyph-name="greater" unicode="&#x3e;" 
d="M90 0v145l426 205l-426 205v145l520 -250v-200z" />
    <glyph glyph-name="question" unicode="?" 
d="M220 263l-19.998 131.001c96.667 15.333 160.834 35.5 192.501 60.5s47.5 57.5 47.5 97.5v20c0 32.667 -6.33301 57.167 -19 73.5s-36.334 24.5 -71.001 24.5c-36.667 0 -61.334 -8.83301 -74.001 -26.5s-21.334 -49.167 -26.001 -94.5l-200 10
c4.66699 85.333 31.334 148.5 80.001 189.5s121.667 61.5 219 61.5c93.333 0 165.166 -22.333 215.499 -67s75.5 -99.334 75.5 -164.001v-31c0 -81.333 -33 -143.833 -99 -187.5s-173 -76.167 -321 -97.5zM301.002 -9.99902c-48 0 -84.5 6.83301 -109.5 20.5
s-37.5 34.834 -37.5 63.501v28c0 29.333 12.5 51 37.5 65s61.5 21 109.5 21s84.333 -7 109 -21s37 -35.667 37 -65v-28c0 -28.667 -12.5 -49.834 -37.5 -63.501s-61.167 -20.5 -108.5 -20.5z" />
    <glyph glyph-name="at" unicode="@" 
d="M398 -110c-123.333 0 -215.5 32.667 -276.5 98s-91.5 152.333 -91.5 261v238c0 97.333 27.167 175.5 81.5 234.5s136.833 88.5 247.5 88.5c100 0 176.833 -27.333 230.5 -82s80.5 -131.667 80.5 -231v-195c0 -64 -20 -110.333 -60 -139s-95 -43 -165 -43
c-73.333 0 -127.5 16 -162.5 48s-52.5 76.667 -52.5 134v82c0 56 14 101 42 135s66 51 114 51c43.333 0 78.333 -7.16699 105 -21.5s45.667 -32.166 57 -53.499h30c-1.33301 73.333 -17.166 127.5 -47.499 162.5s-87.833 52.5 -172.5 52.5c-77.333 0 -133 -19.5 -167 -58.5
s-51 -93.833 -51 -164.5v-228c0 -83.333 20.167 -148.333 60.5 -195s106.166 -70 197.499 -70c39.333 0 75.666 3 108.999 9s64.333 13 93 21v-104c-27.333 -6.66699 -59.166 -13.334 -95.499 -20.001s-71.833 -10 -106.5 -10zM449 230c18.667 0 33.167 4.83301 43.5 14.5
s15.5 29.5 15.5 59.5v72c0 30 -5.5 51.5 -16.5 64.5s-25.167 19.5 -42.5 19.5c-18.667 0 -33.167 -6.66699 -43.5 -20s-15.5 -35.333 -15.5 -66v-62c0 -29.333 5.16699 -50.333 15.5 -63s24.833 -19 43.5 -19z" />
    <glyph glyph-name="A" unicode="A" 
d="M428 330l-73 326l-82 -326h155zM503 0l-41 180h-227l-45 -180h-180l218 800h245l218 -800h-188z" />
    <glyph glyph-name="B" unicode="B" 
d="M50 0l0.000976562 800h314c90 0 156.5 -15.333 199.5 -46s64.5 -78 64.5 -142v-34c0 -44 -9.33301 -76.5 -28 -97.5s-49 -35.167 -91 -42.5v-29c45.333 -4.66699 80.166 -20.167 104.499 -46.5s36.5 -59.5 36.5 -99.5v-52c0 -71.333 -23.5 -124.333 -70.5 -159
s-119.833 -52 -218.5 -52h-311zM250.001 480h94c31.333 0 53.5 5 66.5 15s19.5 27.333 19.5 52v48c0 24 -6.5 40.833 -19.5 50.5s-35.167 14.5 -66.5 14.5h-94v-180zM250.001 140h90c40 0 68.333 6 85 18s25 33 25 63v52c0 28.667 -8.33301 49 -25 61s-45 18 -85 18h-90
v-212z" />
    <glyph glyph-name="C" unicode="C" 
d="M360 -10c-103.333 0 -180.833 21.499 -232.5 64.499s-77.5 107.167 -77.5 192.5v302c0 87.333 26 152.666 78 195.999s129.667 65 233 65c105.333 0 182 -22.667 230 -68s74.333 -119.666 79 -222.999l-200 -10c-4 62 -13.167 102.667 -27.5 122s-41.833 29 -82.5 29
c-39.333 0 -67.5 -10.167 -84.5 -30.5s-25.5 -54.166 -25.5 -101.499v-261c0 -45.333 8.5 -77.833 25.5 -97.5s45.167 -29.5 84.5 -29.5c40 0 67.167 9.5 81.5 28.5s23.833 58.5 28.5 118.5l200 -10c-4.66699 -102.667 -31 -176.167 -79 -220.5s-125 -66.5 -231 -66.5z" />
    <glyph glyph-name="D" unicode="D" 
d="M50 0v800h301c93.333 0 166.5 -26.5 219.5 -79.5s79.5 -123.5 79.5 -211.5v-222c0 -87.333 -26.5 -157 -79.5 -209s-126.5 -78 -220.5 -78h-300zM250 150h80c45.333 0 76.666 11.333 93.999 34s26 63.667 26 123v182c0 60.667 -8.66699 102.667 -26 126
s-48.666 35 -93.999 35h-80v-500z" />
    <glyph glyph-name="E" unicode="E" 
d="M50 0v800h600v-150h-400v-150h350v-150h-350v-200h400v-150h-600z" />
    <glyph glyph-name="F" unicode="F" 
d="M100 0v800h570v-150h-370v-200h300v-150h-300v-300h-200z" />
    <glyph glyph-name="G" unicode="G" 
d="M352 -10c-97.333 0 -172.002 23.833 -224.002 71.5s-78 116.167 -78 205.5v262c0 90.667 25.833 160.167 77.5 208.5s126.167 72.5 223.5 72.5s170.333 -21.667 219 -65s75.334 -105.333 80.001 -186l-200 -10c-3.33301 42 -12.166 71 -26.499 87s-37.833 24 -70.5 24
c-38.667 0 -65.5 -10.833 -80.5 -32.5s-22.5 -61.167 -22.5 -118.5v-222c0 -56 7.16699 -94.5 21.5 -115.5s40.5 -31.5 78.5 -31.5s64.333 10.167 79 30.5s21.667 56.833 21 109.5h-100v150h300v-163c0 -89.333 -25.667 -157.833 -77 -205.5s-125 -71.5 -221 -71.5z" />
    <glyph glyph-name="H" unicode="H" 
d="M50 0v800h200v-280h200v280h200v-800h-200v370h-200v-370h-200z" />
    <glyph glyph-name="I" unicode="I" 
d="M50 0v150h200v500h-200v150h600v-150h-200v-500h200v-150h-600z" />
    <glyph glyph-name="J" unicode="J" 
d="M339 -10c-104.667 0 -181.167 23.168 -229.5 69.501s-74.833 122.166 -79.5 227.499l200 11c4.66699 -64.667 14.5 -107.167 29.5 -127.5s40.833 -30.5 77.5 -30.5c32.667 0 56.334 9 71.001 27s22 52.333 22 103v380h-230v150h430v-540c0 -84 -23.333 -150 -70 -198
s-120.334 -72 -221.001 -72z" />
    <glyph glyph-name="K" unicode="K" 
d="M250 335v-335h-200v800h200v-315h40l190 315h205l-246 -370l243 -430h-202l-187 335h-43z" />
    <glyph glyph-name="L" unicode="L" 
d="M100 0v800h200v-650h350v-150h-550z" />
    <glyph glyph-name="M" unicode="M" 
d="M288 250l-95 260l22 -510h-175v800h185l128 -371l127 371h180v-800h-175l21 504l-92 -254h-126z" />
    <glyph glyph-name="N" unicode="N" 
d="M417 0l-197 524v-524h-170v800h217l213 -568v568h170v-800h-233z" />
    <glyph glyph-name="O" unicode="O" 
d="M350 -10c-98 0 -172.5 22.667 -223.5 68s-76.5 108.333 -76.5 189v302c0 81.333 25.667 145.166 77 191.499s126 69.5 224 69.5s172.333 -23.167 223 -69.5s76 -110.166 76 -191.499v-302c0 -80.667 -25.5 -143.667 -76.5 -189s-125.5 -68 -223.5 -68zM350 140
c36 0 61.667 9.66699 77 29s23 52 23 98v262c0 46 -7.66699 79.333 -23 100s-41 31 -77 31s-61.667 -10.333 -77 -31s-23 -54 -23 -100v-262c0 -46 7.66699 -78.667 23 -98s41 -29 77 -29z" />
    <glyph glyph-name="P" unicode="P" 
d="M50 0l-0.000976562 800h312c88.667 0 158.834 -18.333 210.501 -55s77.5 -94.667 77.5 -174v-111c0 -76 -25.5 -131.333 -76.5 -166s-121.167 -52 -210.5 -52h-113v-242h-200zM249.999 390l100 0.000976562c33.333 0 58.333 5.66699 75 17s25 34.666 25 69.999v81
c0 36 -8.33301 60.333 -25 73s-41.667 19 -75 19h-100v-260z" />
    <glyph glyph-name="Q" unicode="Q" 
d="M610 -211c-126 -18 -216.499 -8.33301 -271.499 29s-81.5 107.333 -79.5 210c-68.667 12.667 -120.667 40.5 -156 83.5s-53 98.167 -53 165.5v272c0 81.333 25.667 145.166 77 191.499s126 69.5 224 69.5s172.333 -23.167 223 -69.5s76 -110.166 76 -191.499v-272
c0 -72 -20.333 -130.167 -61 -174.5s-100.334 -70.833 -179.001 -79.5c2 -38 16.5 -62.667 43.5 -74s72.5 -11.333 136.5 0zM350.001 160c36 0 61.667 11.167 77 33.5s23 56.833 23 103.5v232c0 46.667 -7.66699 80.167 -23 100.5s-41 30.5 -77 30.5
s-61.667 -10.167 -77 -30.5s-23 -53.833 -23 -100.5v-232c0 -46.667 7.66699 -81.167 23 -103.5s41 -33.5 77 -33.5z" />
    <glyph glyph-name="R" unicode="R" 
d="M250 430h100c37.333 0 63.333 5.83301 78 17.5s22 33.5 22 65.5v54c0 30.667 -7.33301 52.167 -22 64.5s-40.667 18.5 -78 18.5h-100v-220zM250 0h-200v800h331c89.333 0 154.833 -19 196.5 -57s62.5 -92.667 62.5 -164v-72c0 -54.667 -11.5 -99.667 -34.5 -135
s-57.167 -60.333 -102.5 -75l166 -297h-209l-155 280h-55v-280z" />
    <glyph glyph-name="S" unicode="S" 
d="M341 -10c-64.667 0 -121.331 7.83203 -169.998 23.499s-92.334 34.834 -131.001 57.501l45 149c40 -23.333 80.167 -42.5 120.5 -57.5s86.5 -22.5 138.5 -22.5c39.333 0 67.666 7.33301 84.999 22s26 34.334 26 59.001c0 30.667 -11 51.667 -33 63s-60 23 -114 35
c-91.333 20.667 -155.5 49 -192.5 85s-55.5 88 -55.5 156c0 70 24 129.167 72 177.5s121.667 72.5 221 72.5c48 0 96.5 -8.5 145.5 -25.5s87.833 -33.833 116.5 -50.5l-35 -142c-40 20 -77.833 36 -113.5 48s-73.167 18 -112.5 18c-32.667 0 -56.667 -6.33301 -72 -19
s-23 -31.334 -23 -56.001s9.33301 -44.334 28 -59.001s58.667 -28.334 120 -41.001c91.333 -19.333 155.5 -47.666 192.5 -84.999s55.5 -92.333 55.5 -165c0 -77.333 -27.667 -137.166 -83 -179.499s-132.333 -63.5 -231 -63.5z" />
    <glyph glyph-name="T" unicode="T" 
d="M250 0v650h-220v150h640v-150h-220v-650h-200z" />
    <glyph glyph-name="U" unicode="U" 
d="M350 -10c-102.667 0 -178.332 23.333 -226.999 70s-73 119 -73 217v523h200v-513c0 -53.333 7.66699 -89.5 23 -108.5s41 -28.5 77 -28.5s61.667 9.5 77 28.5s23 55.167 23 108.5v513h200v-523c0 -98 -24.333 -170.333 -73 -217s-124.334 -70 -227.001 -70z" />
    <glyph glyph-name="V" unicode="V" 
d="M483 0h-265l-208 800h198l142 -657l151 657h190z" />
    <glyph glyph-name="W" unicode="W" 
d="M418 0l-66 347l-66 -347h-174l-103 800h169l38 -581l66 381h134l69 -366l37 566h169l-103 -800h-170z" />
    <glyph glyph-name="X" unicode="X" 
d="M479 0l-134 249l-130 -249h-191l234 412l-209 388h204l116 -221l116 221h191l-220 -387l217 -413h-194z" />
    <glyph glyph-name="Y" unicode="Y" 
d="M450 0h-200v300l-236 500h199l136 -330l138 330h198l-235 -500v-300z" />
    <glyph glyph-name="Z" unicode="Z" 
d="M650 0h-600v150l392 500h-392v150h600v-150l-388 -500h388v-150z" />
    <glyph glyph-name="bracketleft" unicode="[" 
d="M150 -200v1000h450v-140h-250v-720h250v-140h-450z" />
    <glyph glyph-name="backslash" unicode="\" 
d="M470 -198l-400 1000l160 -2l400 -1000z" />
    <glyph glyph-name="bracketright" unicode="]" 
d="M100 -200v140h250v720h-250v140h450v-1000h-450z" />
    <glyph glyph-name="asciicircum" unicode="^" 
d="M485 200l-135 352l-135 -352h-195l230 600h200l230 -600h-195z" />
    <glyph glyph-name="underscore" unicode="_" 
d="M60 -200v170h580v-170h-580z" />
    <glyph glyph-name="grave" unicode="`" 
d="M394 350l-251 450h283l95 -450h-127z" />
    <glyph glyph-name="a" unicode="a" 
d="M283 110c20.667 0 40.668 2.66699 60.001 8s38.333 12.333 57 21v98h-120c-20.667 0 -35.834 -4.5 -45.501 -13.5s-14.5 -27.167 -14.5 -54.5c0 -19.333 5 -34 15 -44s26 -15 48 -15zM230.001 -10c-58 0 -104.166 15.6689 -138.499 47.002s-51.5 74 -51.5 128
c0 56.667 20 99.5 60 128.5s95 43.5 165 43.5h135v68c0 28 -7.33301 46.833 -22 56.5s-36.334 14.5 -65.001 14.5c-30 0 -52.167 -5.83301 -66.5 -17.5s-24.5 -33.167 -30.5 -64.5l-161 25c14.667 71.333 41.5 121 80.5 149s100.5 42 184.5 42
c91.333 0 159.166 -16.833 203.499 -50.5s66.5 -84.834 66.5 -153.501v-216c0 -26 7.83301 -41.833 23.5 -47.5s37.834 -6.83398 66.501 -3.50098v-134c-56 -13.333 -101 -13 -135 1s-57.667 42 -71 84h-30c-21.333 -26.667 -50.833 -50 -88.5 -70s-79.5 -30 -125.5 -30z
" />
    <glyph glyph-name="b" unicode="b" 
d="M343 -6c-48 0 -96.165 6.49805 -144.498 19.498s-94.5 31.833 -138.5 56.5v730h200v-310h30c15.333 38.667 38.666 68.334 69.999 89.001s68.333 31 111 31c51.333 0 92.333 -18.167 123 -54.5s46 -84.833 46 -145.5v-191c0 -73.333 -25.333 -129.166 -76 -167.499
s-124.334 -57.5 -221.001 -57.5zM354.002 132.998c28 0 49.332 6.5 63.999 19.5s22 35.5 22 67.5v151c0 30.667 -6.5 53.167 -19.5 67.5s-29.833 21.5 -50.5 21.5c-18.667 0 -36.834 -4.16699 -54.501 -12.5s-36.167 -20.833 -55.5 -37.5v-252
c16.667 -8.66699 32.334 -15 47.001 -19s30.334 -6 47.001 -6z" />
    <glyph glyph-name="c" unicode="c" 
d="M359 -10c-96.667 0 -170.669 20.332 -222.002 60.999s-77 99.334 -77 176.001v150c0 74 25.833 131.333 77.5 172s125.167 61 220.5 61c92 0 159.667 -19.833 203 -59.5s70 -95.167 80 -166.5l-193 -16c-3.33301 38 -12 64.333 -26 79s-37.333 22 -70 22
c-34 0 -57.833 -7.83301 -71.5 -23.5s-20.5 -43.167 -20.5 -82.5v-126c0 -40 7 -67.833 21 -83.5s38.333 -23.5 73 -23.5c32.667 0 55.834 6 69.501 18s21.834 33.333 24.501 64l193 -16c-4.66699 -66 -26.667 -116.833 -66 -152.5s-111.333 -53.5 -216 -53.5z" />
    <glyph glyph-name="d" unicode="d" 
d="M330 140c18.667 0 36.833 4.16602 54.5 12.499s36.167 20.833 55.5 37.5v252c-14 7.33301 -29 13.333 -45 18s-32.333 7 -49 7c-28.667 0 -50.167 -7.16699 -64.5 -21.5s-21.5 -36.166 -21.5 -65.499v-151c0 -30.667 6.5 -53.167 19.5 -67.5s29.833 -21.5 50.5 -21.5z
M409.999 109.999c-15.333 -38 -38.833 -67.5 -70.5 -88.5s-68.5 -31.5 -110.5 -31.5c-55.333 0 -97.333 19.833 -126 59.5s-43 86.5 -43 140.5v191c0 70 22 125 66 165s104.667 60 182 60c24.667 0 48.167 -2 70.5 -6s42.833 -9.66699 61.5 -17v217h200v-800h-200v110h-30z
" />
    <glyph glyph-name="e" unicode="e" 
d="M654 142c-26.667 -58 -61.3311 -97.833 -103.998 -119.5s-108 -32.5 -196 -32.5c-82.667 0 -152.334 19 -209.001 57s-85 95.667 -85 173v159c0 72 25.667 128.5 77 169.5s122.666 61.5 213.999 61.5c90.667 0 161.5 -20.5 212.5 -61.5s76.5 -98.167 76.5 -171.5v-117
h-380v-54c0 -28 7.5 -50.167 22.5 -66.5s40.833 -24.5 77.5 -24.5c28.667 0 53.5 4.5 74.5 13.5s39.5 27.833 55.5 56.5zM260.003 399v-39h180v30c0 37.333 -6 63.333 -18 78s-36 22 -72 22s-60 -6.83301 -72 -20.5s-18 -37.167 -18 -70.5z" />
    <glyph glyph-name="f" unicode="f" 
d="M220 0l-0.000976562 460h-160v140h160v31c0 64 23.333 114.667 70 152s110.667 56 192 56c28 0 56.167 -1.66699 84.5 -5s55.833 -9.33301 82.5 -18l-20 -126c-22.667 6.66699 -44.167 11.5 -64.5 14.5s-39.166 4.5 -56.499 4.5c-28.667 0 -50.5 -8.16699 -65.5 -24.5
s-22.5 -39.833 -22.5 -70.5v-14h220v-140h-220v-460h-200z" />
    <glyph glyph-name="g" unicode="g" 
d="M670 -26c0 -54.667 -20.833 -99.001 -62.5 -133.001s-98.167 -51 -169.5 -51h-172c-79.333 0 -138.5 13.833 -177.5 41.5s-58.5 60.5 -58.5 98.5c0 34 10.667 61.167 32 81.5s47.333 32.166 78 35.499v20c-24.667 8 -45.5 19.667 -62.5 35s-25.5 39 -25.5 71
c0 37.333 13.333 67.5 40 90.5s59 36.833 97 41.5v20c-34.667 8.66699 -61.5 22.667 -80.5 42s-28.5 44 -28.5 74v2c0 51.333 22.5 90.333 67.5 117s99.5 40 163.5 40h359v-110l-164 18v-20c24.667 -6.66699 45 -19.167 61 -37.5s24 -39.166 24 -62.499v-4
c0 -49.333 -22.667 -87.166 -68 -113.499s-101 -39.5 -167 -39.5h-88c-22 0 -39.333 -3.66699 -52 -11s-19 -19.333 -19 -36s6.33301 -28.667 19 -36s30 -11 52 -11h176c69.333 0 124.333 -13.5 165 -40.5s61 -67.833 61 -122.5zM335 320.999
c26.667 0 45.8359 5.66699 57.5029 17s17.5 26.333 17.5 45v50c0 16.667 -5.83301 30.667 -17.5 42s-30.834 17 -57.501 17s-45.834 -5.66699 -57.501 -17s-17.5 -25.333 -17.5 -42v-50c0 -18.667 5.66699 -33.667 17 -45s30.666 -17 57.999 -17zM268.002 -100.001h168
c21.333 0 39 3 53 9s21 20 21 42s-7 35.833 -21 41.5s-31.667 8.5 -53 8.5h-218v-46c0 -17.333 4.16699 -30.833 12.5 -40.5s20.833 -14.5 37.5 -14.5z" />
    <glyph glyph-name="h" unicode="h" 
d="M60 0l0.00195312 800h200v-310h30c16.667 38 41 67.5 73 88.5s68.667 31.5 110 31.5c50.667 0 91.167 -16.5 121.5 -49.5s45.5 -76.833 45.5 -131.5v-429h-200v374c0 28 -5.16699 49.333 -15.5 64s-24.833 22 -43.5 22c-20.667 0 -41.334 -7.83301 -62.001 -23.5
s-40.334 -36.5 -59.001 -62.5v-374h-200z" />
    <glyph glyph-name="i" unicode="i" 
d="M70 0v140h180v320h-180v140h380v-460h180v-140h-560zM361 690c-38 0 -68.833 5.66699 -92.5 17s-35.5 31 -35.5 59v15c0 28.667 11.833 49 35.5 61s54.5 18 92.5 18s68.833 -6 92.5 -18s35.5 -32.333 35.5 -61v-15c0 -28 -12 -47.667 -36 -59s-54.667 -17 -92 -17z" />
    <glyph glyph-name="j" unicode="j" 
d="M238 -210c-31.333 0 -63 1.5 -95 4.5s-62.667 9.16699 -92 18.5l20 126c26.667 -8 51.667 -13.167 75 -15.5s45.333 -3.5 66 -3.5c40 0 71.333 7.33301 94 22s34 39 34 73v445h-249v140h449v-602c0 -64.667 -26.833 -115.5 -80.5 -152.5s-127.5 -55.5 -221.5 -55.5z
M430 690c-38 0 -68.833 5.66699 -92.5 17s-35.5 31 -35.5 59v15c0 28.667 11.833 49 35.5 61s54.5 18 92.5 18s68.833 -6 92.5 -18s35.5 -32.333 35.5 -61v-15c0 -28 -12 -47.667 -36 -59s-54.667 -17 -92 -17z" />
    <glyph glyph-name="k" unicode="k" 
d="M270 245v-245h-200v800h200v-425h37l153 225h205l-192 -270l189 -330h-212l-143 245h-37z" />
    <glyph glyph-name="l" unicode="l" 
d="M80 0v140h190v520h-190v140h390v-660h180v-140h-570z" />
    <glyph glyph-name="m" unicode="m" 
d="M199 424l-0.000976562 -424h-162v600h160v-80h31c12.667 28 27.5 49.167 44.5 63.5s36.5 21.5 58.5 21.5c21.333 0 40.5 -7 57.5 -21s28.833 -35.333 35.5 -64h28c11.333 28 27 49.167 47 63.5s43.667 21.5 71 21.5c28.667 0 51.334 -12.333 68.001 -37
s25 -57.667 25 -99v-469h-162v434c0 14.667 -2 26 -6 34s-9.33301 12 -16 12c-8.66699 0 -17.5 -4.83301 -26.5 -14.5s-16.833 -23.5 -23.5 -41.5v-424h-158v434c0 14.667 -2 26 -6 34s-9.33301 12 -16 12c-8.66699 0 -17.5 -4.83301 -26.5 -14.5s-16.833 -23.5 -23.5 -41.5
z" />
    <glyph glyph-name="n" unicode="n" 
d="M60 0v600.001h200v-110h30c16 38 41 67.5 75 88.5s73.333 31.5 118 31.5c50 0 88.667 -15.833 116 -47.5s41 -76.167 41 -133.5v-429h-200v394c0 21.333 -5.16699 37.666 -15.5 48.999s-24.833 17 -43.5 17c-20.667 0 -42 -5.5 -64 -16.5s-41 -27.5 -57 -49.5v-394h-200z
" />
    <glyph glyph-name="o" unicode="o" 
d="M350 -10c-90.667 0 -161.666 19.999 -212.999 59.999s-77 95.667 -77 167v162c0 72 25.667 128.5 77 169.5s122.666 61.5 213.999 61.5c90.667 0 161.5 -21 212.5 -63s76.5 -99.667 76.5 -173v-162c0 -69.333 -25.667 -123.666 -77 -162.999s-122.333 -59 -213 -59z
M350.001 129.999c32 0 55 7.66699 69 23s21 40 21 74v143c0 35.333 -7 60.833 -21 76.5s-37 23.5 -69 23.5s-55 -7.83301 -69 -23.5s-21 -40.5 -21 -74.5v-140c0 -36 7 -62 21 -78s37 -24 69 -24z" />
    <glyph glyph-name="p" unicode="p" 
d="M354 133c28 0 49.332 6.66797 63.999 20.001s22 35.666 22 66.999v151c0 30.667 -6.5 53.167 -19.5 67.5s-29.833 21.5 -50.5 21.5c-18.667 0 -36.834 -4.16699 -54.501 -12.5s-36.167 -20.833 -55.5 -37.5v-251c16.667 -8.66699 31.834 -15.167 45.501 -19.5
s29.834 -6.5 48.501 -6.5zM391.999 -5.99902c-22.667 0 -45.666 1.99805 -68.999 5.99805s-44.333 9.66699 -63 17v-217h-200v800h200v-110h30c14.667 36.667 38.167 65.834 70.5 87.501s69.166 32.5 110.499 32.5c52 0 93.167 -18 123.5 -54s45.5 -84.667 45.5 -146v-191
c0 -69.333 -22.333 -124.166 -67 -164.499s-105 -60.5 -181 -60.5z" />
    <glyph glyph-name="q" unicode="q" 
d="M440 -200l0.000976562 310.001h-30c-12.667 -30.667 -33.5 -58.334 -62.5 -83.001s-68.5 -37 -118.5 -37c-55.333 0 -97.333 19.833 -126 59.5s-43 86.5 -43 140.5v191c0 72 25.667 127.5 77 166.5s124.666 58.5 219.999 58.5c46 0 97 -5 153 -15s99.333 -23.667 130 -41
v-750h-200zM330.001 140.001c18.667 0 36.833 4.16699 54.5 12.5s36.167 20.833 55.5 37.5v252c-12 6.66699 -25.5 12.5 -40.5 17.5s-32.833 7.5 -53.5 7.5c-28 0 -49.333 -6.5 -64 -19.5s-22 -35.5 -22 -67.5v-151c0 -30.667 6.5 -53.167 19.5 -67.5
s29.833 -21.5 50.5 -21.5z" />
    <glyph glyph-name="r" unicode="r" 
d="M80 0v600h200v-110h30c14.667 42 38 72.5 70 91.5s69.667 28.5 113 28.5c52 0 91.167 -14.833 117.5 -44.5s39.5 -71.5 39.5 -125.5v-112h-180v55c0 23.333 -5.16699 42 -15.5 56s-28.833 21 -55.5 21c-22.667 0 -44.667 -5.16699 -66 -15.5s-39 -28.5 -53 -54.5v-390
h-200z" />
    <glyph glyph-name="s" unicode="s" 
d="M351 -6c-52 0 -104.169 6.83105 -156.502 20.498s-97.166 32.5 -134.499 56.5l45 119c40 -24.667 82.833 -43.167 128.5 -55.5s86.5 -18.5 122.5 -18.5c29.333 0 50 4.5 62 13.5s18 22.5 18 40.5c0 20.667 -7 35.834 -21 45.501s-37.333 16.167 -70 19.5
c-85.333 8.66699 -150.833 25.334 -196.5 50.001s-68.5 66.334 -68.5 125.001c0 61.333 23.5 110 70.5 146s111.167 54 192.5 54c40.667 0 83.834 -5.83301 129.501 -17.5s86.5 -27.834 122.5 -48.501l-35 -112c-38 19.333 -74.667 33.5 -110 42.5s-68.333 13.5 -99 13.5
c-25.333 0 -43.666 -4.5 -54.999 -13.5s-17 -21.833 -17 -38.5c0 -21.333 10.167 -36 30.5 -44s51.833 -14.667 94.5 -20c79.333 -10 137.666 -28.833 174.999 -56.5s56 -68.5 56 -122.5c0 -61.333 -24.333 -109.833 -73 -145.5s-119 -53.5 -211 -53.5z" />
    <glyph glyph-name="t" unicode="t" 
d="M460 -11c-83.333 0 -147.5 19 -192.5 57s-67.5 92 -67.5 162v252h-140v140h140v200h200v-200h220v-140h-220v-224c0 -38 8.16699 -65.167 24.5 -81.5s38.5 -24.5 66.5 -24.5c15.333 0 33.333 1.16699 54 3.5s42 7.83301 64 16.5l20 -136
c-13.333 -6 -35.333 -11.667 -66 -17s-65 -8 -103 -8z" />
    <glyph glyph-name="u" unicode="u" 
d="M227 -10c-46 0 -85.334 15.166 -118.001 45.499s-49 75.5 -49 135.5v429h200v-374c0 -28 5.16699 -49.333 15.5 -64s24.833 -22 43.5 -22c20.667 0 41.334 7.83301 62.001 23.5s40.334 36.5 59.001 62.5v374h200v-600h-200v110h-30
c-18 -43.333 -44.833 -74.166 -80.5 -92.499s-69.834 -27.5 -102.501 -27.5z" />
    <glyph glyph-name="v" unicode="v" 
d="M482 0h-265l-173 600h188l122 -445l121 445h180z" />
    <glyph glyph-name="w" unicode="w" 
d="M428 0l-78 286l-74 -286h-174l-93 600h169l48 -390l65 280h114l71 -272l46 382h169l-93 -600h-170z" />
    <glyph glyph-name="x" unicode="x" 
d="M461 0l-120 177l-108 -177h-197l217 306l-200 294h199l105 -154l90 154h197l-196 -287l214 -313h-201z" />
    <glyph glyph-name="y" unicode="y" 
d="M195 -212c-22.667 0 -47.0029 0.999023 -73.0029 2.99902s-54.333 5 -85 9l10 140c28.667 -4.66699 54.167 -8.5 76.5 -11.5s41.833 -4.5 58.5 -4.5c38.667 0 66.834 7.33301 84.501 22s32.834 44 45.501 88l2 6h-127l-163 560h203l121 -444l132 444h195l-185 -584
c-26.667 -85.333 -61.667 -144.666 -105 -177.999s-106.666 -50 -189.999 -50z" />
    <glyph glyph-name="z" unicode="z" 
d="M630 0h-560v140l350 320h-350v140h560v-140l-350 -320h350v-140z" />
    <glyph glyph-name="braceleft" unicode="{" 
d="M600 -210c-179.333 -2 -307.498 9 -384.498 33s-115.5 68.333 -115.5 133c0 28.667 4.5 52.5 13.5 71.5s25.5 39.167 49.5 60.5c25.333 22.667 42.833 40 52.5 52s14.5 23 14.5 33c0 31.333 -16.5 53.5 -49.5 66.5s-93.167 20.5 -180.5 22.5v100
c87.333 2 147.5 9.33301 180.5 22s49.5 34.334 49.5 65.001c0 10 -4.5 20 -13.5 30s-25.833 23.333 -50.5 40c-24.667 17.333 -41.834 34.5 -51.501 51.5s-14.5 38.833 -14.5 65.5c0 67.333 38.5 113.666 115.5 138.999s205.167 37 384.5 35v-140
c-113.333 2 -191.666 -1.83301 -234.999 -11.5s-65 -27.834 -65 -54.501c0 -14 4.66699 -26.667 14 -38s26.333 -25 51 -41c24.667 -15.333 41.667 -29.666 51 -42.999s14 -30.666 14 -51.999c0 -40 -21 -68.833 -63 -86.5s-118.333 -27.834 -229 -30.501v-5
c110.667 -6.66699 187 -19 229 -37s63 -45.333 63 -82c0 -23.333 -4.5 -41.833 -13.5 -55.5s-25.833 -28.5 -50.5 -44.5s-41.834 -30.5 -51.501 -43.5s-14.5 -28.5 -14.5 -46.5c0 -28.667 21.667 -48.167 65 -58.5s121.666 -14.5 234.999 -12.5v-138z" />
    <glyph glyph-name="bar" unicode="|" 
d="M270 -200v1000h160v-1000h-160z" />
    <glyph glyph-name="braceright" unicode="}" 
d="M600 -44c0 -64.667 -38.498 -109 -115.498 -133s-205.167 -35 -384.5 -33v138c113.333 -2 191.666 2.16699 234.999 12.5s65 29.833 65 58.5c0 18 -4.83301 33.5 -14.5 46.5s-26.834 27.5 -51.501 43.5s-41.5 30.833 -50.5 44.5s-13.5 32.167 -13.5 55.5
c0 36.667 21 64 63 82s118.333 30.333 229 37v5c-110.667 2.66699 -187 12.834 -229 30.501s-63 46.5 -63 86.5c0 21.333 4.66699 38.666 14 51.999s26.333 27.666 51 42.999c24.667 16 41.667 29.667 51 41s14 24 14 38c0 26.667 -21.667 44.834 -65 54.501
s-121.666 13.5 -234.999 11.5v140c179.333 2 307.5 -9.66699 384.5 -35s115.5 -71.666 115.5 -138.999c0 -26.667 -4.83301 -48.5 -14.5 -65.5s-26.834 -34.167 -51.501 -51.5c-24.667 -16.667 -41.5 -30 -50.5 -40s-13.5 -20 -13.5 -30
c0 -30.667 16.5 -52.334 49.5 -65.001s93.167 -20 180.5 -22v-100c-87.333 -2 -147.5 -9.5 -180.5 -22.5s-49.5 -35.167 -49.5 -66.5c0 -10 4.83301 -21 14.5 -33s27.167 -29.333 52.5 -52c24 -21.333 40.5 -41.5 49.5 -60.5s13.5 -42.833 13.5 -71.5z" />
    <glyph glyph-name="asciitilde" unicode="~" 
d="M481 200c-32.667 0 -62.168 10 -88.501 30s-52.5 52 -78.5 96l-51 85.5c-15.333 26.333 -31.666 39.5 -48.999 39.5c-14.667 0 -25.667 -10.5 -33 -31.5s-11 -56.5 -11 -106.5v-103h-120v109c0 90.667 14.333 160.167 43 208.5s67.334 72.5 116.001 72.5
c32.667 0 62.167 -9.83301 88.5 -29.5s52.833 -51.5 79.5 -95.5l51.5 -86.5c15.667 -26.333 32.167 -39.5 49.5 -39.5c14 0 24.5 7.5 31.5 22.5s10.5 40.5 10.5 76.5v122h120v-129c0 -77.333 -14.333 -136.833 -43 -178.5s-67.334 -62.5 -116.001 -62.5z" />
    <glyph glyph-name="exclamdown" unicode="&#xa1;" 
d="M350 810c48 0 84.5 -6.83301 109.5 -20.5s37.5 -34.834 37.5 -63.501v-28c0 -29.333 -12.5 -51 -37.5 -65s-61.5 -21 -109.5 -21s-84.333 7 -109 21s-37 35.667 -37 65v28c0 28.667 12.5 49.834 37.5 63.501s61.167 20.5 108.5 20.5zM446 500l30 -500h-240l30 500h180z
" />
    <glyph glyph-name="cent" unicode="&#xa2;" 
d="M240 337c0 -34 4.66699 -60 14 -78s26.333 -29.667 51 -35v351c-24.667 -4.66699 -41.667 -16 -51 -34s-14 -44 -14 -78v-126zM290 -50l0.000976562 143.001c-77.333 8.66699 -136.666 33 -177.999 73s-62 93.667 -62 161v150c0 68.667 21.667 122.167 65 160.5
s101.666 61.5 174.999 69.5v143h120v-143c73.333 -8 128 -31.167 164 -69.5s58.333 -89.5 67 -153.5l-183 -16c-2.66699 32.667 -8.66699 57.167 -18 73.5s-24.333 27.166 -45 32.499v-351c23.333 4.66699 39 14.667 47 30s13.333 38.333 16 69l183 -16
c-4.66699 -62 -23.334 -111.5 -56.001 -148.5s-91 -58.833 -175 -65.5v-142h-120z" />
    <glyph glyph-name="sterling" unicode="&#xa3;" 
d="M680 277c-5.33301 -93.333 -26.8311 -164.496 -64.498 -213.496s-89.5 -73.5 -155.5 -73.5c-32 0 -62.833 5.83301 -92.5 17.5l-85.5 34.5c-22 8.66699 -41.5 15.5 -58.5 20.5s-34.833 1.16699 -53.5 -11.5l-92 -60l-81 120l106 64c22.667 14 43 33.333 61 58
s27 49.334 27 74.001c0 8.66699 -1 17 -3 25s-4.33301 15.667 -7 23h-151v100h92c-8.66699 14.667 -16.334 30.5 -23.001 47.5s-10 35.167 -10 54.5c0 75.333 24.667 136.333 74 183s118.666 70 207.999 70c98.667 0 168.667 -24 210 -72s64.333 -117.667 69 -209l-180 -10
c-3.33301 42 -10.833 74.333 -22.5 97s-37.5 34 -77.5 34c-35.333 0 -60.833 -9 -76.5 -27s-23.5 -40.667 -23.5 -68c0 -16.667 3.66699 -33.334 11 -50.001s16.333 -33.334 27 -50.001h132v-100h-82c1.33301 -6.66699 2.5 -13.334 3.5 -20.001s1.5 -13.334 1.5 -20.001
c0 -26.667 -10 -49.334 -30 -68.001s-50 -35.334 -90 -50.001l19 -39c20.667 10.667 37.5 17.834 50.5 21.501s25.167 4.16699 36.5 1.5c12.667 -2.66699 24.5 -7 35.5 -13s22.833 -9 35.5 -9c30.667 0 50.667 9.83301 60 29.5s16 52.5 20 98.5z" />
    <glyph glyph-name="currency" unicode="&#xa4;" 
d="M350 240c23.333 0 40.833 6 52.5 18s17.5 31.667 17.5 59v162c0 27.333 -5.83301 47.666 -17.5 60.999s-29.167 20 -52.5 20s-40.833 -6.66699 -52.5 -20s-17.5 -33.666 -17.5 -60.999v-162c0 -27.333 5.83301 -47 17.5 -59s29.167 -18 52.5 -18zM350 90
c-32.667 0 -62.6689 3.33301 -90.002 10s-51.666 17 -72.999 31l-93 -95l-83 83l104 105c-4.66699 13.333 -8.33398 27.833 -11.001 43.5s-4 32.167 -4 49.5v162c0 18 1.33301 35 4 51s6.66699 31 12 45l-105 106l83 83l94 -96c21.333 14 45.666 24.5 72.999 31.5
s57.333 10.5 90 10.5s62.834 -3.5 90.501 -10.5s51.834 -17.833 72.501 -32.5l92 92l83 -83l-104 -104c4.66699 -13.333 8.33398 -27.833 11.001 -43.5s4 -32.167 4 -49.5v-162c0 -14.667 -1 -28.5 -3 -41.5s-4.33301 -25.5 -7 -37.5l99 -114l-83 -83l-92 92
c-20.667 -14.667 -45 -25.5 -73 -32.5s-58.333 -10.5 -91 -10.5z" />
    <glyph glyph-name="yen" unicode="&#xa5;" 
d="M650 100h-200v-100h-200v100h-200v100h200v100h-200v100h155l-181 400h199l127 -326l127 326h198l-180 -400h155v-100h-200v-100h200v-100z" />
    <glyph glyph-name="brokenbar" unicode="&#xa6;" 
d="M270 400v400h160v-400h-160zM270 -200v400h160v-400h-160z" />
    <glyph glyph-name="section" unicode="&#xa7;" 
d="M340 232l17.998 -3.99805l18 -4c20.667 0.666992 39 5.5 55 14.5s24 23.833 24 44.5c0 27.333 -8.66699 46.5 -26 57.5s-38.666 19.167 -63.999 24.5l-18 4l-18 4c-20.667 -0.666992 -39 -5.33398 -55 -14.001s-24 -23.334 -24 -44.001c0 -28 8.83301 -47.5 26.5 -58.5
s38.834 -19.167 63.501 -24.5zM367.998 -206.998c-56 0 -110.668 9.50195 -164.001 28.502s-97.666 40.833 -132.999 65.5l50 141c39.333 -24.667 79 -45 119 -61s84.333 -24 133 -24c24 0 44.833 4.16699 62.5 12.5s26.5 22.166 26.5 41.499c0 26 -13.667 43.833 -41 53.5
s-58.333 18.167 -93 25.5c-88.667 17.333 -157.167 41.333 -205.5 72s-72.5 79 -72.5 145c0 33.333 11 61 33 83s50.667 39.333 86 52c-38 20 -67.333 44.667 -88 74s-31 65.333 -31 108c0 59.333 26 106.5 78 141.5s121.667 52.5 209 52.5c56 0 109.5 -9.66699 160.5 -29
s96.5 -41 136.5 -65l-60 -131c-40 21.333 -78.667 39.166 -116 53.499s-79.333 21.5 -126 21.5c-30.667 0 -53 -5.5 -67 -16.5s-21 -26.5 -21 -46.5c0 -22.667 16.167 -38.667 48.5 -48s77.5 -20.333 135.5 -33c65.333 -12.667 119.5 -33.667 162.5 -63s64.5 -77 64.5 -143
c0 -34 -8.5 -63.5 -25.5 -88.5s-39.833 -44.833 -68.5 -59.5c30.667 -19.333 54 -42.833 70 -70.5s24 -60.5 24 -98.5c0 -59.333 -26 -106.5 -78 -141.5s-121.667 -52.5 -209 -52.5z" />
    <glyph glyph-name="dieresis" unicode="&#xa8;" 
d="M220 690c-28.667 0 -52.167 5.66699 -70.5 17s-27.5 31 -27.5 59v15c0 28.667 9.16699 49 27.5 61s41.833 18 70.5 18c29.333 0 53 -6 71 -18s27 -32.333 27 -61v-15c0 -28 -9.16699 -47.667 -27.5 -59s-41.833 -17 -70.5 -17zM480 690
c-28.667 0 -52.167 5.66699 -70.5 17s-27.5 31 -27.5 59v15c0 28.667 9.16699 49 27.5 61s41.833 18 70.5 18c29.333 0 53 -6 71 -18s27 -32.333 27 -61v-15c0 -28 -9.16699 -47.667 -27.5 -59s-41.833 -17 -70.5 -17z" />
    <glyph glyph-name="copyright" unicode="&#xa9;" 
d="M350 -110c-109.333 0 -191.668 30.667 -247.001 92s-83 153 -83 275v222c0 123.333 27.667 216 83 278s138 93 248 93c109.333 0 191.5 -31 246.5 -93s82.5 -154.667 82.5 -278v-222c0 -122 -27.667 -213.667 -83 -275s-137.666 -92 -246.999 -92zM349.998 -40
c92.667 0 159.167 24.667 199.5 74s60.5 130.333 60.5 243v182c0 114 -20.167 196 -60.5 246s-106.833 75 -199.5 75s-159.167 -25 -199.5 -75s-60.5 -132 -60.5 -246v-182c0 -112.667 20.167 -193.667 60.5 -243s106.833 -74 199.5 -74zM359.998 70
c-69.333 0 -119.002 17.667 -149.002 53s-45 86.666 -45 153.999v190c0 66 15.167 116.333 45.5 151s79.5 52 147.5 52c58.667 0 101.834 -17.667 129.501 -53s43.834 -89.666 48.501 -162.999l-133 -6c-2.66699 44.667 -7 74.5 -13 89.5s-17 22.5 -33 22.5
c-18 0 -31.167 -8.16699 -39.5 -24.5s-12.5 -43.833 -12.5 -82.5v-166c0 -38 4.33301 -65.333 13 -82s22.334 -25 41.001 -25c14.667 0 25 6.5 31 19.5s10.333 40.5 13 82.5l133 -6c-4.66699 -71.333 -20.834 -123.5 -48.501 -156.5s-70.5 -49.5 -128.5 -49.5z" />
    <glyph glyph-name="ordfeminine" unicode="&#xaa;" 
d="M288 385c20.667 0 41 2.16699 61 6.5s38.333 10.5 55 18.5v83h-119c-20 0 -34.833 -3.83301 -44.5 -11.5s-14.5 -23.167 -14.5 -46.5c0 -16.667 4.83301 -29.167 14.5 -37.5s25.5 -12.5 47.5 -12.5zM251 283c-43.333 0 -85.332 11.1699 -125.999 33.5029
s-61 58.166 -61 107.499c0 52 18.5 90.667 55.5 116s87.833 38 152.5 38h132v41c0 30.667 -7 51.167 -21 61.5s-34.333 15.5 -61 15.5c-24.667 0 -43.834 -4.83301 -57.501 -14.5s-24.834 -28.167 -33.501 -55.5l-154 22c12.667 59.333 38.334 101.166 77.001 125.499
s96.667 36.5 174 36.5c78.667 0 139.334 -14 182.001 -42s64 -77.333 64 -148v-150c0 -30.667 8.83301 -49.334 26.5 -56.001s42.834 -8 75.501 -4v-114c-46 -10.667 -86.5 -12.167 -121.5 -4.5s-61.5 30.5 -79.5 68.5h-25c-16.667 -22 -43.334 -40.333 -80.001 -55
s-76.334 -22 -119.001 -22z" />
    <glyph glyph-name="guillemotleft" unicode="&#xab;" 
d="M675 20l-300 230v200l300 230v-175l-202 -155l202 -155v-175zM325 20l-300 230v200l300 230v-175l-202 -155l202 -155v-175z" />
    <glyph glyph-name="logicalnot" unicode="&#xac;" 
d="M480 0v270h-420v160h580v-430h-160z" />
    <glyph glyph-name="registered" unicode="&#xae;" 
d="M350 118c-99.333 0 -174.168 23.667 -224.501 71s-75.5 118 -75.5 212v173c0 95.333 25.167 166.833 75.5 214.5s125.5 71.5 225.5 71.5c99.333 0 174 -23.833 224 -71.5s75 -119.167 75 -214.5v-173c0 -94 -25.167 -164.667 -75.5 -212s-125.166 -71 -224.499 -71z
M349.998 180c85.333 0 146.5 17.167 183.5 51.5s55.5 90.833 55.5 169.5v173c0 80 -18.5 137.5 -55.5 172.5s-98.167 52.5 -183.5 52.5s-146.5 -17.5 -183.5 -52.5s-55.5 -92.5 -55.5 -172.5v-173c0 -78.667 18.5 -135.167 55.5 -169.5s98.167 -51.5 183.5 -51.5z
M320.998 506h34c11.333 0 22.166 2.33301 32.499 7s15.5 14.667 15.5 30v31c0 18.667 -5.16699 31.167 -15.5 37.5s-21.166 9.5 -32.499 9.5h-34v-115zM320.998 283h-133.001v418h183c54.667 0 95.834 -10.667 123.501 -32s41.5 -53 41.5 -95v-31
c0 -22.667 -6.16699 -42 -18.5 -58s-30.833 -28 -55.5 -36l101 -166h-143l-80 153h-19v-153z" />
    <glyph glyph-name="macron" unicode="&#x2c9;" 
d="M125 725v150h450v-150h-450z" />
    <glyph glyph-name="macron" unicode="&#xaf;" 
d="M125 725v150h450v-150h-450z" />
    <glyph glyph-name="degree" unicode="&#xb0;" 
d="M350 316c-68.667 0 -124.167 14.833 -166.5 44.5s-63.5 75.5 -63.5 137.5v123c0 62 21.167 108.333 63.5 139s97.833 46 166.5 46c69.333 0 125 -15.333 167 -46s63 -77 63 -139v-123c0 -62 -21.167 -107.833 -63.5 -137.5s-97.833 -44.5 -166.5 -44.5zM350 443
c24.667 0 43.334 5.83301 56.001 17.5s19 30.834 19 57.501v83c0 26.667 -6.33301 46.334 -19 59.001s-31.334 19 -56.001 19c-25.333 0 -44.166 -6.33301 -56.499 -19s-18.5 -32.334 -18.5 -59.001v-83c0 -26.667 6.16699 -45.834 18.5 -57.501s31.166 -17.5 56.499 -17.5z
" />
    <glyph glyph-name="plusminus" unicode="&#xb1;" 
d="M270 130v240h-210v160h210v240h160v-240h210v-160h-210v-240h-160zM60 0v160h580v-160h-580z" />
    <glyph glyph-name="two.sups" unicode="&#xb2;" 
d="M119 304l-0.000976562 118.999c0 34.667 9 64.5 27 89.5s48 41.833 90 50.5l122 25c23.333 4.66699 40 11.167 50 19.5s15 22.833 15 43.5v4c0 22.667 -7.66699 36.834 -23 42.501s-32.333 8.5 -51 8.5s-35 -3.16699 -49 -9.5s-22 -23.833 -24 -52.5l-151 7
c2.66699 51.333 21.5 90 56.5 116s90.833 39 167.5 39s133.334 -13 170.001 -39s55 -64.667 55 -116v-18c0 -38 -10.667 -68.833 -32 -92.5s-49 -38.834 -83 -45.501l-122 -25c-26.667 -5.33301 -44.5 -11.166 -53.5 -17.499s-13.5 -15.833 -13.5 -28.5v-11h310v-109h-461z
" />
    <glyph glyph-name="three.sups" unicode="&#xb3;" 
d="M355 298c-76.667 0 -135.503 12.833 -176.503 38.5s-62.833 64.167 -65.5 115.5l151 6c2.66699 -21.333 10.834 -35.333 24.501 -42s35.5 -10 65.5 -10c26.667 0 45.834 2.83301 57.501 8.5s17.5 16.5 17.5 32.5v15c0 18 -6.66699 30.167 -20 36.5s-33.333 9.5 -60 9.5
h-112v106h112c23.333 0 40.5 2.66699 51.5 8s16.5 15.666 16.5 30.999v6c0 16.667 -5.66699 27.334 -17 32.001s-30.333 7 -57 7s-44 -2.5 -52 -7.5s-13 -15.167 -15 -30.5l-151 6c3.33301 54 24.5 90.833 63.5 110.5s90.5 29.5 154.5 29.5c65.333 0 119 -8.33301 161 -25
s63 -49.667 63 -99v-8c0 -30 -9 -53.333 -27 -70s-38.333 -27 -61 -31v-18c21.333 -2 43.5 -11.833 66.5 -29.5s34.5 -43.5 34.5 -77.5v-8c0 -57.333 -21.167 -95.333 -63.5 -114s-96.166 -28 -161.499 -28z" />
    <glyph glyph-name="acute" unicode="&#xb4;" 
d="M216 700l106 200h250l-225 -200h-131z" />
    <glyph glyph-name="mu1" unicode="&#xb5;" 
d="M270 20l10 -219.999h-220l10 220v580h200v-374c0 -28.667 5.66699 -49.334 17 -62.001s25 -19 41 -19c17.333 0 32.166 3.83301 44.499 11.5s24.833 18.834 37.5 33.501v410h200v-390c0 -30.667 4 -50.834 12 -60.501s24 -13.167 48 -10.5v-134
c-46 -10.667 -82.167 -10.5 -108.5 0.5s-48.833 35.833 -67.5 74.5h-30c-8.66699 -24 -21.5 -45 -38.5 -63s-40.833 -27 -71.5 -27c-20 0 -36.667 3.33301 -50 10s-24.666 16.667 -33.999 30v-10z" />
    <glyph glyph-name="paragraph" unicode="&#xb6;" 
d="M490 340h-80v-540h-150v541c-54 4 -100.833 21.167 -140.5 51.5s-59.5 78.5 -59.5 144.5v52c0 73.333 23.167 126.833 69.5 160.5s99.5 50.5 159.5 50.5h351v-1000h-150v540z" />
    <glyph glyph-name="periodcentered" unicode="&#x2219;" 
d="M351 245c-45.333 0 -81.833 9.83301 -109.5 29.5s-41.5 46.834 -41.5 81.501v87c0 35.333 13.833 63 41.5 83s64.167 30 109.5 30c44.667 0 80.667 -10 108 -30s41 -47.667 41 -83v-87c0 -34.667 -14 -61.834 -42 -81.501s-63.667 -29.5 -107 -29.5z" />
    <glyph glyph-name="periodcentered" unicode="&#xb7;" 
d="M351 245c-45.333 0 -81.833 9.83301 -109.5 29.5s-41.5 46.834 -41.5 81.501v87c0 35.333 13.833 63 41.5 83s64.167 30 109.5 30c44.667 0 80.667 -10 108 -30s41 -47.667 41 -83v-87c0 -34.667 -14 -61.834 -42 -81.501s-63.667 -29.5 -107 -29.5z" />
    <glyph glyph-name="cedilla" unicode="&#xb8;" 
d="M320 0l20.001 41.999c57.333 -5.33301 104 -17.166 140 -35.499s54 -49.833 54 -94.5c0 -50 -22.333 -85.5 -67 -106.5s-94.334 -31.5 -149.001 -31.5c-64 0 -116.333 10.5 -157 31.5s-62.667 55.833 -66 104.5l168 10c1.33301 -12.667 5.5 -21.5 12.5 -26.5
s18.5 -7.5 34.5 -7.5c18 0 31.5 3.5 40.5 10.5s13.5 21.833 13.5 44.5c0 16.667 -3 29.5 -9 38.5s-17.667 15.833 -35 20.5z" />
    <glyph glyph-name="one.sups" unicode="&#xb9;" 
d="M169 304l0.000976562 109h136v270h-21c-5.33301 -28.667 -19.833 -51.167 -43.5 -67.5s-49.834 -25.833 -78.501 -28.5l-6 105c28 4.66699 57 15.667 87 33s51.333 42.333 64 75h149v-387h124v-109h-411z" />
    <glyph glyph-name="ordmasculine" unicode="&#xba;" 
d="M350 283c-71.333 0 -131.667 15.667 -181 47s-74 80 -74 146v138c0 66 24.667 115.167 74 147.5s110 48.5 182 48.5c71.333 0 131.5 -16.167 180.5 -48.5s73.5 -81.5 73.5 -147.5v-138c0 -66 -24.5 -114.667 -73.5 -146s-109.5 -47 -181.5 -47zM349.999 402
c32 0 54.167 6.83301 66.5 20.5s18.5 35.834 18.5 66.501v121c0 26 -6.16699 46 -18.5 60s-34.5 21 -66.5 21s-54.167 -7.16699 -66.5 -21.5s-18.5 -34.833 -18.5 -61.5v-119c0 -30.667 6.16699 -52.834 18.5 -66.501s34.5 -20.5 66.5 -20.5z" />
    <glyph glyph-name="guillemotright" unicode="&#xbb;" 
d="M25 20v175l202 155l-202 155v175l300 -230v-200zM375 20v175l202 155l-202 155v175l300 -230v-200z" />
    <glyph glyph-name="onequarter" unicode="&#xbc;" 
d="M169 412l0.00195312 89h136v190h-21c-2.66699 -14 -7.83398 -26.667 -15.501 -38s-16.834 -21.333 -27.501 -30c-11.333 -8 -23.666 -14.333 -36.999 -19s-27.333 -7.66699 -42 -9l-6 105c14.667 2.66699 29.5 6.66699 44.5 12s29.5 12.666 43.5 21.999
c13.333 8.66699 25.666 19.334 36.999 32.001s20 26.667 26 42h149v-307h124v-89h-411zM0.00195312 244v130l318 -20v-90zM396.002 264v90l304 20v-130zM611.002 -113h-93v-97h-151v97h-254v100l226 229h179v-229h93v-100zM228.002 -13h139v138z" />
    <glyph glyph-name="onehalf" unicode="&#xbd;" 
d="M169 412l0.00195312 89h136v190h-21c-2.66699 -14 -7.83398 -26.667 -15.501 -38s-16.834 -21.333 -27.501 -30c-11.333 -8 -23.666 -14.333 -36.999 -19s-27.333 -7.66699 -42 -9l-6 105c14.667 2.66699 29.5 6.66699 44.5 12s29.5 12.666 43.5 21.999
c13.333 8.66699 25.666 19.334 36.999 32.001s20 26.667 26 42h149v-307h124v-89h-411zM0.00195312 244v130l318 -20v-90zM396.002 264v90l304 20v-130zM119.002 -210l0.00195312 99.0039c0 16.667 2.16699 32 6.5 46s11.166 26.333 20.499 37
c9.33301 11.333 21.5 21 36.5 29s32.833 14 53.5 18l122 25c14 2.66699 24.667 5.16699 32 7.5s13.333 4.83301 18 7.5c5.33301 2.66699 9.16602 6.33398 11.499 11.001s3.5 10.334 3.5 17.001v4c0 6.66699 -2 12.167 -6 16.5s-9.33301 7.5 -16 9.5
c-7.33301 2 -15.166 3.33301 -23.499 4s-17.833 1 -28.5 1s-20 -0.5 -28 -1.5s-15.333 -2.83301 -22 -5.5s-12 -6.83398 -16 -12.501s-6.33301 -13.167 -7 -22.5l-151 7c1.33301 21.333 6.5 39.666 15.5 54.999s22.5 28.333 40.5 39c18 10 41 17.667 69 23s61 8 99 8
c38.667 0 72 -2.66699 100 -8s51.333 -13 70 -23c18.667 -10.667 32.5 -23.834 41.5 -39.501s13.5 -33.834 13.5 -54.501v-18c0 -14.667 -2.66699 -27.834 -8 -39.501s-13.333 -22.167 -24 -31.5c-10 -8.66699 -22 -16.167 -36 -22.5s-29.667 -11.166 -47 -14.499l-122 -25
c-12 -2.66699 -22 -5.16699 -30 -7.5s-14.333 -4.83301 -19 -7.5c-5.33301 -2.66699 -9.33301 -5.83398 -12 -9.50098s-4.33398 -7.83398 -5.00098 -12.501h309v-109h-461z" />
    <glyph glyph-name="threequarters" unicode="&#xbe;" 
d="M355 404c-39.333 0 -73.8301 2.82812 -103.497 8.49512s-54.5 13.834 -74.5 24.501c-20 11.333 -35.333 25.333 -46 42s-16.667 36.334 -18 59.001l151 6c1.33301 -10.667 4 -19.334 8 -26.001s9.33301 -12 16 -16c7.33301 -4 16.166 -6.66699 26.499 -8s23.5 -2 39.5 -2
c14 0 25.667 0.5 35 1.5s16.666 2.83301 21.999 5.5c6 2 10.5 5 13.5 9s4.5 9 4.5 15v15c0 6.66699 -1.66699 12.334 -5 17.001s-8.33301 8.33398 -15 11.001s-14.834 4.66699 -24.501 6s-21.5 2 -35.5 2h-112v86h112c12 0 22.333 0.5 31 1.5s15.667 2.5 21 4.5
s9.33301 4.83301 12 8.5s4 8.5 4 14.5v6c0 6 -1.33301 11 -4 15s-7 7 -13 9s-13.5 3.33301 -22.5 4s-20.5 1 -34.5 1s-25 -0.333008 -33 -1s-14.333 -2 -19 -4s-8.16699 -4.83301 -10.5 -8.5s-3.83301 -8.5 -4.5 -14.5l-151 6c1.33301 18.667 6.83301 34.834 16.5 48.501
s23.5 25.167 41.5 34.5c18 8.66699 40.333 15.334 67 20.001s57.667 7 93 7c38 0 71 -2 99 -6s51.333 -9.66699 70 -17c18 -8 31.667 -17.833 41 -29.5s14 -25.5 14 -41.5v-8c0 -11.333 -2.33301 -21.666 -7 -30.999s-11 -17.333 -19 -24
c-8.66699 -6.66699 -18.167 -12.167 -28.5 -16.5s-21.5 -7.5 -33.5 -9.5v-18c11.333 -1.33301 22.833 -4 34.5 -8s22.5 -9.66699 32.5 -17c10.667 -6.66699 19 -15.334 25 -26.001s9 -22.667 9 -36v-8c0 -19.333 -4.66699 -36 -14 -50s-23 -25.333 -41 -34
c-18.667 -9.33301 -42.167 -16.333 -70.5 -21s-61.5 -7 -99.5 -7zM0.00292969 243.995v130l318 -20v-90zM396.003 263.995v90l304 20v-130zM611.003 -113.005h-93v-97h-151v97h-254v100l226 229h179v-229h93v-100zM228.003 -13.0049h139v138z" />
    <glyph glyph-name="questiondown" unicode="&#xbf;" 
d="M399 810c48 0 84.5 -6.83301 109.5 -20.5s37.5 -34.834 37.5 -63.501v-28c0 -29.333 -12.5 -51 -37.5 -65s-61.5 -21 -109.5 -21s-84.333 7 -109 21s-37 35.667 -37 65v28c0 28.667 12.5 49.834 37.5 63.501s61.167 20.5 108.5 20.5zM480 537l19.998 -131.001
c-96.667 -15.333 -160.834 -35.5 -192.501 -60.5s-47.5 -57.5 -47.5 -97.5v-20c0 -32.667 6.33301 -57.167 19 -73.5s36.334 -24.5 71.001 -24.5c36.667 0 61.334 8.83301 74.001 26.5s21.334 49.167 26.001 94.5l200 -10c-4.66699 -85.333 -31.334 -148.5 -80.001 -189.5
s-121.667 -61.5 -219 -61.5c-93.333 0 -165.166 22.333 -215.499 67s-75.5 99.334 -75.5 164.001v31c0 81.333 33 143.833 99 187.5s173 76.167 321 97.5z" />
    <glyph glyph-name="Agrave" unicode="&#xc0;" 
d="M428 330l-73 326l-82 -326h155zM503 0l-41 180h-227l-45 -180h-180l218 800h245l218 -800h-188zM331 900l-225 200h250l106 -200h-131z" />
    <glyph glyph-name="Aacute" unicode="&#xc1;" 
d="M428 330l-73 326l-82 -326h155zM503 0l-41 180h-227l-45 -180h-180l218 800h245l218 -800h-188zM216 900l106 200h250l-225 -200h-131z" />
    <glyph glyph-name="Acircumflex" unicode="&#xc2;" 
d="M428 330l-73 326l-82 -326h155zM503 0l-41 180h-227l-45 -180h-180l218 800h245l218 -800h-188zM151 884l-62 84l184 159h152l186 -159l-61 -83l-201 105z" />
    <glyph glyph-name="Atilde" unicode="&#xc3;" 
d="M428 330l-73 326l-82 -326h155zM503 0l-41 180h-227l-45 -180h-180l218 800h245l218 -800h-188zM446 910c-32.667 0 -57.665 5.00098 -74.998 15.001s-31.333 20.667 -42 32l-30 32.5c-9.33301 9.66699 -20.333 14.5 -33 14.5c-10.667 0 -20.334 -4.83301 -29.001 -14.5
s-12.667 -29.834 -12 -60.501v-9h-127v15c0 55.333 14 101.666 42 138.999s66.667 56 116 56c32 0 56.667 -5 74 -15s31.666 -20.667 42.999 -32l31 -33c9.33301 -10 19.666 -15 30.999 -15c10.667 0 20.334 4.83301 29.001 14.5s12.667 29.834 12 60.501v9h127v-15
c0 -54.667 -14 -100.667 -42 -138s-66.333 -56 -115 -56z" />
    <glyph glyph-name="Adieresis" unicode="&#xc4;" 
d="M428 330l-73 326l-82 -326h155zM503 0l-41 180h-227l-45 -180h-180l218 800h245l218 -800h-188zM220 890c-28.667 0 -52.167 5.66699 -70.5 17s-27.5 31 -27.5 59v15c0 28.667 9.16699 49 27.5 61s41.833 18 70.5 18c29.333 0 53 -6 71 -18s27 -32.333 27 -61v-15
c0 -28 -9.16699 -47.667 -27.5 -59s-41.833 -17 -70.5 -17zM480 890c-28.667 0 -52.167 5.66699 -70.5 17s-27.5 31 -27.5 59v15c0 28.667 9.16699 49 27.5 61s41.833 18 70.5 18c29.333 0 53 -6 71 -18s27 -32.333 27 -61v-15c0 -28 -9.16699 -47.667 -27.5 -59
s-41.833 -17 -70.5 -17z" />
    <glyph glyph-name="Aring" unicode="&#xc5;" 
d="M428 330l-73 326l-82 -326h155zM503 0l-41 180h-227l-45 -180h-180l218 800h245l218 -800h-188zM350 875c-62.667 0 -113.332 12.667 -151.999 38s-58 64.333 -58 117v32c0 53.333 19.333 93 58 119s89.334 39 152.001 39c63.333 0 114.166 -13 152.499 -39
s57.5 -65.667 57.5 -119v-32c0 -52.667 -19.333 -91.667 -58 -117s-89.334 -38 -152.001 -38zM350.002 966c23.333 0 41.166 4.83301 53.499 14.5s18.5 26.167 18.5 49.5v32c0 22.667 -6.16699 39.5 -18.5 50.5s-30.166 16.5 -53.499 16.5c-24 0 -42 -5.5 -54 -16.5
s-18 -27.833 -18 -50.5v-32c0 -23.333 6 -39.833 18 -49.5s30 -14.5 54 -14.5z" />
    <glyph glyph-name="AE" unicode="&#xc6;" 
d="M309 660l-82 -340h103v340h-21zM330 180h-137l-43 -180h-140l203 800h467v-140h-180v-160h160v-140h-160v-220h180v-140h-350v180z" />
    <glyph glyph-name="Ccedilla" unicode="&#xc7;" 
d="M360 -10c-103.333 0 -180.833 21.499 -232.5 64.499s-77.5 107.167 -77.5 192.5v302c0 87.333 26 152.666 78 195.999s129.667 65 233 65c105.333 0 182 -22.667 230 -68s74.333 -119.666 79 -222.999l-200 -10c-4 62 -13.167 102.667 -27.5 122s-41.833 29 -82.5 29
c-39.333 0 -67.5 -10.167 -84.5 -30.5s-25.5 -54.166 -25.5 -101.499v-261c0 -45.333 8.5 -77.833 25.5 -97.5s45.167 -29.5 84.5 -29.5c40 0 67.167 9.5 81.5 28.5s23.833 58.5 28.5 118.5l200 -10c-4.66699 -102.667 -31 -176.167 -79 -220.5s-125 -66.5 -231 -66.5z
M335 -0.000976562l20.001 41.999c57.333 -5.33301 104 -17.166 140 -35.499s54 -49.833 54 -94.5c0 -50 -22.333 -85.5 -67 -106.5s-94.334 -31.5 -149.001 -31.5c-64 0 -116.333 10.5 -157 31.5s-62.667 55.833 -66 104.5l168 10c1.33301 -12.667 5.5 -21.5 12.5 -26.5
s18.5 -7.5 34.5 -7.5c18 0 31.5 3.5 40.5 10.5s13.5 21.833 13.5 44.5c0 16.667 -3 29.5 -9 38.5s-17.667 15.833 -35 20.5z" />
    <glyph glyph-name="Egrave" unicode="&#xc8;" 
d="M361 900l-225 200h250l106 -200h-131zM50 0v800h600v-150h-400v-150h350v-150h-350v-200h400v-150h-600z" />
    <glyph glyph-name="Eacute" unicode="&#xc9;" 
d="M246 897l106 200h250l-225 -200h-131zM50 0v800h600v-150h-400v-150h350v-150h-350v-200h400v-150h-600z" />
    <glyph glyph-name="Ecircumflex" unicode="&#xca;" 
d="M161 884l-62 84l184 159h152l186 -159l-61 -83l-201 105zM50 0v800h600v-150h-400v-150h350v-150h-350v-200h400v-150h-600z" />
    <glyph glyph-name="Edieresis" unicode="&#xcb;" 
d="M50 0v800h600v-150h-400v-150h350v-150h-350v-200h400v-150h-600zM237 890c-28.667 0 -52.167 5.66699 -70.5 17s-27.5 31 -27.5 59v15c0 28.667 9.16699 49 27.5 61s41.833 18 70.5 18c29.333 0 53 -6 71 -18s27 -32.333 27 -61v-15c0 -28 -9.16699 -47.667 -27.5 -59
s-41.833 -17 -70.5 -17zM497 890c-28.667 0 -52.167 5.66699 -70.5 17s-27.5 31 -27.5 59v15c0 28.667 9.16699 49 27.5 61s41.833 18 70.5 18c29.333 0 53 -6 71 -18s27 -32.333 27 -61v-15c0 -28 -9.16699 -47.667 -27.5 -59s-41.833 -17 -70.5 -17z" />
    <glyph glyph-name="Igrave" unicode="&#xcc;" 
d="M50 0v150h200v500h-200v150h600v-150h-200v-500h200v-150h-600zM331 900l-225 200h250l106 -200h-131z" />
    <glyph glyph-name="Iacute" unicode="&#xcd;" 
d="M50 0v150h200v500h-200v150h600v-150h-200v-500h200v-150h-600zM216 900l106 200h250l-225 -200h-131z" />
    <glyph glyph-name="Icircumflex" unicode="&#xce;" 
d="M50 0v150h200v500h-200v150h600v-150h-200v-500h200v-150h-600zM151 884l-62 84l184 159h152l186 -159l-61 -83l-201 105z" />
    <glyph glyph-name="Idieresis" unicode="&#xcf;" 
d="M50 0v150h200v500h-200v150h600v-150h-200v-500h200v-150h-600zM220 890c-28.667 0 -52.167 5.66699 -70.5 17s-27.5 31 -27.5 59v15c0 28.667 9.16699 49 27.5 61s41.833 18 70.5 18c29.333 0 53 -6 71 -18s27 -32.333 27 -61v-15c0 -28 -9.16699 -47.667 -27.5 -59
s-41.833 -17 -70.5 -17zM480 890c-28.667 0 -52.167 5.66699 -70.5 17s-27.5 31 -27.5 59v15c0 28.667 9.16699 49 27.5 61s41.833 18 70.5 18c29.333 0 53 -6 71 -18s27 -32.333 27 -61v-15c0 -28 -9.16699 -47.667 -27.5 -59s-41.833 -17 -70.5 -17z" />
    <glyph glyph-name="Eth" unicode="&#xd0;" 
d="M50 0v380h-50v120h50v300h301c93.333 0 166.5 -26.5 219.5 -79.5s79.5 -123.5 79.5 -211.5v-222c0 -87.333 -26.5 -157 -79.5 -209s-126.5 -78 -220.5 -78h-300zM250 150h80c45.333 0 76.666 11.333 93.999 34s26 63.667 26 123v182c0 60.667 -8.66699 102.667 -26 126
s-48.666 35 -93.999 35h-80v-150h100v-120h-100v-230z" />
    <glyph glyph-name="Ntilde" unicode="&#xd1;" 
d="M446 910c-32.667 0 -57.665 5.00098 -74.998 15.001s-31.333 20.667 -42 32l-30 32.5c-9.33301 9.66699 -20.333 14.5 -33 14.5c-10.667 0 -20.334 -4.83301 -29.001 -14.5s-12.667 -29.834 -12 -60.501v-9h-127v15c0 55.333 14 101.666 42 138.999s66.667 56 116 56
c32 0 56.667 -5 74 -15s31.666 -20.667 42.999 -32l31 -33c9.33301 -10 19.666 -15 30.999 -15c10.667 0 20.334 4.83301 29.001 14.5s12.667 29.834 12 60.501v9h127v-15c0 -54.667 -14 -100.667 -42 -138s-66.333 -56 -115 -56zM417.002 0.000976562l-197 524v-524h-170
v800h217l213 -568v568h170v-800h-233z" />
    <glyph glyph-name="Ograve" unicode="&#xd2;" 
d="M331 900l-225 200h250l106 -200h-131zM350 -10c-98 0 -172.5 22.667 -223.5 68s-76.5 108.333 -76.5 189v302c0 81.333 25.667 145.166 77 191.499s126 69.5 224 69.5s172.333 -23.167 223 -69.5s76 -110.166 76 -191.499v-302c0 -80.667 -25.5 -143.667 -76.5 -189
s-125.5 -68 -223.5 -68zM350 140c36 0 61.667 9.66699 77 29s23 52 23 98v262c0 46 -7.66699 79.333 -23 100s-41 31 -77 31s-61.667 -10.333 -77 -31s-23 -54 -23 -100v-262c0 -46 7.66699 -78.667 23 -98s41 -29 77 -29z" />
    <glyph glyph-name="Oacute" unicode="&#xd3;" 
d="M246 900l106 200h250l-225 -200h-131zM350 -10c-98 0 -172.5 22.667 -223.5 68s-76.5 108.333 -76.5 189v302c0 81.333 25.667 145.166 77 191.499s126 69.5 224 69.5s172.333 -23.167 223 -69.5s76 -110.166 76 -191.499v-302c0 -80.667 -25.5 -143.667 -76.5 -189
s-125.5 -68 -223.5 -68zM350 140c36 0 61.667 9.66699 77 29s23 52 23 98v262c0 46 -7.66699 79.333 -23 100s-41 31 -77 31s-61.667 -10.333 -77 -31s-23 -54 -23 -100v-262c0 -46 7.66699 -78.667 23 -98s41 -29 77 -29z" />
    <glyph glyph-name="Ocircumflex" unicode="&#xd4;" 
d="M151 884l-62 84l184 159h152l186 -159l-61 -83l-201 105zM350 -10c-98 0 -172.5 22.667 -223.5 68s-76.5 108.333 -76.5 189v302c0 81.333 25.667 145.166 77 191.499s126 69.5 224 69.5s172.333 -23.167 223 -69.5s76 -110.166 76 -191.499v-302
c0 -80.667 -25.5 -143.667 -76.5 -189s-125.5 -68 -223.5 -68zM350 140c36 0 61.667 9.66699 77 29s23 52 23 98v262c0 46 -7.66699 79.333 -23 100s-41 31 -77 31s-61.667 -10.333 -77 -31s-23 -54 -23 -100v-262c0 -46 7.66699 -78.667 23 -98s41 -29 77 -29z" />
    <glyph glyph-name="Otilde" unicode="&#xd5;" 
d="M446 910c-32.667 0 -57.665 5.00098 -74.998 15.001s-31.333 20.667 -42 32l-30 32.5c-9.33301 9.66699 -20.333 14.5 -33 14.5c-10.667 0 -20.334 -4.83301 -29.001 -14.5s-12.667 -29.834 -12 -60.501v-9h-127v15c0 55.333 14 101.666 42 138.999s66.667 56 116 56
c32 0 56.667 -5 74 -15s31.666 -20.667 42.999 -32l31 -33c9.33301 -10 19.666 -15 30.999 -15c10.667 0 20.334 4.83301 29.001 14.5s12.667 29.834 12 60.501v9h127v-15c0 -54.667 -14 -100.667 -42 -138s-66.333 -56 -115 -56zM350.002 -9.99902
c-98 0 -172.5 22.667 -223.5 68s-76.5 108.333 -76.5 189v302c0 81.333 25.667 145.166 77 191.499s126 69.5 224 69.5s172.333 -23.167 223 -69.5s76 -110.166 76 -191.499v-302c0 -80.667 -25.5 -143.667 -76.5 -189s-125.5 -68 -223.5 -68zM350.002 140.001
c36 0 61.667 9.66699 77 29s23 52 23 98v262c0 46 -7.66699 79.333 -23 100s-41 31 -77 31s-61.667 -10.333 -77 -31s-23 -54 -23 -100v-262c0 -46 7.66699 -78.667 23 -98s41 -29 77 -29z" />
    <glyph glyph-name="Odieresis" unicode="&#xd6;" 
d="M220 890c-28.667 0 -52.167 5.66699 -70.5 17s-27.5 31 -27.5 59v15c0 28.667 9.16699 49 27.5 61s41.833 18 70.5 18c29.333 0 53 -6 71 -18s27 -32.333 27 -61v-15c0 -28 -9.16699 -47.667 -27.5 -59s-41.833 -17 -70.5 -17zM480 890
c-28.667 0 -52.167 5.66699 -70.5 17s-27.5 31 -27.5 59v15c0 28.667 9.16699 49 27.5 61s41.833 18 70.5 18c29.333 0 53 -6 71 -18s27 -32.333 27 -61v-15c0 -28 -9.16699 -47.667 -27.5 -59s-41.833 -17 -70.5 -17zM350 -10c-98 0 -172.5 22.667 -223.5 68
s-76.5 108.333 -76.5 189v302c0 81.333 25.667 145.166 77 191.499s126 69.5 224 69.5s172.333 -23.167 223 -69.5s76 -110.166 76 -191.499v-302c0 -80.667 -25.5 -143.667 -76.5 -189s-125.5 -68 -223.5 -68zM350 140c36 0 61.667 9.66699 77 29s23 52 23 98v262
c0 46 -7.66699 79.333 -23 100s-41 31 -77 31s-61.667 -10.333 -77 -31s-23 -54 -23 -100v-262c0 -46 7.66699 -78.667 23 -98s41 -29 77 -29z" />
    <glyph glyph-name="multiply" unicode="&#xd7;" 
d="M174 31l-103 103l176 216l-176 216l103 103l176 -216l176 216l103 -103l-176 -216l176 -216l-103 -103l-176 216z" />
    <glyph glyph-name="Oslash" unicode="&#xd8;" 
d="M231 252l161 404c-6.66699 1.33301 -13.334 2.33301 -20.001 3s-14 1 -22 1c-45.333 0 -76.666 -11.667 -93.999 -35s-26 -62 -26 -116v-222v-18.5c0 -5.66699 0.333008 -11.167 1 -16.5zM350 140c46 0 77.5 11 94.5 33s25.5 60 25.5 114v222v19c0 6 -0.333008 12 -1 18
l-162 -402c6.66699 -1.33301 13.5 -2.33301 20.5 -3s14.5 -1 22.5 -1zM350 -10c-16.667 0 -32.501 0.666992 -47.501 2s-29.5 3.33301 -43.5 6l-39 -98h-140l60 151c-29.333 23.333 -51.666 53.333 -66.999 90s-23 78.667 -23 126v262c0 88 25.667 156.833 77 206.5
s126 74.5 224 74.5c16 0 31.5 -0.666992 46.5 -2s29.167 -3.33301 42.5 -6l40 98h140l-60 -151c30 -24 52.5 -54.667 67.5 -92s22.5 -80 22.5 -128v-262c0 -87.333 -25.5 -155.333 -76.5 -204s-125.5 -73 -223.5 -73z" />
    <glyph glyph-name="Ugrave" unicode="&#xd9;" 
d="M331 900l-225 200h250l106 -200h-131zM350 -10c-102.667 0 -178.332 23.333 -226.999 70s-73 119 -73 217v523h200v-513c0 -53.333 7.66699 -89.5 23 -108.5s41 -28.5 77 -28.5s61.667 9.5 77 28.5s23 55.167 23 108.5v513h200v-523c0 -98 -24.333 -170.333 -73 -217
s-124.334 -70 -227.001 -70z" />
    <glyph glyph-name="Uacute" unicode="&#xda;" 
d="M216 900l106 200h250l-225 -200h-131zM350 -10c-102.667 0 -178.332 23.333 -226.999 70s-73 119 -73 217v523h200v-513c0 -53.333 7.66699 -89.5 23 -108.5s41 -28.5 77 -28.5s61.667 9.5 77 28.5s23 55.167 23 108.5v513h200v-523c0 -98 -24.333 -170.333 -73 -217
s-124.334 -70 -227.001 -70z" />
    <glyph glyph-name="Ucircumflex" unicode="&#xdb;" 
d="M151 884l-62 84l184 159h152l186 -159l-61 -83l-201 105zM350 -10c-102.667 0 -178.332 23.333 -226.999 70s-73 119 -73 217v523h200v-513c0 -53.333 7.66699 -89.5 23 -108.5s41 -28.5 77 -28.5s61.667 9.5 77 28.5s23 55.167 23 108.5v513h200v-523
c0 -98 -24.333 -170.333 -73 -217s-124.334 -70 -227.001 -70z" />
    <glyph glyph-name="Udieresis" unicode="&#xdc;" 
d="M350 -10c-102.667 0 -178.332 23.333 -226.999 70s-73 119 -73 217v523h200v-513c0 -53.333 7.66699 -89.5 23 -108.5s41 -28.5 77 -28.5s61.667 9.5 77 28.5s23 55.167 23 108.5v513h200v-523c0 -98 -24.333 -170.333 -73 -217s-124.334 -70 -227.001 -70zM220.002 890
c-28.667 0 -52.167 5.66699 -70.5 17s-27.5 31 -27.5 59v15c0 28.667 9.16699 49 27.5 61s41.833 18 70.5 18c29.333 0 53 -6 71 -18s27 -32.333 27 -61v-15c0 -28 -9.16699 -47.667 -27.5 -59s-41.833 -17 -70.5 -17zM480.002 890c-28.667 0 -52.167 5.66699 -70.5 17
s-27.5 31 -27.5 59v15c0 28.667 9.16699 49 27.5 61s41.833 18 70.5 18c29.333 0 53 -6 71 -18s27 -32.333 27 -61v-15c0 -28 -9.16699 -47.667 -27.5 -59s-41.833 -17 -70.5 -17z" />
    <glyph glyph-name="Yacute" unicode="&#xdd;" 
d="M450 0h-200v300l-236 500h199l136 -330l138 330h198l-235 -500v-300zM216 900l106 200h250l-225 -200h-131z" />
    <glyph glyph-name="Thorn" unicode="&#xde;" 
d="M50 0l0.000976562 800h200v-120h112c93.333 0 164.666 -19.833 213.999 -59.5s74 -96.834 74 -171.501v-111c0 -69.333 -24.667 -122.666 -74 -159.999s-120.333 -56 -213 -56h-113v-122h-200zM250.001 270l90 -0.000976562c38.667 0 66.667 6 84 18s26 31.333 26 58v103
c0 28.667 -8.66699 49.334 -26 62.001s-45.333 19 -84 19h-90v-260z" />
    <glyph glyph-name="germandbls" unicode="&#xdf;" 
d="M458 -6c-30.667 0 -64 5.33398 -100 16.001s-66 25.667 -90 45l41 111c23.333 -19.333 45.666 -33.833 66.999 -43.5s43 -14.5 65 -14.5c18.667 0 33.334 4.16699 44.001 12.5s16 20.5 16 36.5c0 14.667 -6 26 -18 34s-43.333 21.333 -94 40
c-38 14.667 -66.333 34.667 -85 60s-28 56 -28 92c0 46.667 12.5 85 37.5 115s61.167 49.667 108.5 59c-1.33301 42 -11.5 71.667 -30.5 89s-41.167 26 -66.5 26c-24 0 -45.833 -9.16699 -65.5 -27.5s-29.5 -48.833 -29.5 -91.5v-553h-190v568
c0 77.333 24.667 136.666 74 177.999s120 62 212 62c83.333 0 150.333 -24.333 201 -73s76 -111 76 -187v-76c-63.333 0.666992 -105.5 -4.16602 -126.5 -14.499s-31.5 -23.833 -31.5 -40.5s7.5 -30 22.5 -40s45.167 -24.333 90.5 -43c38.667 -16 67 -36.667 85 -62
s27 -57 27 -95c0 -54.667 -19.833 -98.834 -59.5 -132.501s-90.5 -50.5 -152.5 -50.5z" />
    <glyph glyph-name="agrave" unicode="&#xe0;" 
d="M283 110c20.667 0 40.668 2.66699 60.001 8s38.333 12.333 57 21v98h-120c-20.667 0 -35.834 -4.5 -45.501 -13.5s-14.5 -27.167 -14.5 -54.5c0 -19.333 5 -34 15 -44s26 -15 48 -15zM230.001 -10c-58 0 -104.166 15.6689 -138.499 47.002s-51.5 74 -51.5 128
c0 56.667 20 99.5 60 128.5s95 43.5 165 43.5h135v68c0 28 -7.33301 46.833 -22 56.5s-36.334 14.5 -65.001 14.5c-30 0 -52.167 -5.83301 -66.5 -17.5s-24.5 -33.167 -30.5 -64.5l-161 25c14.667 71.333 41.5 121 80.5 149s100.5 42 184.5 42
c91.333 0 159.166 -16.833 203.499 -50.5s66.5 -84.834 66.5 -153.501v-216c0 -26 7.83301 -41.833 23.5 -47.5s37.834 -6.83398 66.501 -3.50098v-134c-56 -13.333 -101 -13 -135 1s-57.667 42 -71 84h-30c-21.333 -26.667 -50.833 -50 -88.5 -70s-79.5 -30 -125.5 -30z
M321.002 700.002l-225 200h250l106 -200h-131z" />
    <glyph glyph-name="aacute" unicode="&#xe1;" 
d="M283 110c20.667 0 40.668 2.66699 60.001 8s38.333 12.333 57 21v98h-120c-20.667 0 -35.834 -4.5 -45.501 -13.5s-14.5 -27.167 -14.5 -54.5c0 -19.333 5 -34 15 -44s26 -15 48 -15zM230.001 -10c-58 0 -104.166 15.6689 -138.499 47.002s-51.5 74 -51.5 128
c0 56.667 20 99.5 60 128.5s95 43.5 165 43.5h135v68c0 28 -7.33301 46.833 -22 56.5s-36.334 14.5 -65.001 14.5c-30 0 -52.167 -5.83301 -66.5 -17.5s-24.5 -33.167 -30.5 -64.5l-161 25c14.667 71.333 41.5 121 80.5 149s100.5 42 184.5 42
c91.333 0 159.166 -16.833 203.499 -50.5s66.5 -84.834 66.5 -153.501v-216c0 -26 7.83301 -41.833 23.5 -47.5s37.834 -6.83398 66.501 -3.50098v-134c-56 -13.333 -101 -13 -135 1s-57.667 42 -71 84h-30c-21.333 -26.667 -50.833 -50 -88.5 -70s-79.5 -30 -125.5 -30z
M206.002 700.002l106 200h250l-225 -200h-131z" />
    <glyph glyph-name="acircumflex" unicode="&#xe2;" 
d="M283 110c20.667 0 40.668 2.66699 60.001 8s38.333 12.333 57 21v98h-120c-20.667 0 -35.834 -4.5 -45.501 -13.5s-14.5 -27.167 -14.5 -54.5c0 -19.333 5 -34 15 -44s26 -15 48 -15zM230.001 -10c-58 0 -104.166 15.6689 -138.499 47.002s-51.5 74 -51.5 128
c0 56.667 20 99.5 60 128.5s95 43.5 165 43.5h135v68c0 28 -7.33301 46.833 -22 56.5s-36.334 14.5 -65.001 14.5c-30 0 -52.167 -5.83301 -66.5 -17.5s-24.5 -33.167 -30.5 -64.5l-161 25c14.667 71.333 41.5 121 80.5 149s100.5 42 184.5 42
c91.333 0 159.166 -16.833 203.499 -50.5s66.5 -84.834 66.5 -153.501v-216c0 -26 7.83301 -41.833 23.5 -47.5s37.834 -6.83398 66.501 -3.50098v-134c-56 -13.333 -101 -13 -135 1s-57.667 42 -71 84h-30c-21.333 -26.667 -50.833 -50 -88.5 -70s-79.5 -30 -125.5 -30z
M141.002 684.002l-62 84l184 159h152l186 -159l-61 -83l-201 105z" />
    <glyph glyph-name="atilde" unicode="&#xe3;" 
d="M283 110c20.667 0 40.668 2.66699 60.001 8s38.333 12.333 57 21v98h-120c-20.667 0 -35.834 -4.5 -45.501 -13.5s-14.5 -27.167 -14.5 -54.5c0 -19.333 5 -34 15 -44s26 -15 48 -15zM230.001 -10c-58 0 -104.166 15.6689 -138.499 47.002s-51.5 74 -51.5 128
c0 56.667 20 99.5 60 128.5s95 43.5 165 43.5h135v68c0 28 -7.33301 46.833 -22 56.5s-36.334 14.5 -65.001 14.5c-30 0 -52.167 -5.83301 -66.5 -17.5s-24.5 -33.167 -30.5 -64.5l-161 25c14.667 71.333 41.5 121 80.5 149s100.5 42 184.5 42
c91.333 0 159.166 -16.833 203.499 -50.5s66.5 -84.834 66.5 -153.501v-216c0 -26 7.83301 -41.833 23.5 -47.5s37.834 -6.83398 66.501 -3.50098v-134c-56 -13.333 -101 -13 -135 1s-57.667 42 -71 84h-30c-21.333 -26.667 -50.833 -50 -88.5 -70s-79.5 -30 -125.5 -30z
M436.002 710.002c-32.667 0 -57.665 5.00098 -74.998 15.001s-31.333 20.667 -42 32l-30 32.5c-9.33301 9.66699 -20.333 14.5 -33 14.5c-10.667 0 -20.334 -4.83301 -29.001 -14.5s-12.667 -29.834 -12 -60.501v-9h-127v15c0 55.333 14 101.666 42 138.999
s66.667 56 116 56c32 0 56.667 -5 74 -15s31.666 -20.667 42.999 -32l31 -33c9.33301 -10 19.666 -15 30.999 -15c10.667 0 20.334 4.83301 29.001 14.5s12.667 29.834 12 60.501v9h127v-15c0 -54.667 -14 -100.667 -42 -138s-66.333 -56 -115 -56z" />
    <glyph glyph-name="adieresis" unicode="&#xe4;" 
d="M283 110c20.667 0 40.668 2.66699 60.001 8s38.333 12.333 57 21v98h-120c-20.667 0 -35.834 -4.5 -45.501 -13.5s-14.5 -27.167 -14.5 -54.5c0 -19.333 5 -34 15 -44s26 -15 48 -15zM230.001 -10c-58 0 -104.166 15.6689 -138.499 47.002s-51.5 74 -51.5 128
c0 56.667 20 99.5 60 128.5s95 43.5 165 43.5h135v68c0 28 -7.33301 46.833 -22 56.5s-36.334 14.5 -65.001 14.5c-30 0 -52.167 -5.83301 -66.5 -17.5s-24.5 -33.167 -30.5 -64.5l-161 25c14.667 71.333 41.5 121 80.5 149s100.5 42 184.5 42
c91.333 0 159.166 -16.833 203.499 -50.5s66.5 -84.834 66.5 -153.501v-216c0 -26 7.83301 -41.833 23.5 -47.5s37.834 -6.83398 66.501 -3.50098v-134c-56 -13.333 -101 -13 -135 1s-57.667 42 -71 84h-30c-21.333 -26.667 -50.833 -50 -88.5 -70s-79.5 -30 -125.5 -30z
M210.002 690.002c-28.667 0 -52.167 5.66699 -70.5 17s-27.5 31 -27.5 59v15c0 28.667 9.16699 49 27.5 61s41.833 18 70.5 18c29.333 0 53 -6 71 -18s27 -32.333 27 -61v-15c0 -28 -9.16699 -47.667 -27.5 -59s-41.833 -17 -70.5 -17zM470.002 690.002
c-28.667 0 -52.167 5.66699 -70.5 17s-27.5 31 -27.5 59v15c0 28.667 9.16699 49 27.5 61s41.833 18 70.5 18c29.333 0 53 -6 71 -18s27 -32.333 27 -61v-15c0 -28 -9.16699 -47.667 -27.5 -59s-41.833 -17 -70.5 -17z" />
    <glyph glyph-name="aring" unicode="&#xe5;" 
d="M283 110c20.667 0 40.668 2.66699 60.001 8s38.333 12.333 57 21v98h-120c-20.667 0 -35.834 -4.5 -45.501 -13.5s-14.5 -27.167 -14.5 -54.5c0 -19.333 5 -34 15 -44s26 -15 48 -15zM230.001 -10c-58 0 -104.166 15.6689 -138.499 47.002s-51.5 74 -51.5 128
c0 56.667 20 99.5 60 128.5s95 43.5 165 43.5h135v68c0 28 -7.33301 46.833 -22 56.5s-36.334 14.5 -65.001 14.5c-30 0 -52.167 -5.83301 -66.5 -17.5s-24.5 -33.167 -30.5 -64.5l-161 25c14.667 71.333 41.5 121 80.5 149s100.5 42 184.5 42
c91.333 0 159.166 -16.833 203.499 -50.5s66.5 -84.834 66.5 -153.501v-216c0 -26 7.83301 -41.833 23.5 -47.5s37.834 -6.83398 66.501 -3.50098v-134c-56 -13.333 -101 -13 -135 1s-57.667 42 -71 84h-30c-21.333 -26.667 -50.833 -50 -88.5 -70s-79.5 -30 -125.5 -30z
M330.002 675.002c-62.667 0 -113.332 12.667 -151.999 38s-58 64.333 -58 117v32c0 53.333 19.333 93 58 119s89.334 39 152.001 39c63.333 0 114.166 -13 152.499 -39s57.5 -65.667 57.5 -119v-32c0 -52.667 -19.333 -91.667 -58 -117s-89.334 -38 -152.001 -38z
M330.004 766.002c23.333 0 41.166 4.83301 53.499 14.5s18.5 26.167 18.5 49.5v32c0 22.667 -6.16699 39.5 -18.5 50.5s-30.166 16.5 -53.499 16.5c-24 0 -42 -5.5 -54 -16.5s-18 -27.833 -18 -50.5v-32c0 -23.333 6 -39.833 18 -49.5s30 -14.5 54 -14.5z" />
    <glyph glyph-name="ae" unicode="&#xe6;" 
d="M679 152c-14 -52.667 -37.167 -92.833 -69.5 -120.5s-72.5 -41.5 -120.5 -41.5c-32.667 0 -61.167 7.5 -85.5 22.5s-43.5 37.5 -57.5 67.5h-32c-8.66699 -28 -25 -50 -49 -66s-52.333 -24 -85 -24c-50 0 -89.167 14.667 -117.5 44s-42.5 70 -42.5 122
c0 61.333 16.5 106.833 49.5 136.5s78.167 44.5 135.5 44.5h85v58c0 30.667 -4 51.834 -12 63.501s-20.667 17.5 -38 17.5c-16.667 0 -28.834 -5.83301 -36.501 -17.5s-16.834 -33.167 -27.501 -64.5l-141 25c14.667 66 37.334 114.333 68.001 145s71.334 46 122.001 46
c31.333 0 58.166 -6 80.499 -18s39.5 -32.333 51.5 -61c16.667 26.667 38 46.5 64 59.5s54.333 19.5 85 19.5c50 0 91.5 -19 124.5 -57s49.5 -96.667 49.5 -176v-117h-240v-54c0 -28 3.33301 -50.167 10 -66.5s18.334 -24.5 35.001 -24.5c13.333 0 24.833 5.16699 34.5 15.5
s17.167 26.166 22.5 47.499zM440 399.001l0.000976562 -39h100v37c0 34 -3.83301 58 -11.5 72s-19.834 21 -36.501 21s-29.5 -6.83301 -38.5 -20.5s-13.5 -37.167 -13.5 -70.5zM290.001 139.001v98h-50c-20 0 -35 -5 -45 -15s-15 -27.667 -15 -53
c0 -19.333 3.5 -34 10.5 -44s17.833 -15 32.5 -15c12 0 23.167 2.66699 33.5 8s21.5 12.333 33.5 21z" />
    <glyph glyph-name="ccedilla" unicode="&#xe7;" 
d="M359 -10c-96.667 0 -170.669 20.332 -222.002 60.999s-77 99.334 -77 176.001v150c0 74 25.833 131.333 77.5 172s125.167 61 220.5 61c92 0 159.667 -19.833 203 -59.5s70 -95.167 80 -166.5l-193 -16c-3.33301 38 -12 64.333 -26 79s-37.333 22 -70 22
c-34 0 -57.833 -7.83301 -71.5 -23.5s-20.5 -43.167 -20.5 -82.5v-126c0 -40 7 -67.833 21 -83.5s38.333 -23.5 73 -23.5c32.667 0 55.834 6 69.501 18s21.834 33.333 24.501 64l193 -16c-4.66699 -66 -26.667 -116.833 -66 -152.5s-111.333 -53.5 -216 -53.5z
M365.998 -0.000976562l20.001 41.999c57.333 -5.33301 104 -17.166 140 -35.499s54 -49.833 54 -94.5c0 -50 -22.333 -85.5 -67 -106.5s-94.334 -31.5 -149.001 -31.5c-64 0 -116.333 10.5 -157 31.5s-62.667 55.833 -66 104.5l168 10c1.33301 -12.667 5.5 -21.5 12.5 -26.5
s18.5 -7.5 34.5 -7.5c18 0 31.5 3.5 40.5 10.5s13.5 21.833 13.5 44.5c0 16.667 -3 29.5 -9 38.5s-17.667 15.833 -35 20.5z" />
    <glyph glyph-name="egrave" unicode="&#xe8;" 
d="M336 700l-225 200h250l106 -200h-131zM654 142c-26.667 -58 -61.3311 -97.833 -103.998 -119.5s-108 -32.5 -196 -32.5c-82.667 0 -152.334 19 -209.001 57s-85 95.667 -85 173v159c0 72 25.667 128.5 77 169.5s122.666 61.5 213.999 61.5
c90.667 0 161.5 -20.5 212.5 -61.5s76.5 -98.167 76.5 -171.5v-117h-380v-54c0 -28 7.5 -50.167 22.5 -66.5s40.833 -24.5 77.5 -24.5c28.667 0 53.5 4.5 74.5 13.5s39.5 27.833 55.5 56.5zM260.003 399v-39h180v30c0 37.333 -6 63.333 -18 78s-36 22 -72 22
s-60 -6.83301 -72 -20.5s-18 -37.167 -18 -70.5z" />
    <glyph glyph-name="eacute" unicode="&#xe9;" 
d="M241 700l106 200h250l-225 -200h-131zM654 142c-26.667 -58 -61.3311 -97.833 -103.998 -119.5s-108 -32.5 -196 -32.5c-82.667 0 -152.334 19 -209.001 57s-85 95.667 -85 173v159c0 72 25.667 128.5 77 169.5s122.666 61.5 213.999 61.5
c90.667 0 161.5 -20.5 212.5 -61.5s76.5 -98.167 76.5 -171.5v-117h-380v-54c0 -28 7.5 -50.167 22.5 -66.5s40.833 -24.5 77.5 -24.5c28.667 0 53.5 4.5 74.5 13.5s39.5 27.833 55.5 56.5zM260.003 399v-39h180v30c0 37.333 -6 63.333 -18 78s-36 22 -72 22
s-60 -6.83301 -72 -20.5s-18 -37.167 -18 -70.5z" />
    <glyph glyph-name="ecircumflex" unicode="&#xea;" 
d="M156 684l-62 84l184 159h152l186 -159l-61 -83l-201 105zM654 142c-26.667 -58 -61.3311 -97.833 -103.998 -119.5s-108 -32.5 -196 -32.5c-82.667 0 -152.334 19 -209.001 57s-85 95.667 -85 173v159c0 72 25.667 128.5 77 169.5s122.666 61.5 213.999 61.5
c90.667 0 161.5 -20.5 212.5 -61.5s76.5 -98.167 76.5 -171.5v-117h-380v-54c0 -28 7.5 -50.167 22.5 -66.5s40.833 -24.5 77.5 -24.5c28.667 0 53.5 4.5 74.5 13.5s39.5 27.833 55.5 56.5zM260.003 399v-39h180v30c0 37.333 -6 63.333 -18 78s-36 22 -72 22
s-60 -6.83301 -72 -20.5s-18 -37.167 -18 -70.5z" />
    <glyph glyph-name="edieresis" unicode="&#xeb;" 
d="M654 142c-26.667 -58 -61.3311 -97.833 -103.998 -119.5s-108 -32.5 -196 -32.5c-82.667 0 -152.334 19 -209.001 57s-85 95.667 -85 173v159c0 72 25.667 128.5 77 169.5s122.666 61.5 213.999 61.5c90.667 0 161.5 -20.5 212.5 -61.5s76.5 -98.167 76.5 -171.5v-117
h-380v-54c0 -28 7.5 -50.167 22.5 -66.5s40.833 -24.5 77.5 -24.5c28.667 0 53.5 4.5 74.5 13.5s39.5 27.833 55.5 56.5zM260.003 399v-39h180v30c0 37.333 -6 63.333 -18 78s-36 22 -72 22s-60 -6.83301 -72 -20.5s-18 -37.167 -18 -70.5zM225.003 690
c-28.667 0 -52.167 5.66699 -70.5 17s-27.5 31 -27.5 59v15c0 28.667 9.16699 49 27.5 61s41.833 18 70.5 18c29.333 0 53 -6 71 -18s27 -32.333 27 -61v-15c0 -28 -9.16699 -47.667 -27.5 -59s-41.833 -17 -70.5 -17zM485.003 690c-28.667 0 -52.167 5.66699 -70.5 17
s-27.5 31 -27.5 59v15c0 28.667 9.16699 49 27.5 61s41.833 18 70.5 18c29.333 0 53 -6 71 -18s27 -32.333 27 -61v-15c0 -28 -9.16699 -47.667 -27.5 -59s-41.833 -17 -70.5 -17z" />
    <glyph glyph-name="igrave" unicode="&#xec;" 
d="M351 700l-225 200h250l106 -200h-131zM70 0v140h180v320h-180v140h380v-460h180v-140h-560z" />
    <glyph glyph-name="iacute" unicode="&#xed;" 
d="M216 700l106 200h250l-225 -200h-131zM70 0v140h180v320h-180v140h380v-460h180v-140h-560z" />
    <glyph glyph-name="icircumflex" unicode="&#xee;" 
d="M151 684l-62 84l184 159h152l186 -159l-61 -83l-201 105zM70 0v140h180v320h-180v140h380v-460h180v-140h-560z" />
    <glyph glyph-name="idieresis" unicode="&#xef;" 
d="M70 0v140h180v320h-180v140h380v-460h180v-140h-560zM220 690c-28.667 0 -52.167 5.66699 -70.5 17s-27.5 31 -27.5 59v15c0 28.667 9.16699 49 27.5 61s41.833 18 70.5 18c29.333 0 53 -6 71 -18s27 -32.333 27 -61v-15c0 -28 -9.16699 -47.667 -27.5 -59
s-41.833 -17 -70.5 -17zM480 690c-28.667 0 -52.167 5.66699 -70.5 17s-27.5 31 -27.5 59v15c0 28.667 9.16699 49 27.5 61s41.833 18 70.5 18c29.333 0 53 -6 71 -18s27 -32.333 27 -61v-15c0 -28 -9.16699 -47.667 -27.5 -59s-41.833 -17 -70.5 -17z" />
    <glyph glyph-name="eth" unicode="&#xf0;" 
d="M350 -10c-89.333 0 -161.667 19.6689 -217 59.002s-83 99.666 -83 180.999v52c0 66.667 21.167 119.667 63.5 159s97.166 59 164.499 59c42 0 76.333 -7.33301 103 -22s45.334 -32 56.001 -52h21c-4 41.333 -14 76.166 -30 104.499s-38.333 52.166 -67 71.499l-161 -72
v100l52 23c-18.667 6.66699 -39.167 13.167 -61.5 19.5l-71.5 19.5l126 129c40 -10.667 77.167 -22.5 111.5 -35.5s65.166 -27.5 92.499 -43.5l151 68v-100l-66 -30c40 -37.333 69.333 -81.833 88 -133.5s28 -111.5 28 -179.5v-131c0 -85.333 -27.667 -147.666 -83 -186.999
s-127.666 -59 -216.999 -59zM350.999 130.002c36 0 61.5 7.16699 76.5 21.5s22.5 36.5 22.5 66.5v63c0 26.667 -7.5 46.334 -22.5 59.001s-40.5 19 -76.5 19s-61.5 -6.33301 -76.5 -19s-22.5 -32.334 -22.5 -59.001v-63c0 -30 7.5 -52.167 22.5 -66.5s40.5 -21.5 76.5 -21.5
z" />
    <glyph glyph-name="ntilde" unicode="&#xf1;" 
d="M466 710c-32.667 0 -57.665 5.00098 -74.998 15.001s-31.333 20.667 -42 32l-30 32.5c-9.33301 9.66699 -20.333 14.5 -33 14.5c-10.667 0 -20.334 -4.83301 -29.001 -14.5s-12.667 -29.834 -12 -60.501v-9h-127v15c0 55.333 14 101.666 42 138.999s66.667 56 116 56
c32 0 56.667 -5 74 -15s31.666 -20.667 42.999 -32l31 -33c9.33301 -10 19.666 -15 30.999 -15c10.667 0 20.334 4.83301 29.001 14.5s12.667 29.834 12 60.501v9h127v-15c0 -54.667 -14 -100.667 -42 -138s-66.333 -56 -115 -56zM60.002 0.000976562v600.001h200v-110h30
c16 38 41 67.5 75 88.5s73.333 31.5 118 31.5c50 0 88.667 -15.833 116 -47.5s41 -76.167 41 -133.5v-429h-200v394c0 21.333 -5.16699 37.666 -15.5 48.999s-24.833 17 -43.5 17c-20.667 0 -42 -5.5 -64 -16.5s-41 -27.5 -57 -49.5v-394h-200z" />
    <glyph glyph-name="ograve" unicode="&#xf2;" 
d="M331 700l-225 200h250l106 -200h-131zM350 -10c-90.667 0 -161.666 19.999 -212.999 59.999s-77 95.667 -77 167v162c0 72 25.667 128.5 77 169.5s122.666 61.5 213.999 61.5c90.667 0 161.5 -21 212.5 -63s76.5 -99.667 76.5 -173v-162
c0 -69.333 -25.667 -123.666 -77 -162.999s-122.333 -59 -213 -59zM350.001 129.999c32 0 55 7.66699 69 23s21 40 21 74v143c0 35.333 -7 60.833 -21 76.5s-37 23.5 -69 23.5s-55 -7.83301 -69 -23.5s-21 -40.5 -21 -74.5v-140c0 -36 7 -62 21 -78s37 -24 69 -24z" />
    <glyph glyph-name="oacute" unicode="&#xf3;" 
d="M216 700l106 200h250l-225 -200h-131zM350 -10c-90.667 0 -161.666 19.999 -212.999 59.999s-77 95.667 -77 167v162c0 72 25.667 128.5 77 169.5s122.666 61.5 213.999 61.5c90.667 0 161.5 -21 212.5 -63s76.5 -99.667 76.5 -173v-162
c0 -69.333 -25.667 -123.666 -77 -162.999s-122.333 -59 -213 -59zM350.001 129.999c32 0 55 7.66699 69 23s21 40 21 74v143c0 35.333 -7 60.833 -21 76.5s-37 23.5 -69 23.5s-55 -7.83301 -69 -23.5s-21 -40.5 -21 -74.5v-140c0 -36 7 -62 21 -78s37 -24 69 -24z" />
    <glyph glyph-name="ocircumflex" unicode="&#xf4;" 
d="M151 684l-62 84l184 159h152l186 -159l-61 -83l-201 105zM350 -10c-90.667 0 -161.666 19.999 -212.999 59.999s-77 95.667 -77 167v162c0 72 25.667 128.5 77 169.5s122.666 61.5 213.999 61.5c90.667 0 161.5 -21 212.5 -63s76.5 -99.667 76.5 -173v-162
c0 -69.333 -25.667 -123.666 -77 -162.999s-122.333 -59 -213 -59zM350.001 129.999c32 0 55 7.66699 69 23s21 40 21 74v143c0 35.333 -7 60.833 -21 76.5s-37 23.5 -69 23.5s-55 -7.83301 -69 -23.5s-21 -40.5 -21 -74.5v-140c0 -36 7 -62 21 -78s37 -24 69 -24z" />
    <glyph glyph-name="otilde" unicode="&#xf5;" 
d="M446 710c-32.667 0 -57.665 5.00098 -74.998 15.001s-31.333 20.667 -42 32l-30 32.5c-9.33301 9.66699 -20.333 14.5 -33 14.5c-10.667 0 -20.334 -4.83301 -29.001 -14.5s-12.667 -29.834 -12 -60.501v-9h-127v15c0 55.333 14 101.666 42 138.999s66.667 56 116 56
c32 0 56.667 -5 74 -15s31.666 -20.667 42.999 -32l31 -33c9.33301 -10 19.666 -15 30.999 -15c10.667 0 20.334 4.83301 29.001 14.5s12.667 29.834 12 60.501v9h127v-15c0 -54.667 -14 -100.667 -42 -138s-66.333 -56 -115 -56zM350.002 -9.99902
c-90.667 0 -161.666 19.999 -212.999 59.999s-77 95.667 -77 167v162c0 72 25.667 128.5 77 169.5s122.666 61.5 213.999 61.5c90.667 0 161.5 -21 212.5 -63s76.5 -99.667 76.5 -173v-162c0 -69.333 -25.667 -123.666 -77 -162.999s-122.333 -59 -213 -59zM350.003 130
c32 0 55 7.66699 69 23s21 40 21 74v143c0 35.333 -7 60.833 -21 76.5s-37 23.5 -69 23.5s-55 -7.83301 -69 -23.5s-21 -40.5 -21 -74.5v-140c0 -36 7 -62 21 -78s37 -24 69 -24z" />
    <glyph glyph-name="odieresis" unicode="&#xf6;" 
d="M220 690c-28.667 0 -52.167 5.66699 -70.5 17s-27.5 31 -27.5 59v15c0 28.667 9.16699 49 27.5 61s41.833 18 70.5 18c29.333 0 53 -6 71 -18s27 -32.333 27 -61v-15c0 -28 -9.16699 -47.667 -27.5 -59s-41.833 -17 -70.5 -17zM480 690
c-28.667 0 -52.167 5.66699 -70.5 17s-27.5 31 -27.5 59v15c0 28.667 9.16699 49 27.5 61s41.833 18 70.5 18c29.333 0 53 -6 71 -18s27 -32.333 27 -61v-15c0 -28 -9.16699 -47.667 -27.5 -59s-41.833 -17 -70.5 -17zM350 -10c-90.667 0 -161.666 19.999 -212.999 59.999
s-77 95.667 -77 167v162c0 72 25.667 128.5 77 169.5s122.666 61.5 213.999 61.5c90.667 0 161.5 -21 212.5 -63s76.5 -99.667 76.5 -173v-162c0 -69.333 -25.667 -123.666 -77 -162.999s-122.333 -59 -213 -59zM350.001 129.999c32 0 55 7.66699 69 23s21 40 21 74v143
c0 35.333 -7 60.833 -21 76.5s-37 23.5 -69 23.5s-55 -7.83301 -69 -23.5s-21 -40.5 -21 -74.5v-140c0 -36 7 -62 21 -78s37 -24 69 -24z" />
    <glyph glyph-name="divide" unicode="&#xf7;" 
d="M350 511c-30.667 0 -55.667 6.16699 -75 18.5s-29 31.833 -29 58.5v21c0 26.667 9.66699 46.5 29 59.5s44.333 19.5 75 19.5s55.5 -6.5 74.5 -19.5s28.5 -32.833 28.5 -59.5v-21c0 -26.667 -9.5 -46.167 -28.5 -58.5s-43.833 -18.5 -74.5 -18.5zM60 280v140h580v-140
h-580zM350 11c-30.667 0 -55.667 6.16699 -75 18.5s-29 31.833 -29 58.5v21c0 26.667 9.66699 46.5 29 59.5s44.333 19.5 75 19.5s55.5 -6.5 74.5 -19.5s28.5 -32.833 28.5 -59.5v-21c0 -26.667 -9.5 -46.167 -28.5 -58.5s-43.833 -18.5 -74.5 -18.5z" />
    <glyph glyph-name="oslash" unicode="&#xf8;" 
d="M230 232c0 -14 1.00098 -26.5 3.00098 -37.5s5 -20.833 9 -29.5l156 310c-6.66699 1.33301 -14.167 2.5 -22.5 3.5s-16.833 1.5 -25.5 1.5c-44.667 0 -75.834 -9.5 -93.501 -28.5s-26.5 -45.5 -26.5 -79.5v-140zM350.001 120c44.667 0 75.833 8.66699 93.5 26
s26.5 46 26.5 86v143c0 12 -1 23 -3 33s-5.33301 19 -10 27l-155 -311c6.66699 -1.33301 14.167 -2.33301 22.5 -3s16.833 -1 25.5 -1zM350 -10c-14.667 0 -30.001 0.666992 -46.001 2s-31 3.33301 -45 6l-49 -98h-120l66 133c-32.667 18.667 -58.5 44.334 -77.5 77.001
s-28.5 68.334 -28.5 107.001v162c0 71.333 26.833 127.666 80.5 168.999s127.167 62 220.5 62c14 0 29 -0.666992 45 -2s31 -3.33301 45 -6l49 98h120l-67 -133c33.333 -18.667 59.5 -44.834 78.5 -78.501s28.5 -70.167 28.5 -109.5v-162
c0 -70.667 -26.667 -126.167 -80 -166.5s-126.666 -60.5 -219.999 -60.5z" />
    <glyph glyph-name="ugrave" unicode="&#xf9;" 
d="M341 700l-225 200h250l106 -200h-131zM227 -10c-46 0 -85.334 15.166 -118.001 45.499s-49 75.5 -49 135.5v429h200v-374c0 -28 5.16699 -49.333 15.5 -64s24.833 -22 43.5 -22c20.667 0 41.334 7.83301 62.001 23.5s40.334 36.5 59.001 62.5v374h200v-600h-200v110h-30
c-18 -43.333 -44.833 -74.166 -80.5 -92.499s-69.834 -27.5 -102.501 -27.5z" />
    <glyph glyph-name="uacute" unicode="&#xfa;" 
d="M266 700l106 200h250l-225 -200h-131zM227 -10c-46 0 -85.334 15.166 -118.001 45.499s-49 75.5 -49 135.5v429h200v-374c0 -28 5.16699 -49.333 15.5 -64s24.833 -22 43.5 -22c20.667 0 41.334 7.83301 62.001 23.5s40.334 36.5 59.001 62.5v374h200v-600h-200v110h-30
c-18 -43.333 -44.833 -74.166 -80.5 -92.499s-69.834 -27.5 -102.501 -27.5z" />
    <glyph glyph-name="ucircumflex" unicode="&#xfb;" 
d="M161 684l-62 84l184 159h152l186 -159l-61 -83l-201 105zM227 -10c-46 0 -85.334 15.166 -118.001 45.499s-49 75.5 -49 135.5v429h200v-374c0 -28 5.16699 -49.333 15.5 -64s24.833 -22 43.5 -22c20.667 0 41.334 7.83301 62.001 23.5s40.334 36.5 59.001 62.5v374h200
v-600h-200v110h-30c-18 -43.333 -44.833 -74.166 -80.5 -92.499s-69.834 -27.5 -102.501 -27.5z" />
    <glyph glyph-name="udieresis" unicode="&#xfc;" 
d="M227 -10c-46 0 -85.334 15.166 -118.001 45.499s-49 75.5 -49 135.5v429h200v-374c0 -28 5.16699 -49.333 15.5 -64s24.833 -22 43.5 -22c20.667 0 41.334 7.83301 62.001 23.5s40.334 36.5 59.001 62.5v374h200v-600h-200v110h-30
c-18 -43.333 -44.833 -74.166 -80.5 -92.499s-69.834 -27.5 -102.501 -27.5zM229.999 689.999c-28.667 0 -52.167 5.66699 -70.5 17s-27.5 31 -27.5 59v15c0 28.667 9.16699 49 27.5 61s41.833 18 70.5 18c29.333 0 53 -6 71 -18s27 -32.333 27 -61v-15
c0 -28 -9.16699 -47.667 -27.5 -59s-41.833 -17 -70.5 -17zM489.999 689.999c-28.667 0 -52.167 5.66699 -70.5 17s-27.5 31 -27.5 59v15c0 28.667 9.16699 49 27.5 61s41.833 18 70.5 18c29.333 0 53 -6 71 -18s27 -32.333 27 -61v-15c0 -28 -9.16699 -47.667 -27.5 -59
s-41.833 -17 -70.5 -17z" />
    <glyph glyph-name="yacute" unicode="&#xfd;" 
d="M195 -212c-22.667 0 -47.0029 0.999023 -73.0029 2.99902s-54.333 5 -85 9l10 140c28.667 -4.66699 54.167 -8.5 76.5 -11.5s41.833 -4.5 58.5 -4.5c38.667 0 66.834 7.33301 84.501 22s32.834 44 45.501 88l2 6h-127l-163 560h203l121 -444l132 444h195l-185 -584
c-26.667 -85.333 -61.667 -144.666 -105 -177.999s-106.666 -50 -189.999 -50zM215.997 699.999l106 200h250l-225 -200h-131z" />
    <glyph glyph-name="thorn" unicode="&#xfe;" 
d="M354 133c28 0 49.332 6.66797 63.999 20.001s22 35.666 22 66.999v151c0 30.667 -6.5 53.167 -19.5 67.5s-29.833 21.5 -50.5 21.5c-18.667 0 -36.834 -4.16699 -54.501 -12.5s-36.167 -20.833 -55.5 -37.5v-251c16.667 -8.66699 31.834 -15.167 45.501 -19.5
s29.834 -6.5 48.501 -6.5zM391.999 -5.99902c-24.667 0 -48.1689 2.00098 -70.502 6.00098s-42.833 9.66699 -61.5 17v-217h-200v1000h200v-310h30c14.667 38 37.834 67.5 69.501 88.5s68.834 31.5 111.501 31.5c50.667 0 91.5 -18.333 122.5 -55s46.5 -85 46.5 -145v-191
c0 -68.667 -22.333 -123.334 -67 -164.001s-105 -61 -181 -61z" />
    <glyph glyph-name="ydieresis" unicode="&#xff;" 
d="M195 -212c-22.667 0 -47.0029 0.999023 -73.0029 2.99902s-54.333 5 -85 9l10 140c28.667 -4.66699 54.167 -8.5 76.5 -11.5s41.833 -4.5 58.5 -4.5c38.667 0 66.834 7.33301 84.501 22s32.834 44 45.501 88l2 6h-127l-163 560h203l121 -444l132 444h195l-185 -584
c-26.667 -85.333 -61.667 -144.666 -105 -177.999s-106.666 -50 -189.999 -50zM219.997 689.999c-28.667 0 -52.167 5.66699 -70.5 17s-27.5 31 -27.5 59v15c0 28.667 9.16699 49 27.5 61s41.833 18 70.5 18c29.333 0 53 -6 71 -18s27 -32.333 27 -61v-15
c0 -28 -9.16699 -47.667 -27.5 -59s-41.833 -17 -70.5 -17zM479.997 689.999c-28.667 0 -52.167 5.66699 -70.5 17s-27.5 31 -27.5 59v15c0 28.667 9.16699 49 27.5 61s41.833 18 70.5 18c29.333 0 53 -6 71 -18s27 -32.333 27 -61v-15c0 -28 -9.16699 -47.667 -27.5 -59
s-41.833 -17 -70.5 -17z" />
    <glyph glyph-name="Amacron" unicode="&#x100;" 
d="M428 330l-73 326l-82 -326h155zM503 0l-41 180h-227l-45 -180h-180l218 800h245l218 -800h-188zM125 925v150h450v-150h-450z" />
    <glyph glyph-name="amacron" unicode="&#x101;" 
d="M283 110c20.667 0 40.668 2.66699 60.001 8s38.333 12.333 57 21v98h-120c-20.667 0 -35.834 -4.5 -45.501 -13.5s-14.5 -27.167 -14.5 -54.5c0 -19.333 5 -34 15 -44s26 -15 48 -15zM230.001 -10c-58 0 -104.166 15.6689 -138.499 47.002s-51.5 74 -51.5 128
c0 56.667 20 99.5 60 128.5s95 43.5 165 43.5h135v68c0 28 -7.33301 46.833 -22 56.5s-36.334 14.5 -65.001 14.5c-30 0 -52.167 -5.83301 -66.5 -17.5s-24.5 -33.167 -30.5 -64.5l-161 25c14.667 71.333 41.5 121 80.5 149s100.5 42 184.5 42
c91.333 0 159.166 -16.833 203.499 -50.5s66.5 -84.834 66.5 -153.501v-216c0 -26 7.83301 -41.833 23.5 -47.5s37.834 -6.83398 66.501 -3.50098v-134c-56 -13.333 -101 -13 -135 1s-57.667 42 -71 84h-30c-21.333 -26.667 -50.833 -50 -88.5 -70s-79.5 -30 -125.5 -30z
M105.002 725.002v150h450v-150h-450z" />
    <glyph glyph-name="Abreve" unicode="&#x102;" 
d="M428 330l-73 326l-82 -326h155zM503 0l-41 180h-227l-45 -180h-180l218 800h245l218 -800h-188zM350 893c-90 0 -156.831 19.667 -200.498 59s-65.834 99.666 -66.501 180.999h160c0.666992 -45.333 9 -76.833 25 -94.5s43.333 -26.5 82 -26.5s66 8.83301 82 26.5
s24.333 49.167 25 94.5h160c-0.666992 -81.333 -22.834 -141.666 -66.501 -180.999s-110.5 -59 -200.5 -59z" />
    <glyph glyph-name="abreve" unicode="&#x103;" 
d="M283 110c20.667 0 40.668 2.66699 60.001 8s38.333 12.333 57 21v98h-120c-20.667 0 -35.834 -4.5 -45.501 -13.5s-14.5 -27.167 -14.5 -54.5c0 -19.333 5 -34 15 -44s26 -15 48 -15zM230.001 -10c-58 0 -104.166 15.6689 -138.499 47.002s-51.5 74 -51.5 128
c0 56.667 20 99.5 60 128.5s95 43.5 165 43.5h135v68c0 28 -7.33301 46.833 -22 56.5s-36.334 14.5 -65.001 14.5c-30 0 -52.167 -5.83301 -66.5 -17.5s-24.5 -33.167 -30.5 -64.5l-161 25c14.667 71.333 41.5 121 80.5 149s100.5 42 184.5 42
c91.333 0 159.166 -16.833 203.499 -50.5s66.5 -84.834 66.5 -153.501v-216c0 -26 7.83301 -41.833 23.5 -47.5s37.834 -6.83398 66.501 -3.50098v-134c-56 -13.333 -101 -13 -135 1s-57.667 42 -71 84h-30c-21.333 -26.667 -50.833 -50 -88.5 -70s-79.5 -30 -125.5 -30z
M330.002 693.002c-90 0 -156.831 19.667 -200.498 59s-65.834 99.666 -66.501 180.999h160c0.666992 -45.333 9 -76.833 25 -94.5s43.333 -26.5 82 -26.5s66 8.83301 82 26.5s24.333 49.167 25 94.5h160c-0.666992 -81.333 -22.834 -141.666 -66.501 -180.999
s-110.5 -59 -200.5 -59z" />
    <glyph glyph-name="Aogonek" unicode="&#x104;" 
d="M428 330l-73 326l-82 -326h155zM503 0l-41 180h-227l-45 -180h-180l218 800h245l218 -800h-188zM626 -224c-56 0 -100.167 10.666 -132.5 31.999s-48.5 53.333 -48.5 96c0 44 17 81.167 51 111.5s71 50.833 111 61.5l27 -54c-22.667 -14 -36.5 -27.333 -41.5 -40
s-7.5 -24.667 -7.5 -36c0 -17.333 5.83301 -30.166 17.5 -38.499s30.834 -12.5 57.501 -12.5c12 0 26 0.833008 42 2.5s33.667 4.16699 53 7.5v-116c-24 -4.66699 -46.833 -8.16699 -68.5 -10.5s-41.834 -3.5 -60.501 -3.5z" />
    <glyph glyph-name="aogonek" unicode="&#x105;" 
d="M283 110c20.667 0 40.668 2.66699 60.001 8s38.333 12.333 57 21v98h-120c-20.667 0 -35.834 -4.5 -45.501 -13.5s-14.5 -27.167 -14.5 -54.5c0 -19.333 5 -34 15 -44s26 -15 48 -15zM230.001 -10c-58 0 -104.166 15.6689 -138.499 47.002s-51.5 74 -51.5 128
c0 56.667 20 99.5 60 128.5s95 43.5 165 43.5h135v68c0 28 -7.33301 46.833 -22 56.5s-36.334 14.5 -65.001 14.5c-30 0 -52.167 -5.83301 -66.5 -17.5s-24.5 -33.167 -30.5 -64.5l-161 25c14.667 71.333 41.5 121 80.5 149s100.5 42 184.5 42
c91.333 0 159.166 -16.833 203.499 -50.5s66.5 -84.834 66.5 -153.501v-216c0 -26 7.83301 -41.833 23.5 -47.5s37.834 -6.83398 66.501 -3.50098v-134c-56 -13.333 -101 -13 -135 1s-57.667 42 -71 84h-30c-21.333 -26.667 -50.833 -50 -88.5 -70s-79.5 -30 -125.5 -30z
M601.002 -223.998c-56 0 -100.167 10.666 -132.5 31.999s-48.5 53.333 -48.5 96c0 44 17 81.167 51 111.5s71 50.833 111 61.5l27 -54c-22.667 -14 -36.5 -27.333 -41.5 -40s-7.5 -24.667 -7.5 -36c0 -17.333 5.83301 -30.166 17.5 -38.499s30.834 -12.5 57.501 -12.5
c12 0 26 0.833008 42 2.5s33.667 4.16699 53 7.5v-116c-24 -4.66699 -46.833 -8.16699 -68.5 -10.5s-41.834 -3.5 -60.501 -3.5z" />
    <glyph glyph-name="Cacute" unicode="&#x106;" 
d="M360 -10c-103.333 0 -180.833 21.499 -232.5 64.499s-77.5 107.167 -77.5 192.5v302c0 87.333 26 152.666 78 195.999s129.667 65 233 65c105.333 0 182 -22.667 230 -68s74.333 -119.666 79 -222.999l-200 -10c-4 62 -13.167 102.667 -27.5 122s-41.833 29 -82.5 29
c-39.333 0 -67.5 -10.167 -84.5 -30.5s-25.5 -54.166 -25.5 -101.499v-261c0 -45.333 8.5 -77.833 25.5 -97.5s45.167 -29.5 84.5 -29.5c40 0 67.167 9.5 81.5 28.5s23.833 58.5 28.5 118.5l200 -10c-4.66699 -102.667 -31 -176.167 -79 -220.5s-125 -66.5 -231 -66.5z
M251 899.999l106 200h250l-225 -200h-131z" />
    <glyph glyph-name="cacute" unicode="&#x107;" 
d="M359 -10c-96.667 0 -170.669 20.332 -222.002 60.999s-77 99.334 -77 176.001v150c0 74 25.833 131.333 77.5 172s125.167 61 220.5 61c92 0 159.667 -19.833 203 -59.5s70 -95.167 80 -166.5l-193 -16c-3.33301 38 -12 64.333 -26 79s-37.333 22 -70 22
c-34 0 -57.833 -7.83301 -71.5 -23.5s-20.5 -43.167 -20.5 -82.5v-126c0 -40 7 -67.833 21 -83.5s38.333 -23.5 73 -23.5c32.667 0 55.834 6 69.501 18s21.834 33.333 24.501 64l193 -16c-4.66699 -66 -26.667 -116.833 -66 -152.5s-111.333 -53.5 -216 -53.5z
M261.998 699.999l106 200h250l-225 -200h-131z" />
    <glyph glyph-name="Ccircumflex" unicode="&#x108;" 
d="M166 884l-62 84l184 159h152l186 -159l-61 -83l-201 105zM360 -10c-103.333 0 -180.833 21.499 -232.5 64.499s-77.5 107.167 -77.5 192.5v302c0 87.333 26 152.666 78 195.999s129.667 65 233 65c105.333 0 182 -22.667 230 -68s74.333 -119.666 79 -222.999l-200 -10
c-4 62 -13.167 102.667 -27.5 122s-41.833 29 -82.5 29c-39.333 0 -67.5 -10.167 -84.5 -30.5s-25.5 -54.166 -25.5 -101.499v-261c0 -45.333 8.5 -77.833 25.5 -97.5s45.167 -29.5 84.5 -29.5c40 0 67.167 9.5 81.5 28.5s23.833 58.5 28.5 118.5l200 -10
c-4.66699 -102.667 -31 -176.167 -79 -220.5s-125 -66.5 -231 -66.5z" />
    <glyph glyph-name="ccircumflex" unicode="&#x109;" 
d="M157 684l-62 84l184 159h152l186 -159l-61 -83l-201 105zM359 -10c-96.667 0 -170.669 20.332 -222.002 60.999s-77 99.334 -77 176.001v150c0 74 25.833 131.333 77.5 172s125.167 61 220.5 61c92 0 159.667 -19.833 203 -59.5s70 -95.167 80 -166.5l-193 -16
c-3.33301 38 -12 64.333 -26 79s-37.333 22 -70 22c-34 0 -57.833 -7.83301 -71.5 -23.5s-20.5 -43.167 -20.5 -82.5v-126c0 -40 7 -67.833 21 -83.5s38.333 -23.5 73 -23.5c32.667 0 55.834 6 69.501 18s21.834 33.333 24.501 64l193 -16
c-4.66699 -66 -26.667 -116.833 -66 -152.5s-111.333 -53.5 -216 -53.5z" />
    <glyph glyph-name="Cdotaccent" unicode="&#x10a;" 
d="M360 -10c-103.333 0 -180.833 21.499 -232.5 64.499s-77.5 107.167 -77.5 192.5v302c0 87.333 26 152.666 78 195.999s129.667 65 233 65c105.333 0 182 -22.667 230 -68s74.333 -119.666 79 -222.999l-200 -10c-4 62 -13.167 102.667 -27.5 122s-41.833 29 -82.5 29
c-39.333 0 -67.5 -10.167 -84.5 -30.5s-25.5 -54.166 -25.5 -101.499v-261c0 -45.333 8.5 -77.833 25.5 -97.5s45.167 -29.5 84.5 -29.5c40 0 67.167 9.5 81.5 28.5s23.833 58.5 28.5 118.5l200 -10c-4.66699 -102.667 -31 -176.167 -79 -220.5s-125 -66.5 -231 -66.5z
M365 889.999c-38 0 -68.833 5.66699 -92.5 17s-35.5 31 -35.5 59v15c0 28.667 11.833 49 35.5 61s54.5 18 92.5 18s68.833 -6 92.5 -18s35.5 -32.333 35.5 -61v-15c0 -28 -12 -47.667 -36 -59s-54.667 -17 -92 -17z" />
    <glyph glyph-name="cdotaccent" unicode="&#x10b;" 
d="M359 -10c-96.667 0 -170.669 20.332 -222.002 60.999s-77 99.334 -77 176.001v150c0 74 25.833 131.333 77.5 172s125.167 61 220.5 61c92 0 159.667 -19.833 203 -59.5s70 -95.167 80 -166.5l-193 -16c-3.33301 38 -12 64.333 -26 79s-37.333 22 -70 22
c-34 0 -57.833 -7.83301 -71.5 -23.5s-20.5 -43.167 -20.5 -82.5v-126c0 -40 7 -67.833 21 -83.5s38.333 -23.5 73 -23.5c32.667 0 55.834 6 69.501 18s21.834 33.333 24.501 64l193 -16c-4.66699 -66 -26.667 -116.833 -66 -152.5s-111.333 -53.5 -216 -53.5z
M355.998 689.999c-38 0 -68.833 5.66699 -92.5 17s-35.5 31 -35.5 59v15c0 28.667 11.833 49 35.5 61s54.5 18 92.5 18s68.833 -6 92.5 -18s35.5 -32.333 35.5 -61v-15c0 -28 -12 -47.667 -36 -59s-54.667 -17 -92 -17z" />
    <glyph glyph-name="Ccaron" unicode="&#x10c;" 
d="M290 904l-186 159l61 83l201 -105l198 106l62 -84l-184 -159h-152zM360 -10c-103.333 0 -180.833 21.499 -232.5 64.499s-77.5 107.167 -77.5 192.5v302c0 87.333 26 152.666 78 195.999s129.667 65 233 65c105.333 0 182 -22.667 230 -68s74.333 -119.666 79 -222.999
l-200 -10c-4 62 -13.167 102.667 -27.5 122s-41.833 29 -82.5 29c-39.333 0 -67.5 -10.167 -84.5 -30.5s-25.5 -54.166 -25.5 -101.499v-261c0 -45.333 8.5 -77.833 25.5 -97.5s45.167 -29.5 84.5 -29.5c40 0 67.167 9.5 81.5 28.5s23.833 58.5 28.5 118.5l200 -10
c-4.66699 -102.667 -31 -176.167 -79 -220.5s-125 -66.5 -231 -66.5z" />
    <glyph glyph-name="ccaron" unicode="&#x10d;" 
d="M281 704l-186 159l61 83l201 -105l198 106l62 -84l-184 -159h-152zM359 -10c-96.667 0 -170.669 20.332 -222.002 60.999s-77 99.334 -77 176.001v150c0 74 25.833 131.333 77.5 172s125.167 61 220.5 61c92 0 159.667 -19.833 203 -59.5s70 -95.167 80 -166.5l-193 -16
c-3.33301 38 -12 64.333 -26 79s-37.333 22 -70 22c-34 0 -57.833 -7.83301 -71.5 -23.5s-20.5 -43.167 -20.5 -82.5v-126c0 -40 7 -67.833 21 -83.5s38.333 -23.5 73 -23.5c32.667 0 55.834 6 69.501 18s21.834 33.333 24.501 64l193 -16
c-4.66699 -66 -26.667 -116.833 -66 -152.5s-111.333 -53.5 -216 -53.5z" />
    <glyph glyph-name="Dcaron" unicode="&#x10e;" 
d="M275 904l-186 159l61 83l201 -105l198 106l62 -84l-184 -159h-152zM50 0v800h301c93.333 0 166.5 -26.5 219.5 -79.5s79.5 -123.5 79.5 -211.5v-222c0 -87.333 -26.5 -157 -79.5 -209s-126.5 -78 -220.5 -78h-300zM250 150h80c45.333 0 76.666 11.333 93.999 34
s26 63.667 26 123v182c0 60.667 -8.66699 102.667 -26 126s-48.666 35 -93.999 35h-80v-500z" />
    <glyph glyph-name="dcaron" unicode="&#x10f;" 
d="M696 705l51 295h247l-186 -295h-112zM330 140c18.667 0 36.833 4.16602 54.5 12.499s36.167 20.833 55.5 37.5v252c-14 7.33301 -29 13.333 -45 18s-32.333 7 -49 7c-28.667 0 -50.167 -7.16699 -64.5 -21.5s-21.5 -36.166 -21.5 -65.499v-151
c0 -30.667 6.5 -53.167 19.5 -67.5s29.833 -21.5 50.5 -21.5zM409.999 109.999c-15.333 -38 -38.833 -67.5 -70.5 -88.5s-68.5 -31.5 -110.5 -31.5c-55.333 0 -97.333 19.833 -126 59.5s-43 86.5 -43 140.5v191c0 70 22 125 66 165s104.667 60 182 60
c24.667 0 48.167 -2 70.5 -6s42.833 -9.66699 61.5 -17v217h200v-800h-200v110h-30z" />
    <glyph glyph-name="Dcroat" unicode="&#x110;" 
d="M50 0v380h-50v120h50v300h301c93.333 0 166.5 -26.5 219.5 -79.5s79.5 -123.5 79.5 -211.5v-222c0 -87.333 -26.5 -157 -79.5 -209s-126.5 -78 -220.5 -78h-300zM250 150h80c45.333 0 76.666 11.333 93.999 34s26 63.667 26 123v182c0 60.667 -8.66699 102.667 -26 126
s-48.666 35 -93.999 35h-80v-150h100v-120h-100v-230z" />
    <glyph glyph-name="dcroat" unicode="&#x111;" 
d="M330 140c18.667 0 36.834 4.33105 54.501 12.998s36.167 21 55.5 37v180c-17.333 8.66699 -34.333 15.334 -51 20.001s-34.334 7 -53.001 7c-22.667 0 -41 -6.66699 -55 -20s-21 -35.666 -21 -66.999v-81c0 -30.667 6.5 -53.167 19.5 -67.5s29.833 -21.5 50.5 -21.5z
M410 109.998c-12.667 -30.667 -33.5 -58.334 -62.5 -83.001s-68.5 -37 -118.5 -37c-55.333 0 -97.333 19.833 -126 59.5s-43 86.5 -43 140.5v121c0 68.667 22.333 123.334 67 164.001s105 61 181 61c24.667 0 48.167 -2 70.5 -6s42.833 -9.66699 61.5 -17v87h-160v100h160
v100h200v-100h100v-100h-100v-600h-200v110h-30z" />
    <glyph glyph-name="Emacron" unicode="&#x112;" 
d="M50 0v800h600v-150h-400v-150h350v-150h-350v-200h400v-150h-600zM135 925v150h450v-150h-450z" />
    <glyph glyph-name="emacron" unicode="&#x113;" 
d="M654 142c-26.667 -58 -61.3311 -97.833 -103.998 -119.5s-108 -32.5 -196 -32.5c-82.667 0 -152.334 19 -209.001 57s-85 95.667 -85 173v159c0 72 25.667 128.5 77 169.5s122.666 61.5 213.999 61.5c90.667 0 161.5 -20.5 212.5 -61.5s76.5 -98.167 76.5 -171.5v-117
h-380v-54c0 -28 7.5 -50.167 22.5 -66.5s40.833 -24.5 77.5 -24.5c28.667 0 53.5 4.5 74.5 13.5s39.5 27.833 55.5 56.5zM260.003 399v-39h180v30c0 37.333 -6 63.333 -18 78s-36 22 -72 22s-60 -6.83301 -72 -20.5s-18 -37.167 -18 -70.5zM130.003 725v150h450v-150h-450z
" />
    <glyph glyph-name="Ebreve" unicode="&#x114;" 
d="M50 0v800h600v-150h-400v-150h350v-150h-350v-200h400v-150h-600zM360 893c-90 0 -156.831 19.667 -200.498 59s-65.834 99.666 -66.501 180.999h160c0.666992 -45.333 9 -76.833 25 -94.5s43.333 -26.5 82 -26.5s66 8.83301 82 26.5s24.333 49.167 25 94.5h160
c-0.666992 -81.333 -22.834 -141.666 -66.501 -180.999s-110.5 -59 -200.5 -59z" />
    <glyph glyph-name="ebreve" unicode="&#x115;" 
d="M654 142c-26.667 -58 -61.3311 -97.833 -103.998 -119.5s-108 -32.5 -196 -32.5c-82.667 0 -152.334 19 -209.001 57s-85 95.667 -85 173v159c0 72 25.667 128.5 77 169.5s122.666 61.5 213.999 61.5c90.667 0 161.5 -20.5 212.5 -61.5s76.5 -98.167 76.5 -171.5v-117
h-380v-54c0 -28 7.5 -50.167 22.5 -66.5s40.833 -24.5 77.5 -24.5c28.667 0 53.5 4.5 74.5 13.5s39.5 27.833 55.5 56.5zM260.003 399v-39h180v30c0 37.333 -6 63.333 -18 78s-36 22 -72 22s-60 -6.83301 -72 -20.5s-18 -37.167 -18 -70.5zM345.003 693
c-90 0 -156.831 19.667 -200.498 59s-65.834 99.666 -66.501 180.999h160c0.666992 -45.333 9 -76.833 25 -94.5s43.333 -26.5 82 -26.5s66 8.83301 82 26.5s24.333 49.167 25 94.5h160c-0.666992 -81.333 -22.834 -141.666 -66.501 -180.999s-110.5 -59 -200.5 -59z" />
    <glyph glyph-name="Edotaccent" unicode="&#x116;" 
d="M360 890c-38 0 -68.833 5.66699 -92.5 17s-35.5 31 -35.5 59v15c0 28.667 11.833 49 35.5 61s54.5 18 92.5 18s68.833 -6 92.5 -18s35.5 -32.333 35.5 -61v-15c0 -28 -12 -47.667 -36 -59s-54.667 -17 -92 -17zM50 0v800h600v-150h-400v-150h350v-150h-350v-200h400v-150
h-600z" />
    <glyph glyph-name="edotaccent" unicode="&#x117;" 
d="M355 690c-38 0 -68.833 5.66699 -92.5 17s-35.5 31 -35.5 59v15c0 28.667 11.833 49 35.5 61s54.5 18 92.5 18s68.833 -6 92.5 -18s35.5 -32.333 35.5 -61v-15c0 -28 -12 -47.667 -36 -59s-54.667 -17 -92 -17zM654 142c-26.667 -58 -61.3311 -97.833 -103.998 -119.5
s-108 -32.5 -196 -32.5c-82.667 0 -152.334 19 -209.001 57s-85 95.667 -85 173v159c0 72 25.667 128.5 77 169.5s122.666 61.5 213.999 61.5c90.667 0 161.5 -20.5 212.5 -61.5s76.5 -98.167 76.5 -171.5v-117h-380v-54c0 -28 7.5 -50.167 22.5 -66.5
s40.833 -24.5 77.5 -24.5c28.667 0 53.5 4.5 74.5 13.5s39.5 27.833 55.5 56.5zM260.003 399v-39h180v30c0 37.333 -6 63.333 -18 78s-36 22 -72 22s-60 -6.83301 -72 -20.5s-18 -37.167 -18 -70.5z" />
    <glyph glyph-name="Eogonek" unicode="&#x118;" 
d="M519 -224c-56 0 -100.167 10.666 -132.5 31.999s-48.5 53.333 -48.5 96c0 44 17 81.167 51 111.5s71 50.833 111 61.5l27 -54c-22.667 -14 -36.5 -27.333 -41.5 -40s-7.5 -24.667 -7.5 -36c0 -17.333 5.83301 -30.166 17.5 -38.499s30.834 -12.5 57.501 -12.5
c12 0 26 0.833008 42 2.5s33.667 4.16699 53 7.5v-116c-24 -4.66699 -46.833 -8.16699 -68.5 -10.5s-41.834 -3.5 -60.501 -3.5zM50 -0.000976562v800h600v-150h-400v-150h350v-150h-350v-200h400v-150h-600z" />
    <glyph glyph-name="eogonek" unicode="&#x119;" 
d="M497 -224c-56 0 -100.167 10.666 -132.5 31.999s-48.5 53.333 -48.5 96c0 44 17 81.167 51 111.5s71 50.833 111 61.5l27 -54c-22.667 -14 -36.5 -27.333 -41.5 -40s-7.5 -24.667 -7.5 -36c0 -17.333 5.83301 -30.166 17.5 -38.499s30.834 -12.5 57.501 -12.5
c12 0 26 0.833008 42 2.5s33.667 4.16699 53 7.5v-116c-24 -4.66699 -46.833 -8.16699 -68.5 -10.5s-41.834 -3.5 -60.501 -3.5zM654 141.999c-26.667 -58 -61.3311 -97.833 -103.998 -119.5s-108 -32.5 -196 -32.5c-82.667 0 -152.334 19 -209.001 57s-85 95.667 -85 173
v159c0 72 25.667 128.5 77 169.5s122.666 61.5 213.999 61.5c90.667 0 161.5 -20.5 212.5 -61.5s76.5 -98.167 76.5 -171.5v-117h-380v-54c0 -28 7.5 -50.167 22.5 -66.5s40.833 -24.5 77.5 -24.5c28.667 0 53.5 4.5 74.5 13.5s39.5 27.833 55.5 56.5zM260.003 398.999v-39
h180v30c0 37.333 -6 63.333 -18 78s-36 22 -72 22s-60 -6.83301 -72 -20.5s-18 -37.167 -18 -70.5z" />
    <glyph glyph-name="Ecaron" unicode="&#x11a;" 
d="M285 904l-186 159l61 83l201 -105l198 106l62 -84l-184 -159h-152zM50 0v800h600v-150h-400v-150h350v-150h-350v-200h400v-150h-600z" />
    <glyph glyph-name="ecaron" unicode="&#x11b;" 
d="M280 704l-186 159l61 83l201 -105l198 106l62 -84l-184 -159h-152zM654 142c-26.667 -58 -61.3311 -97.833 -103.998 -119.5s-108 -32.5 -196 -32.5c-82.667 0 -152.334 19 -209.001 57s-85 95.667 -85 173v159c0 72 25.667 128.5 77 169.5s122.666 61.5 213.999 61.5
c90.667 0 161.5 -20.5 212.5 -61.5s76.5 -98.167 76.5 -171.5v-117h-380v-54c0 -28 7.5 -50.167 22.5 -66.5s40.833 -24.5 77.5 -24.5c28.667 0 53.5 4.5 74.5 13.5s39.5 27.833 55.5 56.5zM260.003 399v-39h180v30c0 37.333 -6 63.333 -18 78s-36 22 -72 22
s-60 -6.83301 -72 -20.5s-18 -37.167 -18 -70.5z" />
    <glyph glyph-name="Gcircumflex" unicode="&#x11c;" 
d="M151 884l-62 84l184 159h152l186 -159l-61 -83l-201 105zM352 -10c-97.333 0 -172.002 23.833 -224.002 71.5s-78 116.167 -78 205.5v262c0 90.667 25.833 160.167 77.5 208.5s126.167 72.5 223.5 72.5s170.333 -21.667 219 -65s75.334 -105.333 80.001 -186l-200 -10
c-3.33301 42 -12.166 71 -26.499 87s-37.833 24 -70.5 24c-38.667 0 -65.5 -10.833 -80.5 -32.5s-22.5 -61.167 -22.5 -118.5v-222c0 -56 7.16699 -94.5 21.5 -115.5s40.5 -31.5 78.5 -31.5s64.333 10.167 79 30.5s21.667 56.833 21 109.5h-100v150h300v-163
c0 -89.333 -25.667 -157.833 -77 -205.5s-125 -71.5 -221 -71.5z" />
    <glyph glyph-name="gcircumflex" unicode="&#x11d;" 
d="M161 684l-62 84l184 159h152l186 -159l-61 -83l-201 105zM670 -26c0 -54.667 -20.833 -99.001 -62.5 -133.001s-98.167 -51 -169.5 -51h-172c-79.333 0 -138.5 13.833 -177.5 41.5s-58.5 60.5 -58.5 98.5c0 34 10.667 61.167 32 81.5s47.333 32.166 78 35.499v20
c-24.667 8 -45.5 19.667 -62.5 35s-25.5 39 -25.5 71c0 37.333 13.333 67.5 40 90.5s59 36.833 97 41.5v20c-34.667 8.66699 -61.5 22.667 -80.5 42s-28.5 44 -28.5 74v2c0 51.333 22.5 90.333 67.5 117s99.5 40 163.5 40h359v-110l-164 18v-20
c24.667 -6.66699 45 -19.167 61 -37.5s24 -39.166 24 -62.499v-4c0 -49.333 -22.667 -87.166 -68 -113.499s-101 -39.5 -167 -39.5h-88c-22 0 -39.333 -3.66699 -52 -11s-19 -19.333 -19 -36s6.33301 -28.667 19 -36s30 -11 52 -11h176c69.333 0 124.333 -13.5 165 -40.5
s61 -67.833 61 -122.5zM335 320.999c26.667 0 45.8359 5.66699 57.5029 17s17.5 26.333 17.5 45v50c0 16.667 -5.83301 30.667 -17.5 42s-30.834 17 -57.501 17s-45.834 -5.66699 -57.501 -17s-17.5 -25.333 -17.5 -42v-50c0 -18.667 5.66699 -33.667 17 -45
s30.666 -17 57.999 -17zM268.002 -100.001h168c21.333 0 39 3 53 9s21 20 21 42s-7 35.833 -21 41.5s-31.667 8.5 -53 8.5h-218v-46c0 -17.333 4.16699 -30.833 12.5 -40.5s20.833 -14.5 37.5 -14.5z" />
    <glyph glyph-name="Gbreve" unicode="&#x11e;" 
d="M350 893c-90 0 -156.831 19.667 -200.498 59s-65.834 99.666 -66.501 180.999h160c0.666992 -45.333 9 -76.833 25 -94.5s43.333 -26.5 82 -26.5s66 8.83301 82 26.5s24.333 49.167 25 94.5h160c-0.666992 -81.333 -22.834 -141.666 -66.501 -180.999
s-110.5 -59 -200.5 -59zM352.002 -10c-97.333 0 -172.002 23.833 -224.002 71.5s-78 116.167 -78 205.5v262c0 90.667 25.833 160.167 77.5 208.5s126.167 72.5 223.5 72.5s170.333 -21.667 219 -65s75.334 -105.333 80.001 -186l-200 -10
c-3.33301 42 -12.166 71 -26.499 87s-37.833 24 -70.5 24c-38.667 0 -65.5 -10.833 -80.5 -32.5s-22.5 -61.167 -22.5 -118.5v-222c0 -56 7.16699 -94.5 21.5 -115.5s40.5 -31.5 78.5 -31.5s64.333 10.167 79 30.5s21.667 56.833 21 109.5h-100v150h300v-163
c0 -89.333 -25.667 -157.833 -77 -205.5s-125 -71.5 -221 -71.5z" />
    <glyph glyph-name="gbreve" unicode="&#x11f;" 
d="M350 693c-90 0 -156.831 19.667 -200.498 59s-65.834 99.666 -66.501 180.999h160c0.666992 -45.333 9 -76.833 25 -94.5s43.333 -26.5 82 -26.5s66 8.83301 82 26.5s24.333 49.167 25 94.5h160c-0.666992 -81.333 -22.834 -141.666 -66.501 -180.999
s-110.5 -59 -200.5 -59zM670.002 -26c0 -54.667 -20.833 -99.001 -62.5 -133.001s-98.167 -51 -169.5 -51h-172c-79.333 0 -138.5 13.833 -177.5 41.5s-58.5 60.5 -58.5 98.5c0 34 10.667 61.167 32 81.5s47.333 32.166 78 35.499v20c-24.667 8 -45.5 19.667 -62.5 35
s-25.5 39 -25.5 71c0 37.333 13.333 67.5 40 90.5s59 36.833 97 41.5v20c-34.667 8.66699 -61.5 22.667 -80.5 42s-28.5 44 -28.5 74v2c0 51.333 22.5 90.333 67.5 117s99.5 40 163.5 40h359v-110l-164 18v-20c24.667 -6.66699 45 -19.167 61 -37.5s24 -39.166 24 -62.499
v-4c0 -49.333 -22.667 -87.166 -68 -113.499s-101 -39.5 -167 -39.5h-88c-22 0 -39.333 -3.66699 -52 -11s-19 -19.333 -19 -36s6.33301 -28.667 19 -36s30 -11 52 -11h176c69.333 0 124.333 -13.5 165 -40.5s61 -67.833 61 -122.5zM335.002 320.999
c26.667 0 45.8359 5.66699 57.5029 17s17.5 26.333 17.5 45v50c0 16.667 -5.83301 30.667 -17.5 42s-30.834 17 -57.501 17s-45.834 -5.66699 -57.501 -17s-17.5 -25.333 -17.5 -42v-50c0 -18.667 5.66699 -33.667 17 -45s30.666 -17 57.999 -17zM268.004 -100.001h168
c21.333 0 39 3 53 9s21 20 21 42s-7 35.833 -21 41.5s-31.667 8.5 -53 8.5h-218v-46c0 -17.333 4.16699 -30.833 12.5 -40.5s20.833 -14.5 37.5 -14.5z" />
    <glyph glyph-name="Gdotaccent" unicode="&#x120;" 
d="M360 890c-38 0 -68.833 5.66699 -92.5 17s-35.5 31 -35.5 59v15c0 28.667 11.833 49 35.5 61s54.5 18 92.5 18s68.833 -6 92.5 -18s35.5 -32.333 35.5 -61v-15c0 -28 -12 -47.667 -36 -59s-54.667 -17 -92 -17zM352 -10c-97.333 0 -172.002 23.833 -224.002 71.5
s-78 116.167 -78 205.5v262c0 90.667 25.833 160.167 77.5 208.5s126.167 72.5 223.5 72.5s170.333 -21.667 219 -65s75.334 -105.333 80.001 -186l-200 -10c-3.33301 42 -12.166 71 -26.499 87s-37.833 24 -70.5 24c-38.667 0 -65.5 -10.833 -80.5 -32.5
s-22.5 -61.167 -22.5 -118.5v-222c0 -56 7.16699 -94.5 21.5 -115.5s40.5 -31.5 78.5 -31.5s64.333 10.167 79 30.5s21.667 56.833 21 109.5h-100v150h300v-163c0 -89.333 -25.667 -157.833 -77 -205.5s-125 -71.5 -221 -71.5z" />
    <glyph glyph-name="gdotaccent" unicode="&#x121;" 
d="M350 690c-38 0 -68.833 5.66699 -92.5 17s-35.5 31 -35.5 59v15c0 28.667 11.833 49 35.5 61s54.5 18 92.5 18s68.833 -6 92.5 -18s35.5 -32.333 35.5 -61v-15c0 -28 -12 -47.667 -36 -59s-54.667 -17 -92 -17zM670 -26c0 -54.667 -20.833 -99.001 -62.5 -133.001
s-98.167 -51 -169.5 -51h-172c-79.333 0 -138.5 13.833 -177.5 41.5s-58.5 60.5 -58.5 98.5c0 34 10.667 61.167 32 81.5s47.333 32.166 78 35.499v20c-24.667 8 -45.5 19.667 -62.5 35s-25.5 39 -25.5 71c0 37.333 13.333 67.5 40 90.5s59 36.833 97 41.5v20
c-34.667 8.66699 -61.5 22.667 -80.5 42s-28.5 44 -28.5 74v2c0 51.333 22.5 90.333 67.5 117s99.5 40 163.5 40h359v-110l-164 18v-20c24.667 -6.66699 45 -19.167 61 -37.5s24 -39.166 24 -62.499v-4c0 -49.333 -22.667 -87.166 -68 -113.499s-101 -39.5 -167 -39.5h-88
c-22 0 -39.333 -3.66699 -52 -11s-19 -19.333 -19 -36s6.33301 -28.667 19 -36s30 -11 52 -11h176c69.333 0 124.333 -13.5 165 -40.5s61 -67.833 61 -122.5zM335 320.999c26.667 0 45.8359 5.66699 57.5029 17s17.5 26.333 17.5 45v50c0 16.667 -5.83301 30.667 -17.5 42
s-30.834 17 -57.501 17s-45.834 -5.66699 -57.501 -17s-17.5 -25.333 -17.5 -42v-50c0 -18.667 5.66699 -33.667 17 -45s30.666 -17 57.999 -17zM268.002 -100.001h168c21.333 0 39 3 53 9s21 20 21 42s-7 35.833 -21 41.5s-31.667 8.5 -53 8.5h-218v-46
c0 -17.333 4.16699 -30.833 12.5 -40.5s20.833 -14.5 37.5 -14.5z" />
    <glyph glyph-name="Gcommaaccent" unicode="&#x122;" 
d="M186 -300l66 200h250l-185 -200h-131zM352 -10c-97.333 0 -172.002 23.833 -224.002 71.5s-78 116.167 -78 205.5v262c0 90.667 25.833 160.167 77.5 208.5s126.167 72.5 223.5 72.5s170.333 -21.667 219 -65s75.334 -105.333 80.001 -186l-200 -10
c-3.33301 42 -12.166 71 -26.499 87s-37.833 24 -70.5 24c-38.667 0 -65.5 -10.833 -80.5 -32.5s-22.5 -61.167 -22.5 -118.5v-222c0 -56 7.16699 -94.5 21.5 -115.5s40.5 -31.5 78.5 -31.5s64.333 10.167 79 30.5s21.667 56.833 21 109.5h-100v150h300v-163
c0 -89.333 -25.667 -157.833 -77 -205.5s-125 -71.5 -221 -71.5z" />
    <glyph glyph-name="gcommaaccent" unicode="&#x123;" 
d="M670 -26c0 -54.667 -20.833 -99.001 -62.5 -133.001s-98.167 -51 -169.5 -51h-172c-79.333 0 -138.5 13.833 -177.5 41.5s-58.5 60.5 -58.5 98.5c0 34 10.667 61.167 32 81.5s47.333 32.166 78 35.499v20c-24.667 8 -45.5 19.667 -62.5 35s-25.5 39 -25.5 71
c0 37.333 13.333 67.5 40 90.5s59 36.833 97 41.5v20c-34.667 8.66699 -61.5 22.667 -80.5 42s-28.5 44 -28.5 74v2c0 51.333 22.5 90.333 67.5 117s99.5 40 163.5 40h359v-110l-164 18v-20c24.667 -6.66699 45 -19.167 61 -37.5s24 -39.166 24 -62.499v-4
c0 -49.333 -22.667 -87.166 -68 -113.499s-101 -39.5 -167 -39.5h-88c-22 0 -39.333 -3.66699 -52 -11s-19 -19.333 -19 -36s6.33301 -28.667 19 -36s30 -11 52 -11h176c69.333 0 124.333 -13.5 165 -40.5s61 -67.833 61 -122.5zM335 320.999
c26.667 0 45.8359 5.66699 57.5029 17s17.5 26.333 17.5 45v50c0 16.667 -5.83301 30.667 -17.5 42s-30.834 17 -57.501 17s-45.834 -5.66699 -57.501 -17s-17.5 -25.333 -17.5 -42v-50c0 -18.667 5.66699 -33.667 17 -45s30.666 -17 57.999 -17zM268.002 -100.001h168
c21.333 0 39 3 53 9s21 20 21 42s-7 35.833 -21 41.5s-31.667 8.5 -53 8.5h-218v-46c0 -17.333 4.16699 -30.833 12.5 -40.5s20.833 -14.5 37.5 -14.5zM216.002 699.999l185 200h131l-66 -200h-250z" />
    <glyph glyph-name="Hcircumflex" unicode="&#x124;" 
d="M50 0v800h200v-280h200v280h200v-800h-200v370h-200v-370h-200zM151 884l-62 84l184 159h152l186 -159l-61 -83l-201 105z" />
    <glyph glyph-name="hcircumflex" unicode="&#x125;" 
d="M60 0l0.00195312 800h200v-310h30c16.667 38 41 67.5 73 88.5s68.667 31.5 110 31.5c50.667 0 91.167 -16.5 121.5 -49.5s45.5 -76.833 45.5 -131.5v-429h-200v374c0 28 -5.16699 49.333 -15.5 64s-24.833 22 -43.5 22c-20.667 0 -41.334 -7.83301 -62.001 -23.5
s-40.334 -36.5 -59.001 -62.5v-374h-200zM-38.998 884l-62 84l184 159h152l186 -159l-61 -83l-201 105z" />
    <glyph glyph-name="Hbar" unicode="&#x126;" 
d="M260 420h180v130h-180v-130zM260 270v-270h-200v550h-60v120h60v130h200v-130h180v130h200v-130h60v-120h-60v-550h-200v270h-180z" />
    <glyph glyph-name="hbar" unicode="&#x127;" 
d="M260 304l0.000976562 -303.999h-200v600h-100v100h100v100h200v-100h160v-100h-160v-180h30c16 37.333 40.333 66.666 73 87.999s69.334 32 110.001 32c48.667 0 88.667 -17 120 -51s47 -77.333 47 -130v-359h-200v304c0 28 -5.16699 49.333 -15.5 64
s-24.833 22 -43.5 22c-20.667 0 -41.334 -7.83301 -62.001 -23.5s-40.334 -36.5 -59.001 -62.5z" />
    <glyph glyph-name="Itilde" unicode="&#x128;" 
d="M50 0v150h200v500h-200v150h600v-150h-200v-500h200v-150h-600zM446 910c-32.667 0 -57.665 5.00098 -74.998 15.001s-31.333 20.667 -42 32l-30 32.5c-9.33301 9.66699 -20.333 14.5 -33 14.5c-10.667 0 -20.334 -4.83301 -29.001 -14.5s-12.667 -29.834 -12 -60.501v-9
h-127v15c0 55.333 14 101.666 42 138.999s66.667 56 116 56c32 0 56.667 -5 74 -15s31.666 -20.667 42.999 -32l31 -33c9.33301 -10 19.666 -15 30.999 -15c10.667 0 20.334 4.83301 29.001 14.5s12.667 29.834 12 60.501v9h127v-15c0 -54.667 -14 -100.667 -42 -138
s-66.333 -56 -115 -56z" />
    <glyph glyph-name="itilde" unicode="&#x129;" 
d="M70 0v140h180v320h-180v140h380v-460h180v-140h-560zM446 710c-32.667 0 -57.665 5.00098 -74.998 15.001s-31.333 20.667 -42 32l-30 32.5c-9.33301 9.66699 -20.333 14.5 -33 14.5c-10.667 0 -20.334 -4.83301 -29.001 -14.5s-12.667 -29.834 -12 -60.501v-9h-127v15
c0 55.333 14 101.666 42 138.999s66.667 56 116 56c32 0 56.667 -5 74 -15s31.666 -20.667 42.999 -32l31 -33c9.33301 -10 19.666 -15 30.999 -15c10.667 0 20.334 4.83301 29.001 14.5s12.667 29.834 12 60.501v9h127v-15c0 -54.667 -14 -100.667 -42 -138
s-66.333 -56 -115 -56z" />
    <glyph glyph-name="Imacron" unicode="&#x12a;" 
d="M50 0v150h200v500h-200v150h600v-150h-200v-500h200v-150h-600zM125 925v150h450v-150h-450z" />
    <glyph glyph-name="imacron" unicode="&#x12b;" 
d="M70 0v140h180v320h-180v140h380v-460h180v-140h-560zM125 725v150h450v-150h-450z" />
    <glyph glyph-name="Ibreve" unicode="&#x12c;" 
d="M50 0v150h200v500h-200v150h600v-150h-200v-500h200v-150h-600zM350 893c-90 0 -156.831 19.667 -200.498 59s-65.834 99.666 -66.501 180.999h160c0.666992 -45.333 9 -76.833 25 -94.5s43.333 -26.5 82 -26.5s66 8.83301 82 26.5s24.333 49.167 25 94.5h160
c-0.666992 -81.333 -22.834 -141.666 -66.501 -180.999s-110.5 -59 -200.5 -59z" />
    <glyph glyph-name="ibreve" unicode="&#x12d;" 
d="M70 0v140h180v320h-180v140h380v-460h180v-140h-560zM350 693c-90 0 -156.831 19.667 -200.498 59s-65.834 99.666 -66.501 180.999h160c0.666992 -45.333 9 -76.833 25 -94.5s43.333 -26.5 82 -26.5s66 8.83301 82 26.5s24.333 49.167 25 94.5h160
c-0.666992 -81.333 -22.834 -141.666 -66.501 -180.999s-110.5 -59 -200.5 -59z" />
    <glyph glyph-name="Iogonek" unicode="&#x12e;" 
d="M50 0v150h200v500h-200v150h600v-150h-200v-500h200v-150h-600zM446 -224c-56 0 -100.167 10.666 -132.5 31.999s-48.5 53.333 -48.5 96c0 44 17 81.167 51 111.5s71 50.833 111 61.5l27 -54c-22.667 -14 -36.5 -27.333 -41.5 -40s-7.5 -24.667 -7.5 -36
c0 -17.333 5.83301 -30.166 17.5 -38.499s30.834 -12.5 57.501 -12.5c12 0 26 0.833008 42 2.5s33.667 4.16699 53 7.5v-116c-24 -4.66699 -46.833 -8.16699 -68.5 -10.5s-41.834 -3.5 -60.501 -3.5z" />
    <glyph glyph-name="iogonek" unicode="&#x12f;" 
d="M361 690c-38 0 -68.833 5.66699 -92.5 17s-35.5 31 -35.5 59v15c0 28.667 11.833 49 35.5 61s54.5 18 92.5 18s68.833 -6 92.5 -18s35.5 -32.333 35.5 -61v-15c0 -28 -12 -47.667 -36 -59s-54.667 -17 -92 -17zM70 0v140h180v320h-180v140h380v-460h180v-140h-560z
M416 -224c-56 0 -100.167 10.666 -132.5 31.999s-48.5 53.333 -48.5 96c0 44 17 81.167 51 111.5s71 50.833 111 61.5l27 -54c-22.667 -14 -36.5 -27.333 -41.5 -40s-7.5 -24.667 -7.5 -36c0 -17.333 5.83301 -30.166 17.5 -38.499s30.834 -12.5 57.501 -12.5
c12 0 26 0.833008 42 2.5s33.667 4.16699 53 7.5v-116c-24 -4.66699 -46.833 -8.16699 -68.5 -10.5s-41.834 -3.5 -60.501 -3.5z" />
    <glyph glyph-name="Idotaccent" unicode="&#x130;" 
d="M50 0v150h200v500h-200v150h600v-150h-200v-500h200v-150h-600zM350 890c-38 0 -68.833 5.66699 -92.5 17s-35.5 31 -35.5 59v15c0 28.667 11.833 49 35.5 61s54.5 18 92.5 18s68.833 -6 92.5 -18s35.5 -32.333 35.5 -61v-15c0 -28 -12 -47.667 -36 -59
s-54.667 -17 -92 -17z" />
    <glyph glyph-name="dotlessi" unicode="&#x131;" 
d="M70 0v140h180v320h-180v140h380v-460h180v-140h-560z" />
    <glyph glyph-name="IJ" unicode="&#x132;" 
d="M190 0h-150v800h150v-800zM470 -10c-70 0 -122.668 21.333 -158.001 64s-52.666 113.667 -51.999 213l150 11c0 -64.667 3.16699 -107.167 9.5 -127.5s21.5 -30.5 45.5 -30.5c16 0 27.5 6.83301 34.5 20.5s10.5 40.167 10.5 79.5v450h-130v130h280v-590
c0 -68.667 -15.667 -122.5 -47 -161.5s-79 -58.5 -143 -58.5z" />
    <glyph glyph-name="ij" unicode="&#x133;" 
d="M141 690c-34.667 0 -63 5.66699 -85 17s-33 31 -33 59v15c0 28.667 11 49 33 61s50.333 18 85 18c35.333 0 63.833 -6 85.5 -18s32.5 -32.333 32.5 -61v-15c0 -28 -11.167 -47.667 -33.5 -59s-50.5 -17 -84.5 -17zM539 690c-34.667 0 -63 5.66699 -85 17s-33 31 -33 59
v15c0 28.667 11 49 33 61s50.333 18 85 18c35.333 0 63.833 -6 85.5 -18s32.5 -32.333 32.5 -61v-15c0 -28 -11.167 -47.667 -33.5 -59s-50.5 -17 -84.5 -17zM240 0h-180v600h180v-600zM387 -210c-26.667 0 -53.3311 1.83301 -79.998 5.5s-52.334 9.5 -77.001 17.5l20 126
c21.333 -6.66699 41.166 -11.5 59.499 -14.5s35.5 -4.5 51.5 -4.5c30.667 0 54.667 7.33301 72 22s26 39 26 73v445h-129v140h309v-602c0 -64.667 -22.5 -115.5 -67.5 -152.5s-106.5 -55.5 -184.5 -55.5z" />
    <glyph glyph-name="Jcircumflex" unicode="&#x134;" 
d="M211 884l-62 84l184 159h152l186 -159l-61 -83l-201 105zM339 -10c-104.667 0 -181.167 23.168 -229.5 69.501s-74.833 122.166 -79.5 227.499l200 11c4.66699 -64.667 14.5 -107.167 29.5 -127.5s40.833 -30.5 77.5 -30.5c32.667 0 56.334 9 71.001 27s22 52.333 22 103
v380h-230v150h430v-540c0 -84 -23.333 -150 -70 -198s-120.334 -72 -221.001 -72z" />
    <glyph glyph-name="jcircumflex" unicode="&#x135;" 
d="M238 -210c-31.333 0 -63 1.5 -95 4.5s-62.667 9.16699 -92 18.5l20 126c26.667 -8 51.667 -13.167 75 -15.5s45.333 -3.5 66 -3.5c40 0 71.333 7.33301 94 22s34 39 34 73v445h-249v140h449v-602c0 -64.667 -26.833 -115.5 -80.5 -152.5s-127.5 -55.5 -221.5 -55.5z
M206 684l-62 84l184 159h152l186 -159l-61 -83l-201 105z" />
    <glyph glyph-name="Kcommaaccent" unicode="&#x136;" 
d="M250 335v-335h-200v800h200v-315h40l190 315h205l-246 -370l243 -430h-202l-187 335h-43zM209 -300l66 200h250l-185 -200h-131z" />
    <glyph glyph-name="kcommaaccent" unicode="&#x137;" 
d="M270 245v-245h-200v800h200v-425h37l153 225h205l-192 -270l189 -330h-212l-143 245h-37zM209 -300l66 200h250l-185 -200h-131z" />
    <glyph glyph-name="kgreenlandic" unicode="&#x138;" 
d="M270 245v-245h-200v600h200v-225h37l153 225h205l-192 -270l189 -330h-212l-143 245h-37z" />
    <glyph glyph-name="Lacute" unicode="&#x139;" 
d="M101 900l106 200h250l-225 -200h-131zM100 0v800h200v-650h350v-150h-550z" />
    <glyph glyph-name="lacute" unicode="&#x13a;" 
d="M211 900l106 200h250l-225 -200h-131zM80 0v140h190v520h-190v140h390v-660h180v-140h-570z" />
    <glyph glyph-name="Lcommaaccent" unicode="&#x13b;" 
d="M100 0v800h200v-650h350v-150h-550zM231 -300l66 200h250l-185 -200h-131z" />
    <glyph glyph-name="lcommaaccent" unicode="&#x13c;" 
d="M80 0v140h190v520h-190v140h390v-660h180v-140h-570zM171 -300l66 200h250l-185 -200h-131z" />
    <glyph glyph-name="Lcaron" unicode="&#x13d;" 
d="M396 505l51 295h247l-186 -295h-112zM100 0v800h200v-650h350v-150h-550z" />
    <glyph glyph-name="lcaron" unicode="&#x13e;" 
d="M546 705l51 295h247l-186 -295h-112zM80 0v140h190v520h-190v140h390v-660h180v-140h-570z" />
    <glyph glyph-name="Ldot" unicode="&#x13f;" 
d="M590 380c-38 0 -68.833 5.66699 -92.5 17s-35.5 31 -35.5 59v15c0 28.667 11.833 49 35.5 61s54.5 18 92.5 18s68.833 -6 92.5 -18s35.5 -32.333 35.5 -61v-15c0 -28 -12 -47.667 -36 -59s-54.667 -17 -92 -17zM100 0v800h200v-650h350v-150h-550z" />
    <glyph glyph-name="ldot" unicode="&#x140;" 
d="M705 330c-38 0 -68.833 5.66699 -92.5 17s-35.5 31 -35.5 59v15c0 28.667 11.833 49 35.5 61s54.5 18 92.5 18s68.833 -6 92.5 -18s35.5 -32.333 35.5 -61v-15c0 -28 -12 -47.667 -36 -59s-54.667 -17 -92 -17zM80 0v140h190v520h-190v140h390v-660h180v-140h-570z" />
    <glyph glyph-name="Lslash" unicode="&#x141;" 
d="M100 0v322l-70 -22v120l70 22v358h200v-294l230 74v-120l-230 -74v-236h350v-150h-550z" />
    <glyph glyph-name="lslash" unicode="&#x142;" 
d="M80 0v140h190v182l-160 -42v120l160 42v218h-190v140h390v-304l90 24v-120l-90 -24v-236h180v-140h-570z" />
    <glyph glyph-name="Nacute" unicode="&#x143;" 
d="M246 900l106 200h250l-225 -200h-131zM417 0l-197 524v-524h-170v800h217l213 -568v568h170v-800h-233z" />
    <glyph glyph-name="nacute" unicode="&#x144;" 
d="M236 700l106 200h250l-225 -200h-131zM60 0v600.001h200v-110h30c16 38 41 67.5 75 88.5s73.333 31.5 118 31.5c50 0 88.667 -15.833 116 -47.5s41 -76.167 41 -133.5v-429h-200v394c0 21.333 -5.16699 37.666 -15.5 48.999s-24.833 17 -43.5 17
c-20.667 0 -42 -5.5 -64 -16.5s-41 -27.5 -57 -49.5v-394h-200z" />
    <glyph glyph-name="Ncommaaccent" unicode="&#x145;" 
d="M186 -300l66 200h250l-185 -200h-131zM417 0l-197 524v-524h-170v800h217l213 -568v568h170v-800h-233z" />
    <glyph glyph-name="ncommaaccent" unicode="&#x146;" 
d="M186 -300l66 200h250l-185 -200h-131zM60 0v600.001h200v-110h30c16 38 41 67.5 75 88.5s73.333 31.5 118 31.5c50 0 88.667 -15.833 116 -47.5s41 -76.167 41 -133.5v-429h-200v394c0 21.333 -5.16699 37.666 -15.5 48.999s-24.833 17 -43.5 17
c-20.667 0 -42 -5.5 -64 -16.5s-41 -27.5 -57 -49.5v-394h-200z" />
    <glyph glyph-name="Ncaron" unicode="&#x147;" 
d="M275 904l-186 159l61 83l201 -105l198 106l62 -84l-184 -159h-152zM417 0l-197 524v-524h-170v800h217l213 -568v568h170v-800h-233z" />
    <glyph glyph-name="ncaron" unicode="&#x148;" 
d="M295 704l-186 159l61 83l201 -105l198 106l62 -84l-184 -159h-152zM60 0v600.001h200v-110h30c16 38 41 67.5 75 88.5s73.333 31.5 118 31.5c50 0 88.667 -15.833 116 -47.5s41 -76.167 41 -133.5v-429h-200v394c0 21.333 -5.16699 37.666 -15.5 48.999
s-24.833 17 -43.5 17c-20.667 0 -42 -5.5 -64 -16.5s-41 -27.5 -57 -49.5v-394h-200z" />
    <glyph glyph-name="napostrophe" unicode="&#x149;" 
d="M-34 700l106 200h250l-225 -200h-131zM60 0v600.001h200v-110h30c16 38 41 67.5 75 88.5s73.333 31.5 118 31.5c50 0 88.667 -15.833 116 -47.5s41 -76.167 41 -133.5v-429h-200v394c0 21.333 -5.16699 37.666 -15.5 48.999s-24.833 17 -43.5 17
c-20.667 0 -42 -5.5 -64 -16.5s-41 -27.5 -57 -49.5v-394h-200z" />
    <glyph glyph-name="Eng" unicode="&#x14a;" 
d="M398 -210c-22.667 0 -45.6689 2.16699 -69.002 6.5s-46 9.83301 -68 16.5l20 126c17.333 -5.33301 33.666 -9.83301 48.999 -13.5s29.333 -5.5 42 -5.5c24.667 0 43.834 7.33301 57.501 22s20.5 39 20.5 73v539c0 34 -6.16699 60.167 -18.5 78.5
s-29.166 27.5 -50.499 27.5c-22 0 -42.833 -8.66699 -62.5 -26s-42.5 -44 -68.5 -80v-554h-200v800h200v-130h30c20 46 46.667 80.833 80 104.5s71 35.5 113 35.5c48 0 89.5 -17 124.5 -51s52.5 -84 52.5 -150v-611c0 -73.333 -25.667 -126.333 -77 -159
s-109.666 -49 -174.999 -49z" />
    <glyph glyph-name="eng" unicode="&#x14b;" 
d="M398 -210c-22.667 0 -45.667 2.16699 -69 6.5s-46 9.83301 -68 16.5l20 126c17.333 -5.33301 33.666 -9.83301 48.999 -13.5s29.333 -5.5 42 -5.5c21.333 0 38 7.33301 50 22s18 39 18 73v379c0 21.333 -5.16699 37.666 -15.5 48.999s-24.833 17 -43.5 17
c-20.667 0 -42 -5.5 -64 -16.5s-41 -27.5 -57 -49.5v-394h-200v600h200v-110h30c18.667 42.667 46.167 73.334 82.5 92.001s72.5 28 108.5 28c48.667 0 87.334 -15.167 116.001 -45.5s43 -75.5 43 -135.5v-431c0 -73.333 -24.667 -126.333 -74 -159s-105.333 -49 -168 -49z
" />
    <glyph glyph-name="Omacron" unicode="&#x14c;" 
d="M125 925v150h450v-150h-450zM350 -10c-98 0 -172.5 22.667 -223.5 68s-76.5 108.333 -76.5 189v302c0 81.333 25.667 145.166 77 191.499s126 69.5 224 69.5s172.333 -23.167 223 -69.5s76 -110.166 76 -191.499v-302c0 -80.667 -25.5 -143.667 -76.5 -189
s-125.5 -68 -223.5 -68zM350 140c36 0 61.667 9.66699 77 29s23 52 23 98v262c0 46 -7.66699 79.333 -23 100s-41 31 -77 31s-61.667 -10.333 -77 -31s-23 -54 -23 -100v-262c0 -46 7.66699 -78.667 23 -98s41 -29 77 -29z" />
    <glyph glyph-name="omacron" unicode="&#x14d;" 
d="M125 725v150h450v-150h-450zM350 -10c-90.667 0 -161.666 19.999 -212.999 59.999s-77 95.667 -77 167v162c0 72 25.667 128.5 77 169.5s122.666 61.5 213.999 61.5c90.667 0 161.5 -21 212.5 -63s76.5 -99.667 76.5 -173v-162c0 -69.333 -25.667 -123.666 -77 -162.999
s-122.333 -59 -213 -59zM350.001 129.999c32 0 55 7.66699 69 23s21 40 21 74v143c0 35.333 -7 60.833 -21 76.5s-37 23.5 -69 23.5s-55 -7.83301 -69 -23.5s-21 -40.5 -21 -74.5v-140c0 -36 7 -62 21 -78s37 -24 69 -24z" />
    <glyph glyph-name="Obreve" unicode="&#x14e;" 
d="M350 893c-90 0 -156.831 19.667 -200.498 59s-65.834 99.666 -66.501 180.999h160c0.666992 -45.333 9 -76.833 25 -94.5s43.333 -26.5 82 -26.5s66 8.83301 82 26.5s24.333 49.167 25 94.5h160c-0.666992 -81.333 -22.834 -141.666 -66.501 -180.999
s-110.5 -59 -200.5 -59zM350.002 -10c-98 0 -172.5 22.667 -223.5 68s-76.5 108.333 -76.5 189v302c0 81.333 25.667 145.166 77 191.499s126 69.5 224 69.5s172.333 -23.167 223 -69.5s76 -110.166 76 -191.499v-302c0 -80.667 -25.5 -143.667 -76.5 -189
s-125.5 -68 -223.5 -68zM350.002 140c36 0 61.667 9.66699 77 29s23 52 23 98v262c0 46 -7.66699 79.333 -23 100s-41 31 -77 31s-61.667 -10.333 -77 -31s-23 -54 -23 -100v-262c0 -46 7.66699 -78.667 23 -98s41 -29 77 -29z" />
    <glyph glyph-name="obreve" unicode="&#x14f;" 
d="M360 693c-90 0 -156.831 19.667 -200.498 59s-65.834 99.666 -66.501 180.999h160c0.666992 -45.333 9 -76.833 25 -94.5s43.333 -26.5 82 -26.5s66 8.83301 82 26.5s24.333 49.167 25 94.5h160c-0.666992 -81.333 -22.834 -141.666 -66.501 -180.999
s-110.5 -59 -200.5 -59zM350.002 -10c-90.667 0 -161.666 19.999 -212.999 59.999s-77 95.667 -77 167v162c0 72 25.667 128.5 77 169.5s122.666 61.5 213.999 61.5c90.667 0 161.5 -21 212.5 -63s76.5 -99.667 76.5 -173v-162c0 -69.333 -25.667 -123.666 -77 -162.999
s-122.333 -59 -213 -59zM350.003 129.999c32 0 55 7.66699 69 23s21 40 21 74v143c0 35.333 -7 60.833 -21 76.5s-37 23.5 -69 23.5s-55 -7.83301 -69 -23.5s-21 -40.5 -21 -74.5v-140c0 -36 7 -62 21 -78s37 -24 69 -24z" />
    <glyph glyph-name="Ohungarumlaut" unicode="&#x150;" 
d="M406 900l46 200h190l-135 -200h-101zM176 900l46 200h190l-135 -200h-101zM350 -10c-98 0 -172.5 22.667 -223.5 68s-76.5 108.333 -76.5 189v302c0 81.333 25.667 145.166 77 191.499s126 69.5 224 69.5s172.333 -23.167 223 -69.5s76 -110.166 76 -191.499v-302
c0 -80.667 -25.5 -143.667 -76.5 -189s-125.5 -68 -223.5 -68zM350 140c36 0 61.667 9.66699 77 29s23 52 23 98v262c0 46 -7.66699 79.333 -23 100s-41 31 -77 31s-61.667 -10.333 -77 -31s-23 -54 -23 -100v-262c0 -46 7.66699 -78.667 23 -98s41 -29 77 -29z" />
    <glyph glyph-name="ohungarumlaut" unicode="&#x151;" 
d="M396 700l46 200h190l-135 -200h-101zM166 700l46 200h190l-135 -200h-101zM350 -10c-90.667 0 -161.666 19.999 -212.999 59.999s-77 95.667 -77 167v162c0 72 25.667 128.5 77 169.5s122.666 61.5 213.999 61.5c90.667 0 161.5 -21 212.5 -63s76.5 -99.667 76.5 -173
v-162c0 -69.333 -25.667 -123.666 -77 -162.999s-122.333 -59 -213 -59zM350.001 129.999c32 0 55 7.66699 69 23s21 40 21 74v143c0 35.333 -7 60.833 -21 76.5s-37 23.5 -69 23.5s-55 -7.83301 -69 -23.5s-21 -40.5 -21 -74.5v-140c0 -36 7 -62 21 -78s37 -24 69 -24z" />
    <glyph glyph-name="OE" unicode="&#x152;" 
d="M279 0c-78 0 -139 26.5 -183 79.5s-66 123.5 -66 211.5v222c0 87.333 22 157 66 209s105.333 78 184 78h400v-140h-180v-160h130v-140h-130v-220h180v-140h-401zM300 150h30v500h-30c-41.333 0 -68.333 -12.333 -81 -37s-19 -64.667 -19 -120v-182
c0 -54.667 6.33301 -95.167 19 -121.5s39.667 -39.5 81 -39.5z" />
    <glyph glyph-name="oe" unicode="&#x153;" 
d="M672 152c-11.333 -62 -32.3359 -104.502 -63.0029 -127.502s-71 -34.5 -121 -34.5c-30.667 0 -58.667 5.83301 -84 17.5s-46 28.834 -62 51.501c-13.333 -23.333 -31.166 -40.666 -53.499 -51.999s-46.833 -17 -73.5 -17c-50.667 0 -93 15.167 -127 45.5
s-51 77.5 -51 141.5v242c0 64.667 17.167 112.667 51.5 144s76.833 47 127.5 47c26.667 0 50.834 -5.66699 72.501 -17s39.5 -28.666 53.5 -51.999c15.333 23.333 35.5 40.666 60.5 51.999s52.5 17 82.5 17c50.667 0 93 -15.667 127 -47s51 -80 51 -146v-157h-234v-94
c0 -15.333 3.33301 -27.666 10 -36.999s18.334 -14 35.001 -14c16 0 30.667 3.66699 44 11s21.333 24.666 24 51.999zM428.997 438.998l0.000976562 -79h71v70c0 22.667 -2.33301 38.334 -7 47.001s-14.334 13 -29.001 13c-14 0 -23.333 -3.83301 -28 -11.5
s-7 -20.834 -7 -39.501zM234.998 129.998c12.667 0 21.667 4.83301 27 14.5s8 25.5 8 47.5v223c0 17.333 -2.66699 30.833 -8 40.5s-14.333 14.5 -27 14.5s-21.667 -5 -27 -15s-8 -24.333 -8 -43v-220c0 -22 2.66699 -37.833 8 -47.5s14.333 -14.5 27 -14.5z" />
    <glyph glyph-name="Racute" unicode="&#x154;" 
d="M241 900l106 200h250l-225 -200h-131zM250 430h100c37.333 0 63.333 5.83301 78 17.5s22 33.5 22 65.5v54c0 30.667 -7.33301 52.167 -22 64.5s-40.667 18.5 -78 18.5h-100v-220zM250 0h-200v800h331c89.333 0 154.833 -19 196.5 -57s62.5 -92.667 62.5 -164v-72
c0 -54.667 -11.5 -99.667 -34.5 -135s-57.167 -60.333 -102.5 -75l166 -297h-209l-155 280h-55v-280z" />
    <glyph glyph-name="racute" unicode="&#x155;" 
d="M241 700l106 200h250l-225 -200h-131zM80 0v600h200v-110h30c14.667 42 38 72.5 70 91.5s69.667 28.5 113 28.5c52 0 91.167 -14.833 117.5 -44.5s39.5 -71.5 39.5 -125.5v-112h-180v55c0 23.333 -5.16699 42 -15.5 56s-28.833 21 -55.5 21
c-22.667 0 -44.667 -5.16699 -66 -15.5s-39 -28.5 -53 -54.5v-390h-200z" />
    <glyph glyph-name="Rcommaaccent" unicode="&#x156;" 
d="M250 430h100c37.333 0 63.333 5.83301 78 17.5s22 33.5 22 65.5v54c0 30.667 -7.33301 52.167 -22 64.5s-40.667 18.5 -78 18.5h-100v-220zM250 0h-200v800h331c89.333 0 154.833 -19 196.5 -57s62.5 -92.667 62.5 -164v-72c0 -54.667 -11.5 -99.667 -34.5 -135
s-57.167 -60.333 -102.5 -75l166 -297h-209l-155 280h-55v-280zM161 -300l66 200h250l-185 -200h-131z" />
    <glyph glyph-name="rcommaaccent" unicode="&#x157;" 
d="M80 0v600h200v-110h30c14.667 42 38 72.5 70 91.5s69.667 28.5 113 28.5c52 0 91.167 -14.833 117.5 -44.5s39.5 -71.5 39.5 -125.5v-112h-180v55c0 23.333 -5.16699 42 -15.5 56s-28.833 21 -55.5 21c-22.667 0 -44.667 -5.16699 -66 -15.5s-39 -28.5 -53 -54.5v-390
h-200zM31 -300l66 200h250l-185 -200h-131z" />
    <glyph glyph-name="Rcaron" unicode="&#x158;" 
d="M260 904l-186 159l61 83l201 -105l198 106l62 -84l-184 -159h-152zM250 430h100c37.333 0 63.333 5.83301 78 17.5s22 33.5 22 65.5v54c0 30.667 -7.33301 52.167 -22 64.5s-40.667 18.5 -78 18.5h-100v-220zM250 0h-200v800h331c89.333 0 154.833 -19 196.5 -57
s62.5 -92.667 62.5 -164v-72c0 -54.667 -11.5 -99.667 -34.5 -135s-57.167 -60.333 -102.5 -75l166 -297h-209l-155 280h-55v-280z" />
    <glyph glyph-name="rcaron" unicode="&#x159;" 
d="M300 704l-186 159l61 83l201 -105l198 106l62 -84l-184 -159h-152zM80 0v600h200v-110h30c14.667 42 38 72.5 70 91.5s69.667 28.5 113 28.5c52 0 91.167 -14.833 117.5 -44.5s39.5 -71.5 39.5 -125.5v-112h-180v55c0 23.333 -5.16699 42 -15.5 56s-28.833 21 -55.5 21
c-22.667 0 -44.667 -5.16699 -66 -15.5s-39 -28.5 -53 -54.5v-390h-200z" />
    <glyph glyph-name="Sacute" unicode="&#x15a;" 
d="M341 -10c-64.667 0 -121.331 7.83203 -169.998 23.499s-92.334 34.834 -131.001 57.501l45 149c40 -23.333 80.167 -42.5 120.5 -57.5s86.5 -22.5 138.5 -22.5c39.333 0 67.666 7.33301 84.999 22s26 34.334 26 59.001c0 30.667 -11 51.667 -33 63s-60 23 -114 35
c-91.333 20.667 -155.5 49 -192.5 85s-55.5 88 -55.5 156c0 70 24 129.167 72 177.5s121.667 72.5 221 72.5c48 0 96.5 -8.5 145.5 -25.5s87.833 -33.833 116.5 -50.5l-35 -142c-40 20 -77.833 36 -113.5 48s-73.167 18 -112.5 18c-32.667 0 -56.667 -6.33301 -72 -19
s-23 -31.334 -23 -56.001s9.33301 -44.334 28 -59.001s58.667 -28.334 120 -41.001c91.333 -19.333 155.5 -47.666 192.5 -84.999s55.5 -92.333 55.5 -165c0 -77.333 -27.667 -137.166 -83 -179.499s-132.333 -63.5 -231 -63.5zM214.003 899.999l106 200h250l-225 -200h-131
z" />
    <glyph glyph-name="sacute" unicode="&#x15b;" 
d="M351 -6c-52 0 -104.169 6.83105 -156.502 20.498s-97.166 32.5 -134.499 56.5l45 119c40 -24.667 82.833 -43.167 128.5 -55.5s86.5 -18.5 122.5 -18.5c29.333 0 50 4.5 62 13.5s18 22.5 18 40.5c0 20.667 -7 35.834 -21 45.501s-37.333 16.167 -70 19.5
c-85.333 8.66699 -150.833 25.334 -196.5 50.001s-68.5 66.334 -68.5 125.001c0 61.333 23.5 110 70.5 146s111.167 54 192.5 54c40.667 0 83.834 -5.83301 129.501 -17.5s86.5 -27.834 122.5 -48.501l-35 -112c-38 19.333 -74.667 33.5 -110 42.5s-68.333 13.5 -99 13.5
c-25.333 0 -43.666 -4.5 -54.999 -13.5s-17 -21.833 -17 -38.5c0 -21.333 10.167 -36 30.5 -44s51.833 -14.667 94.5 -20c79.333 -10 137.666 -28.833 174.999 -56.5s56 -68.5 56 -122.5c0 -61.333 -24.333 -109.833 -73 -145.5s-119 -53.5 -211 -53.5zM223.998 699.998
l106 200h250l-225 -200h-131z" />
    <glyph glyph-name="Scircumflex" unicode="&#x15c;" 
d="M149 884l-62 84l184 159h152l186 -159l-61 -83l-201 105zM341 -10c-64.667 0 -121.331 7.83203 -169.998 23.499s-92.334 34.834 -131.001 57.501l45 149c40 -23.333 80.167 -42.5 120.5 -57.5s86.5 -22.5 138.5 -22.5c39.333 0 67.666 7.33301 84.999 22
s26 34.334 26 59.001c0 30.667 -11 51.667 -33 63s-60 23 -114 35c-91.333 20.667 -155.5 49 -192.5 85s-55.5 88 -55.5 156c0 70 24 129.167 72 177.5s121.667 72.5 221 72.5c48 0 96.5 -8.5 145.5 -25.5s87.833 -33.833 116.5 -50.5l-35 -142c-40 20 -77.833 36 -113.5 48
s-73.167 18 -112.5 18c-32.667 0 -56.667 -6.33301 -72 -19s-23 -31.334 -23 -56.001s9.33301 -44.334 28 -59.001s58.667 -28.334 120 -41.001c91.333 -19.333 155.5 -47.666 192.5 -84.999s55.5 -92.333 55.5 -165c0 -77.333 -27.667 -137.166 -83 -179.499
s-132.333 -63.5 -231 -63.5z" />
    <glyph glyph-name="scircumflex" unicode="&#x15d;" 
d="M149 684l-62 84l184 159h152l186 -159l-61 -83l-201 105zM351 -6c-52 0 -104.169 6.83105 -156.502 20.498s-97.166 32.5 -134.499 56.5l45 119c40 -24.667 82.833 -43.167 128.5 -55.5s86.5 -18.5 122.5 -18.5c29.333 0 50 4.5 62 13.5s18 22.5 18 40.5
c0 20.667 -7 35.834 -21 45.501s-37.333 16.167 -70 19.5c-85.333 8.66699 -150.833 25.334 -196.5 50.001s-68.5 66.334 -68.5 125.001c0 61.333 23.5 110 70.5 146s111.167 54 192.5 54c40.667 0 83.834 -5.83301 129.501 -17.5s86.5 -27.834 122.5 -48.501l-35 -112
c-38 19.333 -74.667 33.5 -110 42.5s-68.333 13.5 -99 13.5c-25.333 0 -43.666 -4.5 -54.999 -13.5s-17 -21.833 -17 -38.5c0 -21.333 10.167 -36 30.5 -44s51.833 -14.667 94.5 -20c79.333 -10 137.666 -28.833 174.999 -56.5s56 -68.5 56 -122.5
c0 -61.333 -24.333 -109.833 -73 -145.5s-119 -53.5 -211 -53.5z" />
    <glyph glyph-name="Scedilla" unicode="&#x15e;" 
d="M341 -10c-64.667 0 -121.331 7.83203 -169.998 23.499s-92.334 34.834 -131.001 57.501l45 149c40 -23.333 80.167 -42.5 120.5 -57.5s86.5 -22.5 138.5 -22.5c39.333 0 67.666 7.33301 84.999 22s26 34.334 26 59.001c0 30.667 -11 51.667 -33 63s-60 23 -114 35
c-91.333 20.667 -155.5 49 -192.5 85s-55.5 88 -55.5 156c0 70 24 129.167 72 177.5s121.667 72.5 221 72.5c48 0 96.5 -8.5 145.5 -25.5s87.833 -33.833 116.5 -50.5l-35 -142c-40 20 -77.833 36 -113.5 48s-73.167 18 -112.5 18c-32.667 0 -56.667 -6.33301 -72 -19
s-23 -31.334 -23 -56.001s9.33301 -44.334 28 -59.001s58.667 -28.334 120 -41.001c91.333 -19.333 155.5 -47.666 192.5 -84.999s55.5 -92.333 55.5 -165c0 -77.333 -27.667 -137.166 -83 -179.499s-132.333 -63.5 -231 -63.5zM318.003 -0.000976562l20.001 41.999
c57.333 -5.33301 104 -17.166 140 -35.499s54 -49.833 54 -94.5c0 -50 -22.333 -85.5 -67 -106.5s-94.334 -31.5 -149.001 -31.5c-64 0 -116.333 10.5 -157 31.5s-62.667 55.833 -66 104.5l168 10c1.33301 -12.667 5.5 -21.5 12.5 -26.5s18.5 -7.5 34.5 -7.5
c18 0 31.5 3.5 40.5 10.5s13.5 21.833 13.5 44.5c0 16.667 -3 29.5 -9 38.5s-17.667 15.833 -35 20.5z" />
    <glyph glyph-name="scedilla" unicode="&#x15f;" 
d="M351 -6c-52 0 -104.169 6.83105 -156.502 20.498s-97.166 32.5 -134.499 56.5l45 119c40 -24.667 82.833 -43.167 128.5 -55.5s86.5 -18.5 122.5 -18.5c29.333 0 50 4.5 62 13.5s18 22.5 18 40.5c0 20.667 -7 35.834 -21 45.501s-37.333 16.167 -70 19.5
c-85.333 8.66699 -150.833 25.334 -196.5 50.001s-68.5 66.334 -68.5 125.001c0 61.333 23.5 110 70.5 146s111.167 54 192.5 54c40.667 0 83.834 -5.83301 129.501 -17.5s86.5 -27.834 122.5 -48.501l-35 -112c-38 19.333 -74.667 33.5 -110 42.5s-68.333 13.5 -99 13.5
c-25.333 0 -43.666 -4.5 -54.999 -13.5s-17 -21.833 -17 -38.5c0 -21.333 10.167 -36 30.5 -44s51.833 -14.667 94.5 -20c79.333 -10 137.666 -28.833 174.999 -56.5s56 -68.5 56 -122.5c0 -61.333 -24.333 -109.833 -73 -145.5s-119 -53.5 -211 -53.5zM307.998 -0.00195312
l20.001 41.999c57.333 -5.33301 104 -17.166 140 -35.499s54 -49.833 54 -94.5c0 -50 -22.333 -85.5 -67 -106.5s-94.334 -31.5 -149.001 -31.5c-64 0 -116.333 10.5 -157 31.5s-62.667 55.833 -66 104.5l168 10c1.33301 -12.667 5.5 -21.5 12.5 -26.5s18.5 -7.5 34.5 -7.5
c18 0 31.5 3.5 40.5 10.5s13.5 21.833 13.5 44.5c0 16.667 -3 29.5 -9 38.5s-17.667 15.833 -35 20.5z" />
    <glyph glyph-name="Scaron" unicode="&#x160;" 
d="M273 904l-186 159l61 83l201 -105l198 106l62 -84l-184 -159h-152zM341 -10c-64.667 0 -121.331 7.83203 -169.998 23.499s-92.334 34.834 -131.001 57.501l45 149c40 -23.333 80.167 -42.5 120.5 -57.5s86.5 -22.5 138.5 -22.5c39.333 0 67.666 7.33301 84.999 22
s26 34.334 26 59.001c0 30.667 -11 51.667 -33 63s-60 23 -114 35c-91.333 20.667 -155.5 49 -192.5 85s-55.5 88 -55.5 156c0 70 24 129.167 72 177.5s121.667 72.5 221 72.5c48 0 96.5 -8.5 145.5 -25.5s87.833 -33.833 116.5 -50.5l-35 -142c-40 20 -77.833 36 -113.5 48
s-73.167 18 -112.5 18c-32.667 0 -56.667 -6.33301 -72 -19s-23 -31.334 -23 -56.001s9.33301 -44.334 28 -59.001s58.667 -28.334 120 -41.001c91.333 -19.333 155.5 -47.666 192.5 -84.999s55.5 -92.333 55.5 -165c0 -77.333 -27.667 -137.166 -83 -179.499
s-132.333 -63.5 -231 -63.5z" />
    <glyph glyph-name="scaron" unicode="&#x161;" 
d="M273 704l-186 159l61 83l201 -105l198 106l62 -84l-184 -159h-152zM351 -6c-52 0 -104.169 6.83105 -156.502 20.498s-97.166 32.5 -134.499 56.5l45 119c40 -24.667 82.833 -43.167 128.5 -55.5s86.5 -18.5 122.5 -18.5c29.333 0 50 4.5 62 13.5s18 22.5 18 40.5
c0 20.667 -7 35.834 -21 45.501s-37.333 16.167 -70 19.5c-85.333 8.66699 -150.833 25.334 -196.5 50.001s-68.5 66.334 -68.5 125.001c0 61.333 23.5 110 70.5 146s111.167 54 192.5 54c40.667 0 83.834 -5.83301 129.501 -17.5s86.5 -27.834 122.5 -48.501l-35 -112
c-38 19.333 -74.667 33.5 -110 42.5s-68.333 13.5 -99 13.5c-25.333 0 -43.666 -4.5 -54.999 -13.5s-17 -21.833 -17 -38.5c0 -21.333 10.167 -36 30.5 -44s51.833 -14.667 94.5 -20c79.333 -10 137.666 -28.833 174.999 -56.5s56 -68.5 56 -122.5
c0 -61.333 -24.333 -109.833 -73 -145.5s-119 -53.5 -211 -53.5z" />
    <glyph glyph-name="Tcedilla" unicode="&#x162;" 
d="M250 0v650h-220v150h640v-150h-220v-650h-200zM310 0l20.001 41.999c57.333 -5.33301 104 -17.166 140 -35.499s54 -49.833 54 -94.5c0 -50 -22.333 -85.5 -67 -106.5s-94.334 -31.5 -149.001 -31.5c-64 0 -116.333 10.5 -157 31.5s-62.667 55.833 -66 104.5l168 10
c1.33301 -12.667 5.5 -21.5 12.5 -26.5s18.5 -7.5 34.5 -7.5c18 0 31.5 3.5 40.5 10.5s13.5 21.833 13.5 44.5c0 16.667 -3 29.5 -9 38.5s-17.667 15.833 -35 20.5z" />
    <glyph glyph-name="tcedilla" unicode="&#x163;" 
d="M460 -11c-83.333 0 -147.5 19 -192.5 57s-67.5 92 -67.5 162v252h-140v140h140v200h200v-200h220v-140h-220v-224c0 -38 8.16699 -65.167 24.5 -81.5s38.5 -24.5 66.5 -24.5c15.333 0 33.333 1.16699 54 3.5s42 7.83301 64 16.5l20 -136
c-13.333 -6 -35.333 -11.667 -66 -17s-65 -8 -103 -8zM363 0l20.001 41.999c57.333 -5.33301 104 -17.166 140 -35.499s54 -49.833 54 -94.5c0 -50 -22.333 -85.5 -67 -106.5s-94.334 -31.5 -149.001 -31.5c-64 0 -116.333 10.5 -157 31.5s-62.667 55.833 -66 104.5l168 10
c1.33301 -12.667 5.5 -21.5 12.5 -26.5s18.5 -7.5 34.5 -7.5c18 0 31.5 3.5 40.5 10.5s13.5 21.833 13.5 44.5c0 16.667 -3 29.5 -9 38.5s-17.667 15.833 -35 20.5z" />
    <glyph glyph-name="Tcaron" unicode="&#x164;" 
d="M275 904l-186 159l61 83l201 -105l198 106l62 -84l-184 -159h-152zM250 0v650h-220v150h640v-150h-220v-650h-200z" />
    <glyph glyph-name="tcaron" unicode="&#x165;" 
d="M496 705l51 295h247l-186 -295h-112zM460 -11c-83.333 0 -147.5 19 -192.5 57s-67.5 92 -67.5 162v252h-140v140h140v200h200v-200h220v-140h-220v-224c0 -38 8.16699 -65.167 24.5 -81.5s38.5 -24.5 66.5 -24.5c15.333 0 33.333 1.16699 54 3.5s42 7.83301 64 16.5
l20 -136c-13.333 -6 -35.333 -11.667 -66 -17s-65 -8 -103 -8z" />
    <glyph glyph-name="Tbar" unicode="&#x166;" 
d="M250 0v290h-160v120h160v240h-220v150h640v-150h-220v-240h160v-120h-160v-290h-200z" />
    <glyph glyph-name="tbar" unicode="&#x167;" 
d="M460 -11c-83.333 0 -147.5 19 -192.5 57s-67.5 92 -67.5 162v42h-120v120h120v90h-140v140h140v200h200v-200h220v-140h-220v-90h200v-120h-200v-14c0 -38 8.16699 -65.167 24.5 -81.5s38.5 -24.5 66.5 -24.5c15.333 0 33.333 1.16699 54 3.5s42 7.83301 64 16.5l20 -136
c-13.333 -6 -35.333 -11.667 -66 -17s-65 -8 -103 -8z" />
    <glyph glyph-name="Utilde" unicode="&#x168;" 
d="M350 -10c-102.667 0 -178.332 23.333 -226.999 70s-73 119 -73 217v523h200v-513c0 -53.333 7.66699 -89.5 23 -108.5s41 -28.5 77 -28.5s61.667 9.5 77 28.5s23 55.167 23 108.5v513h200v-523c0 -98 -24.333 -170.333 -73 -217s-124.334 -70 -227.001 -70zM446.002 910
c-32.667 0 -57.665 5.00098 -74.998 15.001s-31.333 20.667 -42 32l-30 32.5c-9.33301 9.66699 -20.333 14.5 -33 14.5c-10.667 0 -20.334 -4.83301 -29.001 -14.5s-12.667 -29.834 -12 -60.501v-9h-127v15c0 55.333 14 101.666 42 138.999s66.667 56 116 56
c32 0 56.667 -5 74 -15s31.666 -20.667 42.999 -32l31 -33c9.33301 -10 19.666 -15 30.999 -15c10.667 0 20.334 4.83301 29.001 14.5s12.667 29.834 12 60.501v9h127v-15c0 -54.667 -14 -100.667 -42 -138s-66.333 -56 -115 -56z" />
    <glyph glyph-name="utilde" unicode="&#x169;" 
d="M227 -10c-46 0 -85.334 15.166 -118.001 45.499s-49 75.5 -49 135.5v429h200v-374c0 -28 5.16699 -49.333 15.5 -64s24.833 -22 43.5 -22c20.667 0 41.334 7.83301 62.001 23.5s40.334 36.5 59.001 62.5v374h200v-600h-200v110h-30
c-18 -43.333 -44.833 -74.166 -80.5 -92.499s-69.834 -27.5 -102.501 -27.5zM445.999 709.999c-32.667 0 -57.665 5.00098 -74.998 15.001s-31.333 20.667 -42 32l-30 32.5c-9.33301 9.66699 -20.333 14.5 -33 14.5c-10.667 0 -20.334 -4.83301 -29.001 -14.5
s-12.667 -29.834 -12 -60.501v-9h-127v15c0 55.333 14 101.666 42 138.999s66.667 56 116 56c32 0 56.667 -5 74 -15s31.666 -20.667 42.999 -32l31 -33c9.33301 -10 19.666 -15 30.999 -15c10.667 0 20.334 4.83301 29.001 14.5s12.667 29.834 12 60.501v9h127v-15
c0 -54.667 -14 -100.667 -42 -138s-66.333 -56 -115 -56z" />
    <glyph glyph-name="Umacron" unicode="&#x16a;" 
d="M350 -10c-102.667 0 -178.332 23.333 -226.999 70s-73 119 -73 217v523h200v-513c0 -53.333 7.66699 -89.5 23 -108.5s41 -28.5 77 -28.5s61.667 9.5 77 28.5s23 55.167 23 108.5v513h200v-523c0 -98 -24.333 -170.333 -73 -217s-124.334 -70 -227.001 -70zM125.002 925
v150h450v-150h-450z" />
    <glyph glyph-name="umacron" unicode="&#x16b;" 
d="M227 -10c-46 0 -85.334 15.166 -118.001 45.499s-49 75.5 -49 135.5v429h200v-374c0 -28 5.16699 -49.333 15.5 -64s24.833 -22 43.5 -22c20.667 0 41.334 7.83301 62.001 23.5s40.334 36.5 59.001 62.5v374h200v-600h-200v110h-30
c-18 -43.333 -44.833 -74.166 -80.5 -92.499s-69.834 -27.5 -102.501 -27.5zM124.999 724.999v150h450v-150h-450z" />
    <glyph glyph-name="Ubreve" unicode="&#x16c;" 
d="M350 -10c-102.667 0 -178.332 23.333 -226.999 70s-73 119 -73 217v523h200v-513c0 -53.333 7.66699 -89.5 23 -108.5s41 -28.5 77 -28.5s61.667 9.5 77 28.5s23 55.167 23 108.5v513h200v-523c0 -98 -24.333 -170.333 -73 -217s-124.334 -70 -227.001 -70zM350.002 893
c-90 0 -156.831 19.667 -200.498 59s-65.834 99.666 -66.501 180.999h160c0.666992 -45.333 9 -76.833 25 -94.5s43.333 -26.5 82 -26.5s66 8.83301 82 26.5s24.333 49.167 25 94.5h160c-0.666992 -81.333 -22.834 -141.666 -66.501 -180.999s-110.5 -59 -200.5 -59z" />
    <glyph glyph-name="ubreve" unicode="&#x16d;" 
d="M227 -10c-46 0 -85.334 15.166 -118.001 45.499s-49 75.5 -49 135.5v429h200v-374c0 -28 5.16699 -49.333 15.5 -64s24.833 -22 43.5 -22c20.667 0 41.334 7.83301 62.001 23.5s40.334 36.5 59.001 62.5v374h200v-600h-200v110h-30
c-18 -43.333 -44.833 -74.166 -80.5 -92.499s-69.834 -27.5 -102.501 -27.5zM359.999 692.999c-90 0 -156.831 19.667 -200.498 59s-65.834 99.666 -66.501 180.999h160c0.666992 -45.333 9 -76.833 25 -94.5s43.333 -26.5 82 -26.5s66 8.83301 82 26.5
s24.333 49.167 25 94.5h160c-0.666992 -81.333 -22.834 -141.666 -66.501 -180.999s-110.5 -59 -200.5 -59z" />
    <glyph glyph-name="Uring" unicode="&#x16e;" 
d="M350 -10c-102.667 0 -178.332 23.333 -226.999 70s-73 119 -73 217v523h200v-513c0 -53.333 7.66699 -89.5 23 -108.5s41 -28.5 77 -28.5s61.667 9.5 77 28.5s23 55.167 23 108.5v513h200v-523c0 -98 -24.333 -170.333 -73 -217s-124.334 -70 -227.001 -70zM350.002 875
c-62.667 0 -113.332 12.667 -151.999 38s-58 64.333 -58 117v32c0 53.333 19.333 93 58 119s89.334 39 152.001 39c63.333 0 114.166 -13 152.499 -39s57.5 -65.667 57.5 -119v-32c0 -52.667 -19.333 -91.667 -58 -117s-89.334 -38 -152.001 -38zM350.004 966
c23.333 0 41.166 4.83301 53.499 14.5s18.5 26.167 18.5 49.5v32c0 22.667 -6.16699 39.5 -18.5 50.5s-30.166 16.5 -53.499 16.5c-24 0 -42 -5.5 -54 -16.5s-18 -27.833 -18 -50.5v-32c0 -23.333 6 -39.833 18 -49.5s30 -14.5 54 -14.5z" />
    <glyph glyph-name="uring" unicode="&#x16f;" 
d="M227 -10c-46 0 -85.334 15.166 -118.001 45.499s-49 75.5 -49 135.5v429h200v-374c0 -28 5.16699 -49.333 15.5 -64s24.833 -22 43.5 -22c20.667 0 41.334 7.83301 62.001 23.5s40.334 36.5 59.001 62.5v374h200v-600h-200v110h-30
c-18 -43.333 -44.833 -74.166 -80.5 -92.499s-69.834 -27.5 -102.501 -27.5zM359.999 674.999c-62.667 0 -113.332 12.667 -151.999 38s-58 64.333 -58 117v32c0 53.333 19.333 93 58 119s89.334 39 152.001 39c63.333 0 114.166 -13 152.499 -39s57.5 -65.667 57.5 -119
v-32c0 -52.667 -19.333 -91.667 -58 -117s-89.334 -38 -152.001 -38zM360.001 765.999c23.333 0 41.166 4.83301 53.499 14.5s18.5 26.167 18.5 49.5v32c0 22.667 -6.16699 39.5 -18.5 50.5s-30.166 16.5 -53.499 16.5c-24 0 -42 -5.5 -54 -16.5s-18 -27.833 -18 -50.5v-32
c0 -23.333 6 -39.833 18 -49.5s30 -14.5 54 -14.5z" />
    <glyph glyph-name="Uhungarumlaut" unicode="&#x170;" 
d="M416 900l46 200h190l-135 -200h-101zM186 900l46 200h190l-135 -200h-101zM350 -10c-102.667 0 -178.332 23.333 -226.999 70s-73 119 -73 217v523h200v-513c0 -53.333 7.66699 -89.5 23 -108.5s41 -28.5 77 -28.5s61.667 9.5 77 28.5s23 55.167 23 108.5v513h200v-523
c0 -98 -24.333 -170.333 -73 -217s-124.334 -70 -227.001 -70z" />
    <glyph glyph-name="uhungarumlaut" unicode="&#x171;" 
d="M396 700l46 200h190l-135 -200h-101zM166 700l46 200h190l-135 -200h-101zM227 -10c-46 0 -85.334 15.166 -118.001 45.499s-49 75.5 -49 135.5v429h200v-374c0 -28 5.16699 -49.333 15.5 -64s24.833 -22 43.5 -22c20.667 0 41.334 7.83301 62.001 23.5
s40.334 36.5 59.001 62.5v374h200v-600h-200v110h-30c-18 -43.333 -44.833 -74.166 -80.5 -92.499s-69.834 -27.5 -102.501 -27.5z" />
    <glyph glyph-name="Uogonek" unicode="&#x172;" 
d="M426 -224c-56 0 -100.167 10.666 -132.5 31.999s-48.5 53.333 -48.5 96c0 44 17 81.167 51 111.5s71 50.833 111 61.5l27 -54c-22.667 -14 -36.5 -27.333 -41.5 -40s-7.5 -24.667 -7.5 -36c0 -17.333 5.83301 -30.166 17.5 -38.499s30.834 -12.5 57.501 -12.5
c12 0 26 0.833008 42 2.5s33.667 4.16699 53 7.5v-116c-24 -4.66699 -46.833 -8.16699 -68.5 -10.5s-41.834 -3.5 -60.501 -3.5zM350 -10.001c-102.667 0 -178.332 23.333 -226.999 70s-73 119 -73 217v523h200v-513c0 -53.333 7.66699 -89.5 23 -108.5s41 -28.5 77 -28.5
s61.667 9.5 77 28.5s23 55.167 23 108.5v513h200v-523c0 -98 -24.333 -170.333 -73 -217s-124.334 -70 -227.001 -70z" />
    <glyph glyph-name="uogonek" unicode="&#x173;" 
d="M566 -224c-56 0 -100.167 10.666 -132.5 31.999s-48.5 53.333 -48.5 96c0 44 17 81.167 51 111.5s71 50.833 111 61.5l27 -54c-22.667 -14 -36.5 -27.333 -41.5 -40s-7.5 -24.667 -7.5 -36c0 -17.333 5.83301 -30.166 17.5 -38.499s30.834 -12.5 57.501 -12.5
c12 0 26 0.833008 42 2.5s33.667 4.16699 53 7.5v-116c-24 -4.66699 -46.833 -8.16699 -68.5 -10.5s-41.834 -3.5 -60.501 -3.5zM227 -10.001c-46 0 -85.334 15.166 -118.001 45.499s-49 75.5 -49 135.5v429h200v-374c0 -28 5.16699 -49.333 15.5 -64s24.833 -22 43.5 -22
c20.667 0 41.334 7.83301 62.001 23.5s40.334 36.5 59.001 62.5v374h200v-600h-200v110h-30c-18 -43.333 -44.833 -74.166 -80.5 -92.499s-69.834 -27.5 -102.501 -27.5z" />
    <glyph glyph-name="Wcircumflex" unicode="&#x174;" 
d="M151 884l-62 84l184 159h152l186 -159l-61 -83l-201 105zM418 0l-66 347l-66 -347h-174l-103 800h169l38 -581l66 381h134l69 -366l37 566h169l-103 -800h-170z" />
    <glyph glyph-name="wcircumflex" unicode="&#x175;" 
d="M161 684l-62 84l184 159h152l186 -159l-61 -83l-201 105zM428 0l-78 286l-74 -286h-174l-93 600h169l48 -390l65 280h114l71 -272l46 382h169l-93 -600h-170z" />
    <glyph glyph-name="Ycircumflex" unicode="&#x176;" 
d="M450 0h-200v300l-236 500h199l136 -330l138 330h198l-235 -500v-300zM151 884l-62 84l184 159h152l186 -159l-61 -83l-201 105z" />
    <glyph glyph-name="ycircumflex" unicode="&#x177;" 
d="M195 -212c-22.667 0 -47.0029 0.999023 -73.0029 2.99902s-54.333 5 -85 9l10 140c28.667 -4.66699 54.167 -8.5 76.5 -11.5s41.833 -4.5 58.5 -4.5c38.667 0 66.834 7.33301 84.501 22s32.834 44 45.501 88l2 6h-127l-163 560h203l121 -444l132 444h195l-185 -584
c-26.667 -85.333 -61.667 -144.666 -105 -177.999s-106.666 -50 -189.999 -50zM150.997 683.999l-62 84l184 159h152l186 -159l-61 -83l-201 105z" />
    <glyph glyph-name="Ydieresis" unicode="&#x178;" 
d="M450 0h-200v300l-236 500h199l136 -330l138 330h198l-235 -500v-300zM220 890c-28.667 0 -52.167 5.66699 -70.5 17s-27.5 31 -27.5 59v15c0 28.667 9.16699 49 27.5 61s41.833 18 70.5 18c29.333 0 53 -6 71 -18s27 -32.333 27 -61v-15
c0 -28 -9.16699 -47.667 -27.5 -59s-41.833 -17 -70.5 -17zM480 890c-28.667 0 -52.167 5.66699 -70.5 17s-27.5 31 -27.5 59v15c0 28.667 9.16699 49 27.5 61s41.833 18 70.5 18c29.333 0 53 -6 71 -18s27 -32.333 27 -61v-15c0 -28 -9.16699 -47.667 -27.5 -59
s-41.833 -17 -70.5 -17z" />
    <glyph glyph-name="Zacute" unicode="&#x179;" 
d="M246 900l106 200h250l-225 -200h-131zM650 0h-600v150l392 500h-392v150h600v-150l-388 -500h388v-150z" />
    <glyph glyph-name="zacute" unicode="&#x17a;" 
d="M266 700l106 200h250l-225 -200h-131zM630 0h-560v140l350 320h-350v140h560v-140l-350 -320h350v-140z" />
    <glyph glyph-name="Zdotaccent" unicode="&#x17b;" 
d="M650 0h-600v150l392 500h-392v150h600v-150l-388 -500h388v-150zM350 890c-38 0 -68.833 5.66699 -92.5 17s-35.5 31 -35.5 59v15c0 28.667 11.833 49 35.5 61s54.5 18 92.5 18s68.833 -6 92.5 -18s35.5 -32.333 35.5 -61v-15c0 -28 -12 -47.667 -36 -59
s-54.667 -17 -92 -17z" />
    <glyph glyph-name="zdotaccent" unicode="&#x17c;" 
d="M340 690c-38 0 -68.833 5.66699 -92.5 17s-35.5 31 -35.5 59v15c0 28.667 11.833 49 35.5 61s54.5 18 92.5 18s68.833 -6 92.5 -18s35.5 -32.333 35.5 -61v-15c0 -28 -12 -47.667 -36 -59s-54.667 -17 -92 -17zM630 0h-560v140l350 320h-350v140h560v-140l-350 -320h350
v-140z" />
    <glyph glyph-name="Zcaron" unicode="&#x17d;" 
d="M275 904l-186 159l61 83l201 -105l198 106l62 -84l-184 -159h-152zM650 0h-600v150l392 500h-392v150h600v-150l-388 -500h388v-150z" />
    <glyph glyph-name="zcaron" unicode="&#x17e;" 
d="M275 704l-186 159l61 83l201 -105l198 106l62 -84l-184 -159h-152zM630 0h-560v140l350 320h-350v140h560v-140l-350 -320h350v-140z" />
    <glyph glyph-name="longs" unicode="&#x17f;" 
d="M250 0l0.000976562 460h-120v140h120v31c0 65.333 23 116.333 69 153s110.333 55 193 55c24.667 0 49.5 -2 74.5 -6s49.167 -9.66699 72.5 -17l-20 -126c-19.333 6 -37.333 10.667 -54 14s-32.334 5 -47.001 5c-27.333 0 -48.833 -7.33301 -64.5 -22s-23.5 -39 -23.5 -73
v-614h-200z" />
    <glyph glyph-name="florin" unicode="&#x192;" 
d="M187 -5c-12 0 -24.3311 0.5 -36.998 1.5s-25 2.5 -37 4.5c-12.667 2 -25 4.33301 -37 7s-24 6 -36 10l20 126c10 -3.33301 19.5 -6.16602 28.5 -8.49902s17.833 -4.16602 26.5 -5.49902c8 -1.33301 15.833 -2.5 23.5 -3.5s15.167 -1.5 22.5 -1.5
c14 0 26.333 1.83301 37 5.5s20 9.16699 28 16.5c7.33301 8 13 18 17 30s6 26.333 6 43v170h-199v140h200v101c0 32 6 61 18 87s29.333 48 52 66s50.167 31.667 82.5 41s68.833 14 109.5 14c12 0 24.333 -0.5 37 -1.5s25 -2.5 37 -4.5c12.667 -2 25 -4.33301 37 -7
s24 -6 36 -10l-20 -126c-10 3.33301 -19.5 6.16602 -28.5 8.49902s-17.833 4.16602 -26.5 5.49902c-8 1.33301 -15.833 2.5 -23.5 3.5s-15.167 1.5 -22.5 1.5c-14 0 -26.333 -1.83301 -37 -5.5s-20 -9.16699 -28 -16.5c-7.33301 -8 -13 -18 -17 -30s-6 -26.333 -6 -43v-84
h200v-140h-200v-187c0 -32 -6 -61 -18 -87s-29.333 -48 -52 -66s-50.334 -31.667 -83.001 -41s-69.334 -14 -110.001 -14z" />
    <glyph glyph-name="Aringacute" unicode="&#x1fa;" 
d="M428 330l-73 326l-82 -326h155zM503 0l-41 180h-227l-45 -180h-180l218 800h245l218 -800h-188zM350 875c-62.667 0 -113.332 12.667 -151.999 38s-58 64.333 -58 117v32c0 53.333 19.333 93 58 119s89.334 39 152.001 39c63.333 0 114.166 -13 152.499 -39
s57.5 -65.667 57.5 -119v-32c0 -52.667 -19.333 -91.667 -58 -117s-89.334 -38 -152.001 -38zM350.002 966c23.333 0 41.166 4.83301 53.499 14.5s18.5 26.167 18.5 49.5v32c0 22.667 -6.16699 39.5 -18.5 50.5s-30.166 16.5 -53.499 16.5c-24 0 -42 -5.5 -54 -16.5
s-18 -27.833 -18 -50.5v-32c0 -23.333 6 -39.833 18 -49.5s30 -14.5 54 -14.5zM286.002 1200l106 200h250l-225 -200h-131z" />
    <glyph glyph-name="aringacute" unicode="&#x1fb;" 
d="M283 110c20.667 0 40.668 2.66699 60.001 8s38.333 12.333 57 21v98h-120c-20.667 0 -35.834 -4.5 -45.501 -13.5s-14.5 -27.167 -14.5 -54.5c0 -19.333 5 -34 15 -44s26 -15 48 -15zM230.001 -10c-58 0 -104.166 15.6689 -138.499 47.002s-51.5 74 -51.5 128
c0 56.667 20 99.5 60 128.5s95 43.5 165 43.5h135v68c0 28 -7.33301 46.833 -22 56.5s-36.334 14.5 -65.001 14.5c-30 0 -52.167 -5.83301 -66.5 -17.5s-24.5 -33.167 -30.5 -64.5l-161 25c14.667 71.333 41.5 121 80.5 149s100.5 42 184.5 42
c91.333 0 159.166 -16.833 203.499 -50.5s66.5 -84.834 66.5 -153.501v-216c0 -26 7.83301 -41.833 23.5 -47.5s37.834 -6.83398 66.501 -3.50098v-134c-56 -13.333 -101 -13 -135 1s-57.667 42 -71 84h-30c-21.333 -26.667 -50.833 -50 -88.5 -70s-79.5 -30 -125.5 -30z
M330.002 675.002c-62.667 0 -113.332 12.667 -151.999 38s-58 64.333 -58 117v32c0 53.333 19.333 93 58 119s89.334 39 152.001 39c63.333 0 114.166 -13 152.499 -39s57.5 -65.667 57.5 -119v-32c0 -52.667 -19.333 -91.667 -58 -117s-89.334 -38 -152.001 -38z
M330.004 766.002c23.333 0 41.166 4.83301 53.499 14.5s18.5 26.167 18.5 49.5v32c0 22.667 -6.16699 39.5 -18.5 50.5s-30.166 16.5 -53.499 16.5c-24 0 -42 -5.5 -54 -16.5s-18 -27.833 -18 -50.5v-32c0 -23.333 6 -39.833 18 -49.5s30 -14.5 54 -14.5zM246.004 1000
l106 200h250l-225 -200h-131z" />
    <glyph glyph-name="AEacute" unicode="&#x1fc;" 
d="M336 900l106 200h250l-225 -200h-131zM309 660l-82 -340h103v340h-21zM330 180h-137l-43 -180h-140l203 800h467v-140h-180v-160h160v-140h-160v-220h180v-140h-350v180z" />
    <glyph glyph-name="aeacute" unicode="&#x1fd;" 
d="M306 700l106 200h250l-225 -200h-131zM679 152c-14 -52.667 -37.167 -92.833 -69.5 -120.5s-72.5 -41.5 -120.5 -41.5c-32.667 0 -61.167 7.5 -85.5 22.5s-43.5 37.5 -57.5 67.5h-32c-8.66699 -28 -25 -50 -49 -66s-52.333 -24 -85 -24c-50 0 -89.167 14.667 -117.5 44
s-42.5 70 -42.5 122c0 61.333 16.5 106.833 49.5 136.5s78.167 44.5 135.5 44.5h85v58c0 30.667 -4 51.834 -12 63.501s-20.667 17.5 -38 17.5c-16.667 0 -28.834 -5.83301 -36.501 -17.5s-16.834 -33.167 -27.501 -64.5l-141 25c14.667 66 37.334 114.333 68.001 145
s71.334 46 122.001 46c31.333 0 58.166 -6 80.499 -18s39.5 -32.333 51.5 -61c16.667 26.667 38 46.5 64 59.5s54.333 19.5 85 19.5c50 0 91.5 -19 124.5 -57s49.5 -96.667 49.5 -176v-117h-240v-54c0 -28 3.33301 -50.167 10 -66.5s18.334 -24.5 35.001 -24.5
c13.333 0 24.833 5.16699 34.5 15.5s17.167 26.166 22.5 47.499zM440 399.001l0.000976562 -39h100v37c0 34 -3.83301 58 -11.5 72s-19.834 21 -36.501 21s-29.5 -6.83301 -38.5 -20.5s-13.5 -37.167 -13.5 -70.5zM290.001 139.001v98h-50c-20 0 -35 -5 -45 -15
s-15 -27.667 -15 -53c0 -19.333 3.5 -34 10.5 -44s17.833 -15 32.5 -15c12 0 23.167 2.66699 33.5 8s21.5 12.333 33.5 21z" />
    <glyph glyph-name="Oslashacute" unicode="&#x1fe;" 
d="M231 252l161 404c-6.66699 1.33301 -13.334 2.33301 -20.001 3s-14 1 -22 1c-45.333 0 -76.666 -11.667 -93.999 -35s-26 -62 -26 -116v-222v-18.5c0 -5.66699 0.333008 -11.167 1 -16.5zM350 140c46 0 77.5 11 94.5 33s25.5 60 25.5 114v222v19c0 6 -0.333008 12 -1 18
l-162 -402c6.66699 -1.33301 13.5 -2.33301 20.5 -3s14.5 -1 22.5 -1zM350 -10c-16.667 0 -32.501 0.666992 -47.501 2s-29.5 3.33301 -43.5 6l-39 -98h-140l60 151c-29.333 23.333 -51.666 53.333 -66.999 90s-23 78.667 -23 126v262c0 88 25.667 156.833 77 206.5
s126 74.5 224 74.5c16 0 31.5 -0.666992 46.5 -2s29.167 -3.33301 42.5 -6l40 98h140l-60 -151c30 -24 52.5 -54.667 67.5 -92s22.5 -80 22.5 -128v-262c0 -87.333 -25.5 -155.333 -76.5 -204s-125.5 -73 -223.5 -73zM245.999 900l106 200h250l-225 -200h-131z" />
    <glyph glyph-name="oslashacute" unicode="&#x1ff;" 
d="M230 232c0 -14 1.00098 -26.5 3.00098 -37.5s5 -20.833 9 -29.5l156 310c-6.66699 1.33301 -14.167 2.5 -22.5 3.5s-16.833 1.5 -25.5 1.5c-44.667 0 -75.834 -9.5 -93.501 -28.5s-26.5 -45.5 -26.5 -79.5v-140zM350.001 120c44.667 0 75.833 8.66699 93.5 26
s26.5 46 26.5 86v143c0 12 -1 23 -3 33s-5.33301 19 -10 27l-155 -311c6.66699 -1.33301 14.167 -2.33301 22.5 -3s16.833 -1 25.5 -1zM350 -10c-14.667 0 -30.001 0.666992 -46.001 2s-31 3.33301 -45 6l-49 -98h-120l66 133c-32.667 18.667 -58.5 44.334 -77.5 77.001
s-28.5 68.334 -28.5 107.001v162c0 71.333 26.833 127.666 80.5 168.999s127.167 62 220.5 62c14 0 29 -0.666992 45 -2s31 -3.33301 45 -6l49 98h120l-67 -133c33.333 -18.667 59.5 -44.834 78.5 -78.501s28.5 -70.167 28.5 -109.5v-162
c0 -70.667 -26.667 -126.167 -80 -166.5s-126.666 -60.5 -219.999 -60.5zM265.999 700l106 200h250l-225 -200h-131z" />
    <glyph glyph-name="Scommaaccent" unicode="&#x218;" 
d="M341 -10c-64.667 0 -121.331 7.83203 -169.998 23.499s-92.334 34.834 -131.001 57.501l45 149c40 -23.333 80.167 -42.5 120.5 -57.5s86.5 -22.5 138.5 -22.5c39.333 0 67.666 7.33301 84.999 22s26 34.334 26 59.001c0 30.667 -11 51.667 -33 63s-60 23 -114 35
c-91.333 20.667 -155.5 49 -192.5 85s-55.5 88 -55.5 156c0 70 24 129.167 72 177.5s121.667 72.5 221 72.5c48 0 96.5 -8.5 145.5 -25.5s87.833 -33.833 116.5 -50.5l-35 -142c-40 20 -77.833 36 -113.5 48s-73.167 18 -112.5 18c-32.667 0 -56.667 -6.33301 -72 -19
s-23 -31.334 -23 -56.001s9.33301 -44.334 28 -59.001s58.667 -28.334 120 -41.001c91.333 -19.333 155.5 -47.666 192.5 -84.999s55.5 -92.333 55.5 -165c0 -77.333 -27.667 -137.166 -83 -179.499s-132.333 -63.5 -231 -63.5zM166.003 -300.001l66 200h250l-185 -200h-131
z" />
    <glyph glyph-name="scommaaccent" unicode="&#x219;" 
d="M351 -6c-52 0 -104.169 6.83105 -156.502 20.498s-97.166 32.5 -134.499 56.5l45 119c40 -24.667 82.833 -43.167 128.5 -55.5s86.5 -18.5 122.5 -18.5c29.333 0 50 4.5 62 13.5s18 22.5 18 40.5c0 20.667 -7 35.834 -21 45.501s-37.333 16.167 -70 19.5
c-85.333 8.66699 -150.833 25.334 -196.5 50.001s-68.5 66.334 -68.5 125.001c0 61.333 23.5 110 70.5 146s111.167 54 192.5 54c40.667 0 83.834 -5.83301 129.501 -17.5s86.5 -27.834 122.5 -48.501l-35 -112c-38 19.333 -74.667 33.5 -110 42.5s-68.333 13.5 -99 13.5
c-25.333 0 -43.666 -4.5 -54.999 -13.5s-17 -21.833 -17 -38.5c0 -21.333 10.167 -36 30.5 -44s51.833 -14.667 94.5 -20c79.333 -10 137.666 -28.833 174.999 -56.5s56 -68.5 56 -122.5c0 -61.333 -24.333 -109.833 -73 -145.5s-119 -53.5 -211 -53.5zM175.998 -300.002
l66 200h250l-185 -200h-131z" />
    <glyph glyph-name="Tcommaaccent" unicode="&#x21a;" 
d="M250 0v650h-220v150h640v-150h-220v-650h-200zM176 -300l66 200h250l-185 -200h-131z" />
    <glyph glyph-name="tcommaaccent" unicode="&#x21b;" 
d="M460 -11c-83.333 0 -147.5 19 -192.5 57s-67.5 92 -67.5 162v252h-140v140h140v200h200v-200h220v-140h-220v-224c0 -38 8.16699 -65.167 24.5 -81.5s38.5 -24.5 66.5 -24.5c15.333 0 33.333 1.16699 54 3.5s42 7.83301 64 16.5l20 -136
c-13.333 -6 -35.333 -11.667 -66 -17s-65 -8 -103 -8zM216 -300l66 200h250l-185 -200h-131z" />
    <glyph glyph-name="dotlessj" unicode="&#xf6be;" 
d="M238 -210c-31.333 0 -63 1.5 -95 4.5s-62.667 9.16699 -92 18.5l20 126c26.667 -8 51.667 -13.167 75 -15.5s45.333 -3.5 66 -3.5c40 0 71.333 7.33301 94 22s34 39 34 73v445h-249v140h449v-602c0 -64.667 -26.833 -115.5 -80.5 -152.5s-127.5 -55.5 -221.5 -55.5z" />
    <glyph glyph-name="dotlessj" unicode="&#x237;" 
d="M238 -210c-31.333 0 -63 1.5 -95 4.5s-62.667 9.16699 -92 18.5l20 126c26.667 -8 51.667 -13.167 75 -15.5s45.333 -3.5 66 -3.5c40 0 71.333 7.33301 94 22s34 39 34 73v445h-249v140h449v-602c0 -64.667 -26.833 -115.5 -80.5 -152.5s-127.5 -55.5 -221.5 -55.5z" />
    <glyph glyph-name="quoteleft" unicode="&#x2018;" 
d="M159 350l251 450h127l-95 -450h-283z" />
    <glyph glyph-name="quoteleft" unicode="&#x2bb;" 
d="M159 350l251 450h127l-95 -450h-283z" />
    <glyph glyph-name="circumflex" unicode="&#x2c6;" 
d="M151 684l-62 84l184 159h152l186 -159l-61 -83l-201 105z" />
    <glyph glyph-name="caron" unicode="&#x2c7;" 
d="M275 704l-186 159l61 83l201 -105l198 106l62 -84l-184 -159h-152z" />
    <glyph glyph-name="breve" unicode="&#x2d8;" 
d="M350 693c-90 0 -156.831 19.667 -200.498 59s-65.834 99.666 -66.501 180.999h160c0.666992 -45.333 9 -76.833 25 -94.5s43.333 -26.5 82 -26.5s66 8.83301 82 26.5s24.333 49.167 25 94.5h160c-0.666992 -81.333 -22.834 -141.666 -66.501 -180.999
s-110.5 -59 -200.5 -59z" />
    <glyph glyph-name="dotaccent" unicode="&#x2d9;" 
d="M350 690c-38 0 -68.833 5.66699 -92.5 17s-35.5 31 -35.5 59v15c0 28.667 11.833 49 35.5 61s54.5 18 92.5 18s68.833 -6 92.5 -18s35.5 -32.333 35.5 -61v-15c0 -28 -12 -47.667 -36 -59s-54.667 -17 -92 -17z" />
    <glyph glyph-name="ring" unicode="&#x2da;" 
d="M350 675c-62.667 0 -113.332 12.667 -151.999 38s-58 64.333 -58 117v32c0 53.333 19.333 93 58 119s89.334 39 152.001 39c63.333 0 114.166 -13 152.499 -39s57.5 -65.667 57.5 -119v-32c0 -52.667 -19.333 -91.667 -58 -117s-89.334 -38 -152.001 -38zM350.002 766
c23.333 0 41.166 4.83301 53.499 14.5s18.5 26.167 18.5 49.5v32c0 22.667 -6.16699 39.5 -18.5 50.5s-30.166 16.5 -53.499 16.5c-24 0 -42 -5.5 -54 -16.5s-18 -27.833 -18 -50.5v-32c0 -23.333 6 -39.833 18 -49.5s30 -14.5 54 -14.5z" />
    <glyph glyph-name="ogonek" unicode="&#x2db;" 
d="M366 -224c-56 0 -100.167 10.666 -132.5 31.999s-48.5 53.333 -48.5 96c0 44 17 81.167 51 111.5s71 50.833 111 61.5l27 -54c-22.667 -14 -36.5 -27.333 -41.5 -40s-7.5 -24.667 -7.5 -36c0 -17.333 5.83301 -30.166 17.5 -38.499s30.834 -12.5 57.501 -12.5
c12 0 26 0.833008 42 2.5s33.667 4.16699 53 7.5v-116c-24 -4.66699 -46.833 -8.16699 -68.5 -10.5s-41.834 -3.5 -60.501 -3.5z" />
    <glyph glyph-name="tilde" unicode="&#x2dc;" 
d="M446 710c-32.667 0 -57.665 5.00098 -74.998 15.001s-31.333 20.667 -42 32l-30 32.5c-9.33301 9.66699 -20.333 14.5 -33 14.5c-10.667 0 -20.334 -4.83301 -29.001 -14.5s-12.667 -29.834 -12 -60.501v-9h-127v15c0 55.333 14 101.666 42 138.999s66.667 56 116 56
c32 0 56.667 -5 74 -15s31.666 -20.667 42.999 -32l31 -33c9.33301 -10 19.666 -15 30.999 -15c10.667 0 20.334 4.83301 29.001 14.5s12.667 29.834 12 60.501v9h127v-15c0 -54.667 -14 -100.667 -42 -138s-66.333 -56 -115 -56z" />
    <glyph glyph-name="hungarumlaut" unicode="&#x2dd;" 
d="M386 700l46 200h190l-135 -200h-101zM156 700l46 200h190l-135 -200h-101z" />
    <glyph glyph-name="gravecmb" unicode="&#x300;" horiz-adv-x="0" 
d="M-19 700l-225 200h250l106 -200h-131z" />
    <glyph glyph-name="acutecmb" unicode="&#x301;" horiz-adv-x="0" 
d="M-134 700l106 200h250l-225 -200h-131z" />
    <glyph glyph-name="circumflexcmb" unicode="&#x302;" horiz-adv-x="0" 
d="M-199 684l-62 84l184 159h152l186 -159l-61 -83l-201 105z" />
    <glyph glyph-name="tildecmb" unicode="&#x303;" horiz-adv-x="0" 
d="M96 710c-32.667 0 -57.665 5.00098 -74.998 15.001s-31.333 20.667 -42 32l-30 32.5c-9.33301 9.66699 -20.333 14.5 -33 14.5c-10.667 0 -20.334 -4.83301 -29.001 -14.5s-12.667 -29.834 -12 -60.501v-9h-127v15c0 55.333 14 101.666 42 138.999s66.667 56 116 56
c32 0 56.667 -5 74 -15s31.666 -20.667 42.999 -32l31 -33c9.33301 -10 19.666 -15 30.999 -15c10.667 0 20.334 4.83301 29.001 14.5s12.667 29.834 12 60.501v9h127v-15c0 -54.667 -14 -100.667 -42 -138s-66.333 -56 -115 -56z" />
    <glyph glyph-name="macroncmb" unicode="&#x304;" horiz-adv-x="0" 
d="M-225 725v150h450v-150h-450z" />
    <glyph glyph-name="brevecmb" unicode="&#x306;" horiz-adv-x="0" 
d="M0 693c-90 0 -156.831 19.667 -200.498 59s-65.834 99.666 -66.501 180.999h160c0.666992 -45.333 9 -76.833 25 -94.5s43.333 -26.5 82 -26.5s66 8.83301 82 26.5s24.333 49.167 25 94.5h160c-0.666992 -81.333 -22.834 -141.666 -66.501 -180.999
s-110.5 -59 -200.5 -59z" />
    <glyph glyph-name="dotaccentcmb" unicode="&#x307;" horiz-adv-x="0" 
d="M0 690c-38 0 -68.833 5.66699 -92.5 17s-35.5 31 -35.5 59v15c0 28.667 11.833 49 35.5 61s54.5 18 92.5 18s68.833 -6 92.5 -18s35.5 -32.333 35.5 -61v-15c0 -28 -12 -47.667 -36 -59s-54.667 -17 -92 -17z" />
    <glyph glyph-name="dieresiscmb" unicode="&#x308;" horiz-adv-x="0" 
d="M-130 690c-28.667 0 -52.167 5.66699 -70.5 17s-27.5 31 -27.5 59v15c0 28.667 9.16699 49 27.5 61s41.833 18 70.5 18c29.333 0 53 -6 71 -18s27 -32.333 27 -61v-15c0 -28 -9.16699 -47.667 -27.5 -59s-41.833 -17 -70.5 -17zM130 690
c-28.667 0 -52.167 5.66699 -70.5 17s-27.5 31 -27.5 59v15c0 28.667 9.16699 49 27.5 61s41.833 18 70.5 18c29.333 0 53 -6 71 -18s27 -32.333 27 -61v-15c0 -28 -9.16699 -47.667 -27.5 -59s-41.833 -17 -70.5 -17z" />
    <glyph glyph-name="ringcmb" unicode="&#x30a;" horiz-adv-x="0" 
d="M0 675c-62.667 0 -113.332 12.667 -151.999 38s-58 64.333 -58 117v32c0 53.333 19.333 93 58 119s89.334 39 152.001 39c63.333 0 114.166 -13 152.499 -39s57.5 -65.667 57.5 -119v-32c0 -52.667 -19.333 -91.667 -58 -117s-89.334 -38 -152.001 -38zM0.00195312 766
c23.333 0 41.166 4.83301 53.499 14.5s18.5 26.167 18.5 49.5v32c0 22.667 -6.16699 39.5 -18.5 50.5s-30.166 16.5 -53.499 16.5c-24 0 -42 -5.5 -54 -16.5s-18 -27.833 -18 -50.5v-32c0 -23.333 6 -39.833 18 -49.5s30 -14.5 54 -14.5z" />
    <glyph glyph-name="hungarumlautcmb" unicode="&#x30b;" horiz-adv-x="0" 
d="M36 700l46 200h190l-135 -200h-101zM-194 700l46 200h190l-135 -200h-101z" />
    <glyph glyph-name="caroncmb" unicode="&#x30c;" horiz-adv-x="0" 
d="M-75 704l-186 159l61 83l201 -105l198 106l62 -84l-184 -159h-152z" />
    <glyph glyph-name="commaturnedabovecmb" unicode="&#x312;" horiz-adv-x="0" 
d="M-154 700l185 200h131l-66 -200h-250z" />
    <glyph glyph-name="commaaccentcmb" unicode="&#x326;" horiz-adv-x="0" 
d="M-164 -300l66 200h250l-185 -200h-131z" />
    <glyph glyph-name="cedillacmb" unicode="&#x327;" horiz-adv-x="0" 
d="M-30 0l20.001 41.999c57.333 -5.33301 104 -17.166 140 -35.499s54 -49.833 54 -94.5c0 -50 -22.333 -85.5 -67 -106.5s-94.334 -31.5 -149.001 -31.5c-64 0 -116.333 10.5 -157 31.5s-62.667 55.833 -66 104.5l168 10c1.33301 -12.667 5.5 -21.5 12.5 -26.5
s18.5 -7.5 34.5 -7.5c18 0 31.5 3.5 40.5 10.5s13.5 21.833 13.5 44.5c0 16.667 -3 29.5 -9 38.5s-17.667 15.833 -35 20.5z" />
    <glyph glyph-name="ogonekcmb" unicode="&#x328;" horiz-adv-x="0" 
d="M16 -224c-56 0 -100.167 10.666 -132.5 31.999s-48.5 53.333 -48.5 96c0 44 17 81.167 51 111.5s71 50.833 111 61.5l27 -54c-22.667 -14 -36.5 -27.333 -41.5 -40s-7.5 -24.667 -7.5 -36c0 -17.333 5.83301 -30.166 17.5 -38.499s30.834 -12.5 57.501 -12.5
c12 0 26 0.833008 42 2.5s33.667 4.16699 53 7.5v-116c-24 -4.66699 -46.833 -8.16699 -68.5 -10.5s-41.834 -3.5 -60.501 -3.5z" />
    <glyph glyph-name="tonos" unicode="&#x384;" 
d="M256 700l46 200h240l-165 -200h-121z" />
    <glyph glyph-name="dieresistonos" unicode="&#x385;" 
d="M261 700l46 200h170l-105 -200h-111zM125 690c-26 0 -47.167 5.66699 -63.5 17s-24.5 31 -24.5 59v15c0 28.667 8.16699 49 24.5 61s37.5 18 63.5 18c26.667 0 48 -6 64 -18s24 -32.333 24 -61v-15c0 -28 -8.33301 -47.667 -25 -59s-37.667 -17 -63 -17zM575 690
c-26 0 -47.167 5.66699 -63.5 17s-24.5 31 -24.5 59v15c0 28.667 8.16699 49 24.5 61s37.5 18 63.5 18c26.667 0 48 -6 64 -18s24 -32.333 24 -61v-15c0 -28 -8.33301 -47.667 -25 -59s-37.667 -17 -63 -17z" />
    <glyph glyph-name="Alphatonos" unicode="&#x386;" 
d="M428 330l-73 326l-82 -326h155zM503 0l-41 180h-227l-45 -180h-180l218 800h245l218 -800h-188zM-33 700l46 200h240l-165 -200h-121z" />
    <glyph glyph-name="anoteleia" unicode="&#x387;" 
d="M351 245c-45.333 0 -81.833 9.83301 -109.5 29.5s-41.5 46.834 -41.5 81.501v87c0 35.333 13.833 63 41.5 83s64.167 30 109.5 30c44.667 0 80.667 -10 108 -30s41 -47.667 41 -83v-87c0 -34.667 -14 -61.834 -42 -81.501s-63.667 -29.5 -107 -29.5z" />
    <glyph glyph-name="Epsilontonos" unicode="&#x388;" 
d="M50 0v800h600v-150h-400v-150h350v-150h-350v-200h400v-150h-600zM-183 700l46 200h240l-165 -200h-121z" />
    <glyph glyph-name="Etatonos" unicode="&#x389;" 
d="M-203 700l46 200h240l-165 -200h-121zM50 0v800h200v-280h200v280h200v-800h-200v370h-200v-370h-200z" />
    <glyph glyph-name="Iotatonos" unicode="&#x38a;" 
d="M-203 700l46 200h240l-165 -200h-121zM50 0v150h200v500h-200v150h600v-150h-200v-500h200v-150h-600z" />
    <glyph glyph-name="Omicrontonos" unicode="&#x38c;" 
d="M-83 700l46 200h240l-165 -200h-121zM350 -10c-98 0 -172.5 22.667 -223.5 68s-76.5 108.333 -76.5 189v302c0 81.333 25.667 145.166 77 191.499s126 69.5 224 69.5s172.333 -23.167 223 -69.5s76 -110.166 76 -191.499v-302c0 -80.667 -25.5 -143.667 -76.5 -189
s-125.5 -68 -223.5 -68zM350 140c36 0 61.667 9.66699 77 29s23 52 23 98v262c0 46 -7.66699 79.333 -23 100s-41 31 -77 31s-61.667 -10.333 -77 -31s-23 -54 -23 -100v-262c0 -46 7.66699 -78.667 23 -98s41 -29 77 -29z" />
    <glyph glyph-name="Upsilontonos" unicode="&#x38e;" 
d="M450 0h-200v300l-236 500h199l136 -330l138 330h198l-235 -500v-300zM-203 700l46 200h240l-165 -200h-121z" />
    <glyph glyph-name="Omegatonos" unicode="&#x38f;" 
d="M-123 700l46 200h240l-165 -200h-121zM320 0h-280v120h110v90c-35.333 20 -62.5 47.167 -81.5 81.5s-28.5 74.166 -28.5 119.499v118c0 91.333 26.667 161 80 209s130 72 230 72s176.667 -24 230 -72s80 -117.667 80 -209v-118c0 -45.333 -9.5 -85.166 -28.5 -119.499
s-46.167 -61.5 -81.5 -81.5v-90h110v-120h-280v230c26 8 45.833 27.5 59.5 58.5s20.5 71.833 20.5 122.5v128c0 44 -9.5 75.167 -28.5 93.5s-46.167 27.5 -81.5 27.5s-62.5 -9.16699 -81.5 -27.5s-28.5 -49.5 -28.5 -93.5v-128c0 -50.667 6.83301 -91.5 20.5 -122.5
s33.5 -50.5 59.5 -58.5v-230z" />
    <glyph glyph-name="iotadieresistonos" unicode="&#x390;" 
d="M251 700l46 200h170l-105 -200h-111zM115 690c-26 0 -47.167 5.66699 -63.5 17s-24.5 31 -24.5 59v15c0 28.667 8.16699 49 24.5 61s37.5 18 63.5 18c26.667 0 48 -6 64 -18s24 -32.333 24 -61v-15c0 -28 -8.33301 -47.667 -25 -59s-37.667 -17 -63 -17zM565 690
c-26 0 -47.167 5.66699 -63.5 17s-24.5 31 -24.5 59v15c0 28.667 8.16699 49 24.5 61s37.5 18 63.5 18c26.667 0 48 -6 64 -18s24 -32.333 24 -61v-15c0 -28 -8.33301 -47.667 -25 -59s-37.667 -17 -63 -17zM485 -8c-77.333 0 -139.167 19.5 -185.5 58.5
s-69.5 88.5 -69.5 148.5v261h-160v140h360v-361c0 -34 8.16699 -59 24.5 -75s38.5 -24 66.5 -24c20 0 38 2.16699 54 6.5s30.667 8.83301 44 13.5l30 -136c-30 -10.667 -58.667 -18.667 -86 -24s-53.333 -8 -78 -8z" />
    <glyph glyph-name="Alpha" unicode="&#x391;" 
d="M428 330l-73 326l-82 -326h155zM503 0l-41 180h-227l-45 -180h-180l218 800h245l218 -800h-188z" />
    <glyph glyph-name="Beta" unicode="&#x392;" 
d="M50 0l0.000976562 800h314c90 0 156.5 -15.333 199.5 -46s64.5 -78 64.5 -142v-34c0 -44 -9.33301 -76.5 -28 -97.5s-49 -35.167 -91 -42.5v-29c45.333 -4.66699 80.166 -20.167 104.499 -46.5s36.5 -59.5 36.5 -99.5v-52c0 -71.333 -23.5 -124.333 -70.5 -159
s-119.833 -52 -218.5 -52h-311zM250.001 480h94c31.333 0 53.5 5 66.5 15s19.5 27.333 19.5 52v48c0 24 -6.5 40.833 -19.5 50.5s-35.167 14.5 -66.5 14.5h-94v-180zM250.001 140h90c40 0 68.333 6 85 18s25 33 25 63v52c0 28.667 -8.33301 49 -25 61s-45 18 -85 18h-90
v-212z" />
    <glyph glyph-name="Gamma" unicode="&#x393;" 
d="M100 0v800h570v-150h-370v-650h-200z" />
    <glyph glyph-name="Delta" unicode="&#x394;" 
d="M30 0v150l183 650h285l172 -650v-150h-640zM484 150l-134 528l-142 -528h276z" />
    <glyph glyph-name="Epsilon" unicode="&#x395;" 
d="M50 0v800h600v-150h-400v-150h350v-150h-350v-200h400v-150h-600z" />
    <glyph glyph-name="Zeta" unicode="&#x396;" 
d="M650 0h-600v150l392 500h-392v150h600v-150l-388 -500h388v-150z" />
    <glyph glyph-name="Eta" unicode="&#x397;" 
d="M50 0v800h200v-280h200v280h200v-800h-200v370h-200v-370h-200z" />
    <glyph glyph-name="Theta" unicode="&#x398;" 
d="M350 -10c-96 0 -170 24 -222 72s-78 116.333 -78 205v262c0 89.333 26.167 158.5 78.5 207.5s126.5 73.5 222.5 73.5c95.333 0 169 -24.5 221 -73.5s78 -118.167 78 -207.5v-262c0 -88.667 -26 -157 -78 -205s-126 -72 -222 -72zM350 140c42.667 0 75 11.333 97 34
s33 60.334 33 113.001v222c0 52.667 -10.833 91 -32.5 115s-54.167 36 -97.5 36s-75.833 -12 -97.5 -36s-32.5 -62.333 -32.5 -115v-222c0 -52.667 11 -90.334 33 -113.001s54.333 -34 97 -34zM270 340v130h160v-130h-160z" />
    <glyph glyph-name="Iota" unicode="&#x399;" 
d="M50 0v150h200v500h-200v150h600v-150h-200v-500h200v-150h-600z" />
    <glyph glyph-name="Kappa" unicode="&#x39a;" 
d="M250 335v-335h-200v800h200v-315h40l190 315h205l-246 -370l243 -430h-202l-187 335h-43z" />
    <glyph glyph-name="Lambda" unicode="&#x39b;" 
d="M503 0l-148 656l-165 -656h-180l218 800h245l218 -800h-188z" />
    <glyph glyph-name="Mu" unicode="&#x39c;" 
d="M288 250l-95 260l22 -510h-175v800h185l128 -371l127 371h180v-800h-175l21 504l-92 -254h-126z" />
    <glyph glyph-name="Nu" unicode="&#x39d;" 
d="M417 0l-197 524v-524h-170v800h217l213 -568v568h170v-800h-233z" />
    <glyph glyph-name="Xi" unicode="&#x39e;" 
d="M50 650v150h600v-150h-600zM75 350v150h550v-150h-550zM50 0v150h600v-150h-600z" />
    <glyph glyph-name="Omicron" unicode="&#x39f;" 
d="M350 -10c-98 0 -172.5 22.667 -223.5 68s-76.5 108.333 -76.5 189v302c0 81.333 25.667 145.166 77 191.499s126 69.5 224 69.5s172.333 -23.167 223 -69.5s76 -110.166 76 -191.499v-302c0 -80.667 -25.5 -143.667 -76.5 -189s-125.5 -68 -223.5 -68zM350 140
c36 0 61.667 9.66699 77 29s23 52 23 98v262c0 46 -7.66699 79.333 -23 100s-41 31 -77 31s-61.667 -10.333 -77 -31s-23 -54 -23 -100v-262c0 -46 7.66699 -78.667 23 -98s41 -29 77 -29z" />
    <glyph glyph-name="Pi" unicode="&#x3a0;" 
d="M50 0v800h600v-800h-200v650h-200v-650h-200z" />
    <glyph glyph-name="Rho" unicode="&#x3a1;" 
d="M50 0l-0.000976562 800h312c88.667 0 158.834 -18.333 210.501 -55s77.5 -94.667 77.5 -174v-111c0 -76 -25.5 -131.333 -76.5 -166s-121.167 -52 -210.5 -52h-113v-242h-200zM249.999 390l100 0.000976562c33.333 0 58.333 5.66699 75 17s25 34.666 25 69.999v81
c0 36 -8.33301 60.333 -25 73s-41.667 19 -75 19h-100v-260z" />
    <glyph glyph-name="Sigma" unicode="&#x3a3;" 
d="M620 0h-550v150l297 259l-297 241v150h550v-150h-348l228 -175v-118l-240 -207h360v-150z" />
    <glyph glyph-name="Tau" unicode="&#x3a4;" 
d="M250 0v650h-220v150h640v-150h-220v-650h-200z" />
    <glyph glyph-name="Upsilon" unicode="&#x3a5;" 
d="M450 0h-200v300l-236 500h199l136 -330l138 330h198l-235 -500v-300z" />
    <glyph glyph-name="Phi" unicode="&#x3a6;" 
d="M436 90h-7.00098v-100h-159v100h-7c-72 0 -127.667 23.167 -167 69.5s-59 112.166 -59 197.499v82c0 86 19.833 152.667 59.5 200s95.834 71 168.501 71h5v100h159v-100h7c72 0 127.833 -23.667 167.5 -71s59.5 -114 59.5 -200v-82
c0 -85.333 -19.833 -151.166 -59.5 -197.499s-95.5 -69.5 -167.5 -69.5zM445.999 570h-22v-340h22c20.667 0 34.834 11.333 42.501 34s11.5 53.667 11.5 93v82c0 38.667 -3.83301 70.167 -11.5 94.5s-21.834 36.5 -42.501 36.5zM258.999 230h16v340h-16
c-22.667 0 -38.334 -12.167 -47.001 -36.5s-13 -55.833 -13 -94.5v-82c0 -39.333 4.33301 -70.333 13 -93s24.334 -34 47.001 -34z" />
    <glyph glyph-name="Chi" unicode="&#x3a7;" 
d="M479 0l-134 249l-130 -249h-191l234 412l-209 388h204l116 -221l116 221h191l-220 -387l217 -413h-194z" />
    <glyph glyph-name="Psi" unicode="&#x3a8;" 
d="M430 0h-160v186c-75.333 11.333 -132.833 40 -172.5 86s-59.5 107.667 -59.5 185v343h162v-333c0 -40 5.66699 -71.167 17 -93.5s29 -35.833 53 -40.5v467h160v-467c24 4.66699 41.667 18.167 53 40.5s17 53.5 17 93.5v333h162v-343c0 -77.333 -19.833 -139 -59.5 -185
s-97.167 -74.667 -172.5 -86v-186z" />
    <glyph glyph-name="Omega" unicode="&#x3a9;" 
d="M320 0h-280v120h110v90c-35.333 20 -62.5 47.167 -81.5 81.5s-28.5 74.166 -28.5 119.499v118c0 91.333 26.667 161 80 209s130 72 230 72s176.667 -24 230 -72s80 -117.667 80 -209v-118c0 -45.333 -9.5 -85.166 -28.5 -119.499s-46.167 -61.5 -81.5 -81.5v-90h110v-120
h-280v230c26 8 45.833 27.5 59.5 58.5s20.5 71.833 20.5 122.5v128c0 44 -9.5 75.167 -28.5 93.5s-46.167 27.5 -81.5 27.5s-62.5 -9.16699 -81.5 -27.5s-28.5 -49.5 -28.5 -93.5v-128c0 -50.667 6.83301 -91.5 20.5 -122.5s33.5 -50.5 59.5 -58.5v-230z" />
    <glyph glyph-name="Iotadieresis" unicode="&#x3aa;" 
d="M50 0v150h200v500h-200v150h600v-150h-200v-500h200v-150h-600zM220 890c-28.667 0 -52.167 5.66699 -70.5 17s-27.5 31 -27.5 59v15c0 28.667 9.16699 49 27.5 61s41.833 18 70.5 18c29.333 0 53 -6 71 -18s27 -32.333 27 -61v-15c0 -28 -9.16699 -47.667 -27.5 -59
s-41.833 -17 -70.5 -17zM480 890c-28.667 0 -52.167 5.66699 -70.5 17s-27.5 31 -27.5 59v15c0 28.667 9.16699 49 27.5 61s41.833 18 70.5 18c29.333 0 53 -6 71 -18s27 -32.333 27 -61v-15c0 -28 -9.16699 -47.667 -27.5 -59s-41.833 -17 -70.5 -17z" />
    <glyph glyph-name="Upsilondieresis" unicode="&#x3ab;" 
d="M450 0h-200v300l-236 500h199l136 -330l138 330h198l-235 -500v-300zM220 890c-28.667 0 -52.167 5.66699 -70.5 17s-27.5 31 -27.5 59v15c0 28.667 9.16699 49 27.5 61s41.833 18 70.5 18c29.333 0 53 -6 71 -18s27 -32.333 27 -61v-15
c0 -28 -9.16699 -47.667 -27.5 -59s-41.833 -17 -70.5 -17zM480 890c-28.667 0 -52.167 5.66699 -70.5 17s-27.5 31 -27.5 59v15c0 28.667 9.16699 49 27.5 61s41.833 18 70.5 18c29.333 0 53 -6 71 -18s27 -32.333 27 -61v-15c0 -28 -9.16699 -47.667 -27.5 -59
s-41.833 -17 -70.5 -17z" />
    <glyph glyph-name="alphatonos" unicode="&#x3ac;" 
d="M320 141c14 0 27.667 4.50098 41 13.501s26.333 21.167 39 36.5v221c-14 14.667 -27.5 26.667 -40.5 36s-27.5 14 -43.5 14s-29.333 -7.16699 -40 -21.5s-16 -36.833 -16 -67.5v-151c0 -30.667 5.5 -51.834 16.5 -63.501s25.5 -17.5 43.5 -17.5zM470 131.001
l-29.998 -0.000976562c-18.667 -45.333 -45.334 -80 -80.001 -104s-75 -36 -121 -36c-54.667 0 -98.167 18 -130.5 54s-48.5 84.667 -48.5 146v199c0 64 15 117 45 159s68 63 114 63c35.333 0 65.166 -9.66699 89.499 -29s44.833 -49.666 61.5 -90.999h30v108h200v-390
c0 -30.667 5 -50.834 15 -60.501s28.333 -13.167 55 -10.5v-134c-56.667 -13.333 -100.667 -10.166 -132 9.50098s-54 58.5 -68 116.5zM326.002 700l46 200h240l-165 -200h-121z" />
    <glyph glyph-name="epsilontonos" unicode="&#x3ad;" 
d="M363 -10c-102.667 0 -178.833 13.499 -228.5 40.499s-74.5 68.5 -74.5 124.5v20c0 30.667 13 57.334 39 80.001s65 35.667 117 39v22c-42.667 2.66699 -76.334 13.5 -101.001 32.5s-37 44.833 -37 77.5v24c0 57.333 25.5 98.333 76.5 123s120.5 37 208.5 37
c89.333 0 156.5 -15.667 201.5 -47s70.167 -82.333 75.5 -153l-179 -8c-3.33301 32.667 -11.666 56 -24.999 70s-37.666 21 -72.999 21c-32 0 -54.167 -4.5 -66.5 -13.5s-18.5 -23.833 -18.5 -44.5v-14c0 -24.667 6.66699 -41.167 20 -49.5s35.666 -12.5 66.999 -12.5h56
v-100h-56c-46.667 0 -75.834 -5.5 -87.501 -16.5s-17.5 -26.833 -17.5 -47.5v-10c0 -20.667 6.16699 -37.167 18.5 -49.5s40.5 -18.5 84.5 -18.5c52 0 83.333 8 94 24s18 38.667 22 68l179 -7c-5.33301 -70 -27.666 -122.833 -66.999 -158.5s-115.333 -53.5 -228 -53.5z
M276.001 699.999l46 200h240l-165 -200h-121z" />
    <glyph glyph-name="etatonos" unicode="&#x3ae;" 
d="M336 700l46 200h240l-165 -200h-121zM440 -200v594.001c0 21.333 -5.16699 37.666 -15.5 48.999s-24.833 17 -43.5 17c-20.667 0 -42 -5.5 -64 -16.5s-41 -27.5 -57 -49.5v-394h-200v600h200v-110h30c16 38 41 67.5 75 88.5s73.333 31.5 118 31.5
c50 0 88.667 -15.833 116 -47.5s41 -76.167 41 -133.5v-629h-200z" />
    <glyph glyph-name="iotatonos" unicode="&#x3af;" 
d="M261 700l46 200h240l-165 -200h-121zM485 -8c-77.333 0 -139.167 19.5 -185.5 58.5s-69.5 88.5 -69.5 148.5v261h-160v140h360v-361c0 -34 8.16699 -59 24.5 -75s38.5 -24 66.5 -24c20 0 38 2.16699 54 6.5s30.667 8.83301 44 13.5l30 -136
c-30 -10.667 -58.667 -18.667 -86 -24s-53.333 -8 -78 -8z" />
    <glyph glyph-name="upsilondieresistonos" unicode="&#x3b0;" 
d="M351 -10c-91.333 0 -162.665 23 -213.998 69s-77 110 -77 192v349h200v-342c0 -41.333 7.16699 -71.333 21.5 -90s37.166 -28 68.499 -28s54.166 9.16699 68.499 27.5s21.5 47.5 21.5 87.5v345h200v-349c0 -82 -25.333 -146 -76 -192s-121.667 -69 -213 -69zM261.001 700
l46 200h170l-105 -200h-111zM125.001 690c-26 0 -47.167 5.66699 -63.5 17s-24.5 31 -24.5 59v15c0 28.667 8.16699 49 24.5 61s37.5 18 63.5 18c26.667 0 48 -6 64 -18s24 -32.333 24 -61v-15c0 -28 -8.33301 -47.667 -25 -59s-37.667 -17 -63 -17zM575.001 690
c-26 0 -47.167 5.66699 -63.5 17s-24.5 31 -24.5 59v15c0 28.667 8.16699 49 24.5 61s37.5 18 63.5 18c26.667 0 48 -6 64 -18s24 -32.333 24 -61v-15c0 -28 -8.33301 -47.667 -25 -59s-37.667 -17 -63 -17z" />
    <glyph glyph-name="alpha" unicode="&#x3b1;" 
d="M320 141c14 0 27.667 4.50098 41 13.501s26.333 21.167 39 36.5v221c-14 14.667 -27.5 26.667 -40.5 36s-27.5 14 -43.5 14s-29.333 -7.16699 -40 -21.5s-16 -36.833 -16 -67.5v-151c0 -30.667 5.5 -51.834 16.5 -63.501s25.5 -17.5 43.5 -17.5zM470 131.001
l-29.998 -0.000976562c-18.667 -45.333 -45.334 -80 -80.001 -104s-75 -36 -121 -36c-54.667 0 -98.167 18 -130.5 54s-48.5 84.667 -48.5 146v199c0 64 15 117 45 159s68 63 114 63c35.333 0 65.166 -9.66699 89.499 -29s44.833 -49.666 61.5 -90.999h30v108h200v-390
c0 -30.667 5 -50.834 15 -60.501s28.333 -13.167 55 -10.5v-134c-56.667 -13.333 -100.667 -10.166 -132 9.50098s-54 58.5 -68 116.5z" />
    <glyph glyph-name="beta" unicode="&#x3b2;" 
d="M350 138c21.333 0 41.334 7.16699 60.001 21.5s28 41.5 28 81.5v22c0 42 -8.5 70.667 -25.5 86s-41.167 23 -72.5 23h-30v108h24c26 0 45.167 5.83301 57.5 17.5s18.5 31.5 18.5 59.5v18c0 32 -6.16699 54.167 -18.5 66.5s-31.5 18.5 -57.5 18.5
c-28 0 -47.333 -8.33301 -58 -25s-16 -43 -16 -79v-390c13.333 -8.66699 27.166 -15.5 41.499 -20.5s30.5 -7.5 48.5 -7.5zM392.001 -10c-24.667 0 -47.999 1.66797 -69.999 5.00098s-42.667 8.33301 -62 15v-210h-200v773c0 75.333 23.833 133.666 71.5 174.999
s115.167 62 202.5 62c84.667 0 151.5 -17.667 200.5 -53s73.5 -83.333 73.5 -144v-16c0 -40 -13.333 -72.5 -40 -97.5s-66.334 -42.167 -119.001 -51.5v-29c60 -6 106.833 -24.333 140.5 -55s50.5 -72 50.5 -124v-31c0 -68 -22 -121.5 -66 -160.5s-104.667 -58.5 -182 -58.5
z" />
    <glyph glyph-name="gamma" unicode="&#x3b3;" 
d="M470 -200h-240l20 220l-226 580h200l126 -431l125 431h200l-225 -580z" />
    <glyph glyph-name="delta" unicode="&#x3b4;" 
d="M350 -10c-92.667 0 -164.168 19.667 -214.501 59s-75.5 95.333 -75.5 168v92c0 38 10.5 70.5 31.5 97.5s54.5 50.167 100.5 69.5c-37.333 18 -63.666 37.5 -78.999 58.5s-23 47.833 -23 80.5c0 64 21.667 110.833 65 140.5s107.333 44.5 192 44.5h205v-140h-205
c-20.667 0 -36.5 -3 -47.5 -9s-16.5 -18 -16.5 -36c0 -13.333 8.33301 -25 25 -35s53.334 -24.667 110.001 -44c81.333 -28 138.666 -58.5 171.999 -91.5s50 -81.5 50 -145.5v-82c0 -72.667 -25.167 -128.667 -75.5 -168s-121.833 -59 -214.5 -59zM349.999 130
c30 0 52.501 6.83398 67.501 20.501s22.5 35.834 22.5 66.501v82c0 33.333 -7.66699 58.333 -23 75s-48 34.334 -98 53.001c-18 -10.667 -32.333 -25.334 -43 -44.001s-16 -43.334 -16 -74.001v-92c0 -30.667 7.66699 -52.834 23 -66.501s37.666 -20.5 66.999 -20.5z" />
    <glyph glyph-name="epsilon" unicode="&#x3b5;" 
d="M363 -10c-102.667 0 -178.833 13.499 -228.5 40.499s-74.5 68.5 -74.5 124.5v20c0 30.667 13 57.334 39 80.001s65 35.667 117 39v22c-42.667 2.66699 -76.334 13.5 -101.001 32.5s-37 44.833 -37 77.5v24c0 57.333 25.5 98.333 76.5 123s120.5 37 208.5 37
c89.333 0 156.5 -15.667 201.5 -47s70.167 -82.333 75.5 -153l-179 -8c-3.33301 32.667 -11.666 56 -24.999 70s-37.666 21 -72.999 21c-32 0 -54.167 -4.5 -66.5 -13.5s-18.5 -23.833 -18.5 -44.5v-14c0 -24.667 6.66699 -41.167 20 -49.5s35.666 -12.5 66.999 -12.5h56
v-100h-56c-46.667 0 -75.834 -5.5 -87.501 -16.5s-17.5 -26.833 -17.5 -47.5v-10c0 -20.667 6.16699 -37.167 18.5 -49.5s40.5 -18.5 84.5 -18.5c52 0 83.333 8 94 24s18 38.667 22 68l179 -7c-5.33301 -70 -27.666 -122.833 -66.999 -158.5s-115.333 -53.5 -228 -53.5z" />
    <glyph glyph-name="zeta" unicode="&#x3b6;" 
d="M400 -200l-139.997 0.000976562v130h135c21.333 0 38.333 3.5 51 10.5s19 21.833 19 44.5c0 24 -6.33301 40 -19 48s-29.667 12 -51 12h-65c-90.667 0 -158.334 17.5 -203.001 52.5s-67 88.167 -67 159.5c0 59.333 12.167 106.666 36.5 141.999s62.166 80 113.499 134
l78 87l-5 15c-62 -18.667 -117.5 -15.167 -166.5 10.5s-90.5 73.167 -124.5 142.5l99 69c35.333 -54 75.666 -88.333 120.999 -103s106.666 -13.667 183.999 3l201 75l24 -176l-182 -24l-91 -138c-28 -42 -49.667 -77.667 -65 -107s-23 -66 -23 -110
c0 -34 5.83301 -59.5 17.5 -76.5s29.167 -25.5 52.5 -25.5h94c68 0 121 -15 159 -45s57 -75.667 57 -137c0 -64.667 -21.667 -113 -65 -145s-101.666 -48 -174.999 -48z" />
    <glyph glyph-name="eta" unicode="&#x3b7;" 
d="M440 -200v594.001c0 21.333 -5.16699 37.666 -15.5 48.999s-24.833 17 -43.5 17c-20.667 0 -42 -5.5 -64 -16.5s-41 -27.5 -57 -49.5v-394h-200v600h200v-110h30c16 38 41 67.5 75 88.5s73.333 31.5 118 31.5c50 0 88.667 -15.833 116 -47.5s41 -76.167 41 -133.5v-629
h-200z" />
    <glyph glyph-name="theta" unicode="&#x3b8;" 
d="M350 -10c-89.333 0 -159.999 20.5 -211.999 61.5s-78 96.167 -78 165.5v362c0 71.333 26.167 127.666 78.5 168.999s123.166 62 212.499 62c88.667 0 159 -20.667 211 -62s78 -97.666 78 -168.999v-362c0 -69.333 -26 -124.5 -78 -165.5s-122.667 -61.5 -212 -61.5z
M250.001 572v-107h200v110c0 30.667 -7.33301 54.167 -22 70.5s-40.667 24.5 -78 24.5s-63.333 -8.5 -78 -25.5s-22 -41.167 -22 -72.5zM350.001 130c37.333 0 63.333 8 78 24s22 42 22 78v113h-200v-113c0 -36 7.33301 -62 22 -78s40.667 -24 78 -24z" />
    <glyph glyph-name="iota" unicode="&#x3b9;" 
d="M485 -8c-77.333 0 -139.167 19.5 -185.5 58.5s-69.5 88.5 -69.5 148.5v261h-160v140h360v-361c0 -34 8.16699 -59 24.5 -75s38.5 -24 66.5 -24c20 0 38 2.16699 54 6.5s30.667 8.83301 44 13.5l30 -136c-30 -10.667 -58.667 -18.667 -86 -24s-53.333 -8 -78 -8z" />
    <glyph glyph-name="kappa" unicode="&#x3ba;" 
d="M270 245v-245h-200v600h200v-225h37l153 225h205l-192 -270l189 -330h-212l-143 245h-37z" />
    <glyph glyph-name="lambda" unicode="&#x3bb;" 
d="M475 0l-131.998 444.001l-121 -444h-198l144 510h156l-8 26c-14.667 49.333 -33.334 83.166 -56.001 101.499s-56.667 27.5 -102 27.5c-11.333 0 -23.833 -0.333008 -37.5 -1s-28.167 -2 -43.5 -4l-20 140c21.333 2 42 3.5 62 4.5s39 1.5 57 1.5
c89.333 0 157.166 -15.5 203.499 -46.5s81.5 -84.833 105.5 -161.5l190 -598h-200z" />
    <glyph glyph-name="mu" unicode="&#x3bc;" 
d="M270 20l10 -219.999h-220l10 220v580h200v-374c0 -28.667 5.66699 -49.334 17 -62.001s25 -19 41 -19c17.333 0 32.166 3.83301 44.499 11.5s24.833 18.834 37.5 33.501v410h200v-390c0 -30.667 4 -50.834 12 -60.501s24 -13.167 48 -10.5v-134
c-46 -10.667 -82.167 -10.5 -108.5 0.5s-48.833 35.833 -67.5 74.5h-30c-8.66699 -24 -21.5 -45 -38.5 -63s-40.833 -27 -71.5 -27c-20 0 -36.667 3.33301 -50 10s-24.666 16.667 -33.999 30v-10z" />
    <glyph glyph-name="nu" unicode="&#x3bd;" 
d="M452 0l-205 0.00195312l-223 600h200l147 -423c30.667 67.333 54.834 139.666 72.501 216.999s28.834 146 33.501 206h198c-12.667 -112.667 -39.334 -219.334 -80.001 -320.001s-88.334 -194 -143.001 -280z" />
    <glyph glyph-name="xi" unicode="&#x3be;" 
d="M640 -7c0 -64 -20.833 -112.164 -62.5 -144.497s-104.167 -48.5 -187.5 -48.5h-120v130h115c24.667 0 44.167 3.5 58.5 10.5s21.5 21.833 21.5 44.5c0 24 -7.16699 40 -21.5 48s-33.833 12 -58.5 12h-75c-75.333 0 -134.166 16 -176.499 48s-63.5 76.667 -63.5 134v17
c0 38 14.667 71.5 44 100.5s73.666 45.833 132.999 50.5v23c-38 0 -67 9.5 -87 28.5s-30 40.833 -30 65.5c0 28 10.667 51.167 32 69.5s51.333 29.833 90 34.5v23c-62.667 -2.66699 -114.5 9.16602 -155.5 35.499s-72.5 64.166 -94.5 113.499l99 69
c34.667 -52 73.167 -85.5 115.5 -100.5s98.833 -14.833 169.5 0.5l211 75l24 -176l-220 -28l-29 -16c-14 -8 -24.5 -19.167 -31.5 -33.5s-10.5 -31.833 -10.5 -52.5s4.66699 -35.167 14 -43.5s21 -12.5 35 -12.5h171v-130h-179c-36 0 -61.833 -7.83301 -77.5 -23.5
s-23.5 -34.834 -23.5 -57.501v-17c0 -20 8 -36.167 24 -48.5s41.333 -18.5 76 -18.5h44c75.333 0 131.833 -15.167 169.5 -45.5s56.5 -75.833 56.5 -136.5z" />
    <glyph glyph-name="omicron" unicode="&#x3bf;" 
d="M350 -10c-90.667 0 -161.666 19.999 -212.999 59.999s-77 95.667 -77 167v162c0 72 25.667 128.5 77 169.5s122.666 61.5 213.999 61.5c90.667 0 161.5 -21 212.5 -63s76.5 -99.667 76.5 -173v-162c0 -69.333 -25.667 -123.666 -77 -162.999s-122.333 -59 -213 -59z
M350.001 129.999c32 0 55 7.66699 69 23s21 40 21 74v143c0 35.333 -7 60.833 -21 76.5s-37 23.5 -69 23.5s-55 -7.83301 -69 -23.5s-21 -40.5 -21 -74.5v-140c0 -36 7 -62 21 -78s37 -24 69 -24z" />
    <glyph glyph-name="pi" unicode="&#x3c0;" 
d="M650 600v-139.999h-80v-250c0 -30.667 7.33301 -51.334 22 -62.001s40.667 -13.667 78 -9v-134c-90.667 -18 -160 -12.167 -208 17.5s-72 81.5 -72 155.5v282h-130v-460h-180v460h-70v140h640z" />
    <glyph glyph-name="rho" unicode="&#x3c1;" 
d="M370 140c22.667 0 40 7.66699 52 23s18 37.333 18 66v151c0 32 -7.33301 54.5 -22 67.5s-36 19.5 -64 19.5c-30.667 0 -54 -6.5 -70 -19.5s-24 -35.5 -24 -67.5v-190c20 -16.667 39.333 -29.167 58 -37.5s36 -12.5 52 -12.5zM60 -200v580.999c0 74 23.833 130 71.5 168
s118.167 57 211.5 57c98 0 172 -19 222 -57s75 -94 75 -168v-181c0 -63.333 -18.167 -114.166 -54.5 -152.499s-84.5 -57.5 -144.5 -57.5c-40 0 -73.167 10.5 -99.5 31.5s-43.5 50.5 -51.5 88.5h-30v-310h-200z" />
    <glyph glyph-name="sigma1" unicode="&#x3c2;" 
d="M250 -200l-0.000976562 140h135c21.333 0 38.333 3.16699 51 9.5s19 19.833 19 40.5c0 22 -6.33301 36.667 -19 44s-29.667 11 -51 11h-88c-74 0 -132 21 -174 63s-63 100 -63 174v95c0 73.333 26 130.5 78 171.5s123.667 61.5 215 61.5c90 0 156.333 -19.833 199 -59.5
s69 -95.167 79 -166.5l-193 -16c-3.33301 38.667 -11.333 65.167 -24 79.5s-35 21.5 -67 21.5c-33.333 0 -56.166 -8 -68.499 -24s-18.5 -43.333 -18.5 -82v-71c0 -38.667 6.33301 -66.167 19 -82.5s36 -24.5 70 -24.5h95c62 0 110.167 -16.333 144.5 -49
s51.5 -78 51.5 -136c0 -62.667 -24.667 -111.667 -74 -147s-118 -53 -206 -53h-110z" />
    <glyph glyph-name="sigma" unicode="&#x3c3;" 
d="M330 130c26.667 0 45 7.16699 55 21.5s15 37.833 15 70.5v163c0 27.333 -5 48.333 -15 63s-28.333 22 -55 22c-26 0 -44.167 -7.5 -54.5 -22.5s-15.5 -36.833 -15.5 -65.5v-160c0 -32.667 5.16699 -56.167 15.5 -70.5s28.5 -21.5 54.5 -21.5zM330 -10
c-84 0 -150 20.167 -198 60.5s-72 95.833 -72 166.5v162c0 68.667 24.167 122.667 72.5 162s114.5 59 198.5 59h369v-150l-136 8c12 -17.333 21 -37 27 -59s9 -45.333 9 -70v-112c0 -70.667 -24 -126.167 -72 -166.5s-114 -60.5 -198 -60.5z" />
    <glyph glyph-name="tau" unicode="&#x3c4;" 
d="M570 5c-101.333 -20.667 -180.001 -15.832 -236.001 14.501s-84 83.166 -84 158.499v272h-200v150h610v-150h-210v-240c0 -32 8.83301 -53.167 26.5 -63.5s48.834 -12.833 93.501 -7.5v-134z" />
    <glyph glyph-name="upsilon" unicode="&#x3c5;" 
d="M351 -10c-91.333 0 -162.665 23 -213.998 69s-77 110 -77 192v349h200v-342c0 -41.333 7.16699 -71.333 21.5 -90s37.166 -28 68.499 -28s54.166 9.16699 68.499 27.5s21.5 47.5 21.5 87.5v345h200v-349c0 -82 -25.333 -146 -76 -192s-121.667 -69 -213 -69z" />
    <glyph glyph-name="phi" unicode="&#x3c6;" 
d="M430 -200l-160.001 -0.000976562v198c-73.333 14.667 -130.5 50.834 -171.5 108.501s-61.5 131.167 -61.5 220.5v42c0 48.667 3 93.834 9 135.501s17 75.834 33 102.501l157 -32c-12 -23.333 -21.167 -53 -27.5 -89s-9.5 -75 -9.5 -117v-42
c0 -59.333 6.83301 -103.833 20.5 -133.5s37.167 -48.834 70.5 -57.501v464h94c86.667 0 154.834 -25.833 204.501 -77.5s74.5 -122.834 74.5 -213.501v-32c0 -76 -20.5 -138.5 -61.5 -187.5s-98.167 -79.833 -171.5 -92.5v-197zM409.999 459.999l-0.000976562 -326
c40.667 5.33301 69.334 19 86.001 41s25 56 25 102v32c0 52 -9.5 90.167 -28.5 114.5s-46.5 36.5 -82.5 36.5z" />
    <glyph glyph-name="chi" unicode="&#x3c7;" 
d="M441 -200l-102 211l-106 -211h-197l213 396l-196 404h199l105 -216l110 216h197l-217 -400l195 -400h-201z" />
    <glyph glyph-name="psi" unicode="&#x3c8;" 
d="M430 -200h-160v185c-76.667 11.333 -134.667 39.833 -174 85.5s-59 107.834 -59 186.501v343h163v-313c0 -45.333 6.16699 -80.833 18.5 -106.5s32.833 -42.834 61.5 -51.501v471h140v-471c28.667 8.66699 49.167 25.834 61.5 51.501s18.5 61.167 18.5 106.5v313h163
v-343c0 -78.667 -19.667 -140.834 -59 -186.501s-97.333 -74.167 -174 -85.5v-185z" />
    <glyph glyph-name="omega" unicode="&#x3c9;" 
d="M185 -10c-44 0 -79.665 22.667 -106.998 68s-41 111.666 -41 198.999v132c0 46 3.16699 86.167 9.5 120.5s17.166 70.166 32.499 107.499l158 -32c-13.333 -48 -22.833 -86.833 -28.5 -116.5s-8.5 -56.167 -8.5 -79.5v-132c0 -38.667 3.16699 -67.834 9.5 -87.501
s14.833 -29.5 25.5 -29.5c15.333 0 26.666 6 33.999 18s11 31.667 11 59v223h140v-223c0 -27.333 3.83301 -47 11.5 -59s18.834 -18 33.501 -18c12 0 20.833 9.83301 26.5 29.5s8.5 48.834 8.5 87.501v132c0 23.333 -2.83301 49.833 -8.5 79.5s-15.167 68.5 -28.5 116.5
l158 32c15.333 -37.333 26.166 -73.166 32.499 -107.499s9.5 -74.5 9.5 -120.5v-132c0 -87.333 -13.833 -153.666 -41.5 -198.999s-65.5 -68 -113.5 -68c-32 0 -61 9.5 -87 28.5s-45.333 54.5 -58 106.5h-30c-7.33301 -52 -25.333 -87.5 -54 -106.5s-60 -28.5 -94 -28.5z
" />
    <glyph glyph-name="iotadieresis" unicode="&#x3ca;" 
d="M485 -8c-77.333 0 -139.167 19.5 -185.5 58.5s-69.5 88.5 -69.5 148.5v261h-160v140h360v-361c0 -34 8.16699 -59 24.5 -75s38.5 -24 66.5 -24c20 0 38 2.16699 54 6.5s30.667 8.83301 44 13.5l30 -136c-30 -10.667 -58.667 -18.667 -86 -24s-53.333 -8 -78 -8z
M214.999 690c-28.667 0 -52.167 5.66699 -70.5 17s-27.5 31 -27.5 59v15c0 28.667 9.16699 49 27.5 61s41.833 18 70.5 18c29.333 0 53 -6 71 -18s27 -32.333 27 -61v-15c0 -28 -9.16699 -47.667 -27.5 -59s-41.833 -17 -70.5 -17zM474.999 690
c-28.667 0 -52.167 5.66699 -70.5 17s-27.5 31 -27.5 59v15c0 28.667 9.16699 49 27.5 61s41.833 18 70.5 18c29.333 0 53 -6 71 -18s27 -32.333 27 -61v-15c0 -28 -9.16699 -47.667 -27.5 -59s-41.833 -17 -70.5 -17z" />
    <glyph glyph-name="upsilondieresis" unicode="&#x3cb;" 
d="M351 -10c-91.333 0 -162.665 23 -213.998 69s-77 110 -77 192v349h200v-342c0 -41.333 7.16699 -71.333 21.5 -90s37.166 -28 68.499 -28s54.166 9.16699 68.499 27.5s21.5 47.5 21.5 87.5v345h200v-349c0 -82 -25.333 -146 -76 -192s-121.667 -69 -213 -69zM220.001 690
c-28.667 0 -52.167 5.66699 -70.5 17s-27.5 31 -27.5 59v15c0 28.667 9.16699 49 27.5 61s41.833 18 70.5 18c29.333 0 53 -6 71 -18s27 -32.333 27 -61v-15c0 -28 -9.16699 -47.667 -27.5 -59s-41.833 -17 -70.5 -17zM480.001 690c-28.667 0 -52.167 5.66699 -70.5 17
s-27.5 31 -27.5 59v15c0 28.667 9.16699 49 27.5 61s41.833 18 70.5 18c29.333 0 53 -6 71 -18s27 -32.333 27 -61v-15c0 -28 -9.16699 -47.667 -27.5 -59s-41.833 -17 -70.5 -17z" />
    <glyph glyph-name="omicrontonos" unicode="&#x3cc;" 
d="M256 700l46 200h240l-165 -200h-121zM350 -10c-90.667 0 -161.666 19.999 -212.999 59.999s-77 95.667 -77 167v162c0 72 25.667 128.5 77 169.5s122.666 61.5 213.999 61.5c90.667 0 161.5 -21 212.5 -63s76.5 -99.667 76.5 -173v-162
c0 -69.333 -25.667 -123.666 -77 -162.999s-122.333 -59 -213 -59zM350.001 129.999c32 0 55 7.66699 69 23s21 40 21 74v143c0 35.333 -7 60.833 -21 76.5s-37 23.5 -69 23.5s-55 -7.83301 -69 -23.5s-21 -40.5 -21 -74.5v-140c0 -36 7 -62 21 -78s37 -24 69 -24z" />
    <glyph glyph-name="upsilontonos" unicode="&#x3cd;" 
d="M351 -10c-91.333 0 -162.665 23 -213.998 69s-77 110 -77 192v349h200v-342c0 -41.333 7.16699 -71.333 21.5 -90s37.166 -28 68.499 -28s54.166 9.16699 68.499 27.5s21.5 47.5 21.5 87.5v345h200v-349c0 -82 -25.333 -146 -76 -192s-121.667 -69 -213 -69zM246.001 700
l46 200h240l-165 -200h-121z" />
    <glyph glyph-name="omegatonos" unicode="&#x3ce;" 
d="M261 700l46 200h240l-165 -200h-121zM185 -10c-44 0 -79.665 22.667 -106.998 68s-41 111.666 -41 198.999v132c0 46 3.16699 86.167 9.5 120.5s17.166 70.166 32.499 107.499l158 -32c-13.333 -48 -22.833 -86.833 -28.5 -116.5s-8.5 -56.167 -8.5 -79.5v-132
c0 -38.667 3.16699 -67.834 9.5 -87.501s14.833 -29.5 25.5 -29.5c15.333 0 26.666 6 33.999 18s11 31.667 11 59v223h140v-223c0 -27.333 3.83301 -47 11.5 -59s18.834 -18 33.501 -18c12 0 20.833 9.83301 26.5 29.5s8.5 48.834 8.5 87.501v132
c0 23.333 -2.83301 49.833 -8.5 79.5s-15.167 68.5 -28.5 116.5l158 32c15.333 -37.333 26.166 -73.166 32.499 -107.499s9.5 -74.5 9.5 -120.5v-132c0 -87.333 -13.833 -153.666 -41.5 -198.999s-65.5 -68 -113.5 -68c-32 0 -61 9.5 -87 28.5s-45.333 54.5 -58 106.5h-30
c-7.33301 -52 -25.333 -87.5 -54 -106.5s-60 -28.5 -94 -28.5z" />
    <glyph glyph-name="IEgravecyrillic" unicode="&#x400;" 
d="M311 900l-225 200h250l106 -200h-131zM50 0v800h600v-150h-400v-150h350v-150h-350v-200h400v-150h-600z" />
    <glyph glyph-name="Iocyrillic" unicode="&#x401;" 
d="M50 0v800h600v-150h-400v-150h350v-150h-350v-200h400v-150h-600zM230 890c-28.667 0 -52.167 5.66699 -70.5 17s-27.5 31 -27.5 59v15c0 28.667 9.16699 49 27.5 61s41.833 18 70.5 18c29.333 0 53 -6 71 -18s27 -32.333 27 -61v-15c0 -28 -9.16699 -47.667 -27.5 -59
s-41.833 -17 -70.5 -17zM490 890c-28.667 0 -52.167 5.66699 -70.5 17s-27.5 31 -27.5 59v15c0 28.667 9.16699 49 27.5 61s41.833 18 70.5 18c29.333 0 53 -6 71 -18s27 -32.333 27 -61v-15c0 -28 -9.16699 -47.667 -27.5 -59s-41.833 -17 -70.5 -17z" />
    <glyph glyph-name="Djecyrillic" unicode="&#x402;" 
d="M120 0v650h-110v150h460v-150h-150v-130h70c87.333 0 154.166 -19.667 200.499 -59s69.5 -100 69.5 -182v-41c0 -81.333 -23.167 -141.333 -69.5 -180s-113.166 -58 -200.499 -58v148c26 0 45.833 6.83301 59.5 20.5s20.5 37.5 20.5 71.5v37
c0 34.667 -6.83301 59.167 -20.5 73.5s-33.5 21.5 -59.5 21.5h-70v-372h-200z" />
    <glyph glyph-name="Gjecyrillic" unicode="&#x403;" 
d="M251 900l106 200h250l-225 -200h-131zM100 0v800h570v-150h-370v-650h-200z" />
    <glyph glyph-name="Ecyrillic" unicode="&#x404;" 
d="M670 277c-4.66699 -102 -31.001 -175.332 -79.001 -219.999s-125 -67 -231 -67c-102.667 0 -180 21.5 -232 64.5s-78 107.167 -78 192.5v302c0 86.667 26.167 151.834 78.5 195.501s129.833 65.5 232.5 65.5c104 0 180.333 -21.333 229 -64
s75.334 -118.334 80.001 -227.001l-200 -10c-4 58.667 -12.833 98.5 -26.5 119.5s-41.5 31.5 -83.5 31.5c-40 0 -68.333 -10 -85 -30s-25 -54 -25 -102v-28h150v-150h-150v-83c0 -46 8.33301 -78.667 25 -98s45 -29 85 -29c42 0 69.667 9.66699 83 29
s22.333 58.666 27 117.999z" />
    <glyph glyph-name="Dzecyrillic" unicode="&#x405;" 
d="M341 -10c-64.667 0 -121.331 7.83203 -169.998 23.499s-92.334 34.834 -131.001 57.501l45 149c40 -23.333 80.167 -42.5 120.5 -57.5s86.5 -22.5 138.5 -22.5c39.333 0 67.666 7.33301 84.999 22s26 34.334 26 59.001c0 30.667 -11 51.667 -33 63s-60 23 -114 35
c-91.333 20.667 -155.5 49 -192.5 85s-55.5 88 -55.5 156c0 70 24 129.167 72 177.5s121.667 72.5 221 72.5c48 0 96.5 -8.5 145.5 -25.5s87.833 -33.833 116.5 -50.5l-35 -142c-40 20 -77.833 36 -113.5 48s-73.167 18 -112.5 18c-32.667 0 -56.667 -6.33301 -72 -19
s-23 -31.334 -23 -56.001s9.33301 -44.334 28 -59.001s58.667 -28.334 120 -41.001c91.333 -19.333 155.5 -47.666 192.5 -84.999s55.5 -92.333 55.5 -165c0 -77.333 -27.667 -137.166 -83 -179.499s-132.333 -63.5 -231 -63.5z" />
    <glyph glyph-name="Icyrillic" unicode="&#x406;" 
d="M50 0v150h200v500h-200v150h600v-150h-200v-500h200v-150h-600z" />
    <glyph glyph-name="Yicyrillic" unicode="&#x407;" 
d="M220 890c-28.667 0 -52.167 5.66699 -70.5 17s-27.5 31 -27.5 59v15c0 28.667 9.16699 49 27.5 61s41.833 18 70.5 18c29.333 0 53 -6 71 -18s27 -32.333 27 -61v-15c0 -28 -9.16699 -47.667 -27.5 -59s-41.833 -17 -70.5 -17zM480 890
c-28.667 0 -52.167 5.66699 -70.5 17s-27.5 31 -27.5 59v15c0 28.667 9.16699 49 27.5 61s41.833 18 70.5 18c29.333 0 53 -6 71 -18s27 -32.333 27 -61v-15c0 -28 -9.16699 -47.667 -27.5 -59s-41.833 -17 -70.5 -17zM50 0v150h200v500h-200v150h600v-150h-200v-500h200
v-150h-600z" />
    <glyph glyph-name="Jecyrillic" unicode="&#x408;" 
d="M339 -10c-104.667 0 -181.167 23.168 -229.5 69.501s-74.833 122.166 -79.5 227.499l200 11c4.66699 -64.667 14.5 -107.167 29.5 -127.5s40.833 -30.5 77.5 -30.5c32.667 0 56.334 9 71.001 27s22 52.333 22 103v380h-230v150h430v-540c0 -84 -23.333 -150 -70 -198
s-120.334 -72 -221.001 -72z" />
    <glyph glyph-name="Ljecyrillic" unicode="&#x409;" 
d="M211 134c-0.666992 -45.333 -13.833 -79.835 -39.5 -103.502s-63.5 -35.5 -113.5 -35.5c-12 0 -24.167 0.833008 -36.5 2.5s-24.833 3.83398 -37.5 6.50098l20 141c4.66699 -0.666992 9.16699 -1.5 13.5 -2.5s8.83301 -1.16699 13.5 -0.5c8.66699 0 16 3.5 22 10.5
s9.33301 20.167 10 39.5l7 608h368v-242h58c52 0 92.833 -15.667 122.5 -47s44.5 -74.666 44.5 -129.999v-190c0 -60 -15 -106.833 -45 -140.5s-71 -50.5 -123 -50.5h-207v670h-72zM438.001 129.998l25 -0.000976562c17.333 0 30 6.33301 38 19s12 33.334 12 62.001v143
c0 26.667 -4 46 -12 58s-20.667 18 -38 18h-25v-300z" />
    </font>
</defs>
</svg>
